<?xml version="1.0" standalone="no"?>
<!DOCTYPE svg PUBLIC "-//W3C//DTD SVG 20010904//EN"
 "http://www.w3.org/TR/2001/REC-SVG-20010904/DTD/svg10.dtd">
<svg version="1.0" xmlns="http://www.w3.org/2000/svg"
 width="998.000000pt" height="395.000000pt" viewBox="0 0 998.000000 395.000000"
 preserveAspectRatio="xMidYMid meet">

<g transform="translate(0.000000,395.000000) scale(0.100000,-0.100000)"
fill="#010000" stroke="none">
<path fill="#010000" d="M1718 3607 c-25 -34 -155 -199 -288 -367 -133 -168 -302 -381 -375
-475 -74 -93 -193 -244 -265 -335 -72 -91 -177 -223 -233 -294 -56 -71 -119
-150 -139 -175 -125 -155 -203 -301 -236 -445 -23 -97 -23 -315 0 -412 81
-348 364 -627 709 -699 94 -20 298 -20 386 1 190 43 335 124 475 265 116 118
198 271 233 439 25 117 20 314 -10 435 l-25 100 22 60 c14 39 23 93 26 155 5
116 -12 182 -69 270 l-40 62 34 67 c60 116 81 194 82 306 0 117 -24 192 -90
278 l-22 29 29 54 c78 144 110 287 89 401 -20 109 -54 168 -148 261 -47 45
-88 82 -92 82 -3 -1 -27 -29 -53 -63z m102 -249 c41 -89 13 -237 -68 -371 -21
-34 -164 -221 -317 -416 -871 -1102 -823 -1037 -870 -1176 -79 -237 -12 -527
163 -707 25 -26 44 -50 41 -52 -11 -11 -147 82 -209 143 -95 94 -152 190 -198
335 -23 71 -23 321 0 392 44 140 82 202 241 402 51 64 171 216 267 337 95 121
206 261 245 310 39 50 168 212 285 360 117 149 251 318 298 378 47 59 89 107
94 107 5 0 18 -19 28 -42z m-8 -689 c22 -56 22 -141 2 -210 -38 -128 -62 -162
-467 -672 -56 -71 -113 -144 -127 -162 -14 -18 -67 -86 -118 -150 -100 -127
-123 -169 -148 -267 -20 -76 -14 -207 12 -283 26 -78 100 -182 166 -233 32
-25 58 -47 58 -48 0 -6 -62 7 -108 22 -82 27 -143 65 -210 132 -117 116 -170
254 -159 412 11 151 41 215 188 400 50 63 155 196 233 294 77 99 213 270 301
381 88 111 201 254 250 318 50 64 95 114 100 113 6 -1 18 -23 27 -47z m-17
-659 c51 -100 29 -250 -59 -395 -17 -27 -109 -148 -205 -270 -96 -121 -183
-240 -194 -265 -32 -70 -30 -179 6 -249 15 -30 25 -57 22 -59 -11 -11 -111 45
-149 84 -63 62 -90 125 -94 216 -6 117 10 153 146 327 206 263 506 641 509
641 1 0 9 -14 18 -30z m35 -691 c0 -169 -68 -380 -146 -448 -79 -70 -194 -15
-194 92 0 41 14 61 195 291 81 102 133 160 137 153 4 -7 8 -46 8 -88z"/>
<path d="M2610 1660 l0 -1050 770 0 770 0 0 195 0 195 -540 0 -540 0 0 240 0
240 460 0 460 0 0 190 0 190 -460 0 -460 0 0 230 0 230 525 0 525 0 0 195 0
195 -755 0 -755 0 0 -1050z"/>
<path fill="#010000" d="M4702 1667 c-243 -575 -442 -1047 -442 -1051 0 -3 105 -6 234 -6
l234 0 76 193 c41 105 80 207 87 225 l11 32 463 0 464 0 88 -225 88 -225 242
0 c192 0 241 3 238 13 -3 7 -203 478 -444 1047 l-440 1035 -229 3 -229 2 -441
-1043z m827 155 c83 -211 151 -385 151 -387 0 -3 -141 -5 -314 -5 l-313 0 155
395 c86 217 159 392 163 388 4 -5 76 -180 158 -391z"/>
<path d="M6710 1660 l0 -1050 215 0 215 0 2 612 3 612 289 -502 289 -503 105
3 105 3 286 507 c157 278 289 510 294 514 4 4 7 -275 7 -619 l0 -627 215 0
215 0 0 1050 0 1050 -192 0 -193 -1 -345 -615 c-190 -339 -354 -632 -366 -651
l-21 -36 -372 652 -372 651 -190 0 -189 0 0 -1050z"/>
</g>
</svg>
