<?xml version="1.0" standalone="no"?><svg version="1.0" xmlns="http://www.w3.org/2000/svg" width="1330.667" height="526.667" viewBox="0 0 998 395"><g fill="#010000"><path d="M171.8 34.3c-2.5 3.4-15.5 19.9-28.8 36.7-13.3 16.8-30.2 38.1-37.5 47.5-7.4 9.3-19.3 24.4-26.5 33.5-7.2 9.1-17.7 22.3-23.3 29.4-5.6 7.1-11.9 15-13.9 17.5-12.5 15.5-20.3 30.1-23.6 44.5-2.3 9.7-2.3 31.5 0 41.2 8.1 34.8 36.4 62.7 70.9 69.9 9.4 2 29.8 2 38.6-.1 19-4.3 33.5-12.4 47.5-26.5 11.6-11.8 19.8-27.1 23.3-43.9 2.5-11.7 2-31.4-1-43.5l-2.5-10 2.2-6c1.4-3.9 2.3-9.3 2.6-15.5.5-11.6-1.2-18.2-6.9-27l-4-6.2 3.4-6.7c6-11.6 8.1-19.4 8.2-30.6 0-11.7-2.4-19.2-9-27.8l-2.2-2.9 2.9-5.4c7.8-14.4 11-28.7 8.9-40.1-2-10.9-5.4-16.8-14.8-26.1-4.7-4.5-8.8-8.2-9.2-8.2-.3.1-2.7 2.9-5.3 6.3zM182 59.2c4.1 8.9 1.3 23.7-6.8 37.1-2.1 3.4-16.4 22.1-31.7 41.6-87.1 110.2-82.3 103.7-87 117.6-7.9 23.7-1.2 52.7 16.3 70.7 2.5 2.6 4.4 5 4.1 5.2-1.1 1.1-14.7-8.2-20.9-14.3-9.5-9.4-15.2-19-19.8-33.5-2.3-7.1-2.3-32.1 0-39.2 4.4-14 8.2-20.2 24.1-40.2 5.1-6.4 17.1-21.6 26.7-33.7 9.5-12.1 20.6-26.1 24.5-31 3.9-5 16.8-21.2 28.5-36 11.7-14.9 25.1-31.8 29.8-37.8 4.7-5.9 8.9-10.7 9.4-10.7s1.8 1.9 2.8 4.2zm-.8 68.9c2.2 5.6 2.2 14.1.2 21-3.8 12.8-6.2 16.2-46.7 67.2-5.6 7.1-11.3 14.4-12.7 16.2-1.4 1.8-6.7 8.6-11.8 15-10 12.7-12.3 16.9-14.8 26.7-2 7.6-1.4 20.7 1.2 28.3 2.6 7.8 10 18.2 16.6 23.3 3.2 2.5 5.8 4.7 5.8 4.8 0 .6-6.2-.7-10.8-2.2-8.2-2.7-14.3-6.5-21-13.2-11.7-11.6-17-25.4-15.9-41.2 1.1-15.1 4.1-21.5 18.8-40 5-6.3 15.5-19.6 23.3-29.4 7.7-9.9 21.3-27 30.1-38.1 8.8-11.1 20.1-25.4 25-31.8 5-6.4 9.5-11.4 10-11.3.6.1 1.8 2.3 2.7 4.7zm-1.7 65.9c5.1 10 2.9 25-5.9 39.5-1.7 2.7-10.9 14.8-20.5 27-9.6 12.1-18.3 24-19.4 26.5-3.2 7-3 17.9.6 24.9 1.5 3 2.5 5.7 2.2 5.9-1.1 1.1-11.1-4.5-14.9-8.4-6.3-6.2-9-12.5-9.4-21.6-.6-11.7 1-15.3 14.6-32.7 20.6-26.3 50.6-64.1 50.9-64.1.1 0 .9 1.4 1.8 3zm3.5 69.1c0 16.9-6.8 38-14.6 44.8-7.9 7-19.4 1.5-19.4-9.2 0-4.1 1.4-6.1 19.5-29.1 8.1-10.2 13.3-16 13.7-15.3.4.7.8 4.6.8 8.8zM261 229v105h154v-39H307v-48h92v-38h-92v-46h105v-39H261v105zM470.2 228.3C445.9 285.8 426 333 426 333.4c0 .3 10.5.6 23.4.6h23.4l7.6-19.3c4.1-10.5 8-20.7 8.7-22.5l1.1-3.2H582.9l8.8 22.5 8.8 22.5h24.2c19.2 0 24.1-.3 23.8-1.3-.3-.7-20.3-47.8-44.4-104.7l-44-103.5-22.9-.3-22.9-.2-44.1 104.3zm82.7-15.5c8.3 21.1 15.1 38.5 15.1 38.7 0 .3-14.1.5-31.4.5h-31.3l15.5-39.5c8.6-21.7 15.9-39.2 16.3-38.8.4.5 7.6 18 15.8 39.1zM671 229v105h43l.2-61.2.3-61.2 28.9 50.2 28.9 50.3 10.5-.3 10.5-.3 28.6-50.7c15.7-27.8 28.9-51 29.4-51.4.4-.4.7 27.5.7 61.9V334h43V124h-19.2l-19.3.1-34.5 61.5c-19 33.9-35.4 63.2-36.6 65.1l-2.1 3.6-37.2-65.2-37.2-65.1H671v105z"/></g></svg>