<svg width="126" height="24" viewBox="0 0 126 24" fill="none" xmlns="http://www.w3.org/2000/svg"><path d="M90.483 6.47h-2.94c-.833 0-1.403.175-1.754.505s-.527.925-.527 1.717V18.86h-1.777V8.56c0-.77.132-1.629.549-2.267.746-1.188 2.194-1.408 3.246-1.408h3.181c.022-.044.022 1.584.022 1.584zM79.186 17.297c-.833 0-1.404-.176-1.755-.506-.35-.33-.526-.88-.526-1.695V6.491h3.685V4.907h-3.685V.703h-1.777v14.503c0 .77.132 1.629.548 2.267.746 1.189 2.194 1.409 3.247 1.409h3.181v-1.563h-2.94v-.022h.022z" fill="#666"/><path d="M7.497 3.108c-.262 1.415-.601 3.504-.779 5.623-.308 3.75-.115 6.249-.115 6.249L1.36 19.984s-.408-2.808-.616-5.97a98.755 98.755 0 01-.178-4.726c0-.062.031-.116.031-.178 0-.07.085-.774.771-1.416.748-.711 6.206-5.003 6.13-4.586z" fill="#7C7C7C"/><path d="M7.497 3.108c-.262 1.416-.601 3.504-.779 5.623 0 0-5.805-.696-6.152.711 0-.07.1-.928.78-1.577.755-.727 6.228-5.174 6.151-4.757z" fill="#666"/><path d="M.574 9.11v.324c.062-.255.154-.44.37-.703.432-.55 1.126-.696 1.411-.735 1.419-.186 3.523-.418 5.636-.48 3.746-.116 6.213.194 6.213.194l5.243-5.004s-2.753-.526-5.898-.897a83.779 83.779 0 00-4.872-.433c-.07 0-.794-.1-1.48.556-.748.712-4.503 4.285-6.014 5.731C.52 8.313.574 9.048.574 9.11z" fill="#959595"/><path d="M19.262 15.506c-1.418.193-3.515.433-5.635.495-3.747.123-6.23-.186-6.23-.186l-5.25 5.004s2.784.55 5.913.905c1.92.224 3.632.34 4.657.402.07 0 .193-.062.262-.062.07 0 .794-.124 1.48-.781.763-.704 5.22-5.824 4.803-5.777z" fill="#666"/><path d="M19.263 15.506c-1.419.193-3.516.433-5.636.495 0 0 .409 5.854-1.01 6.117.07 0 1.033-.046 1.712-.696.747-.703 5.35-5.963 4.934-5.916z" fill="#666"/><path d="M12.941 22.149c-.1-.008-.208-.008-.324-.023.262-.047.44-.14.717-.333.563-.41.748-1.09.794-1.376.255-1.416.586-3.504.756-5.623.3-3.751.108-6.234.108-6.234l5.242-5.004s.385 2.785.601 5.948c.14 2.073.178 3.882.185 4.896 0 .07.062.796-.624 1.454-.748.711-4.495 4.307-6.006 5.746-.655.642-1.387.549-1.449.549z" fill="#959595"/><path d="M33.25.681v4.204h-3.686c-2.237 0-3.597.66-4.43 1.474-1.295 1.255-1.295 3.06-1.295 3.257v4.49c0 .198 0 2.002 1.294 3.257.834.814 2.194 1.474 4.431 1.474h1.624c1.053 0 2.5-.22 3.247-1.408.416-.638.548-1.497.548-2.267V.66h-1.755v.022h.022zm-.527 16.088c-.35.33-.92.506-1.755.506H29.39c-1.448 0-2.347-.418-2.918-.968-.658-.639-.877-1.475-.877-2.135v-4.6c0-.66.22-1.496.877-2.134.549-.55 1.47-.969 2.918-.969h3.839v8.605c.022.792-.175 1.365-.505 1.695zm73.666-9.331c.548-.55 1.469-.969 2.917-.969h4.234V4.885h-4.036c-2.238 0-3.598.66-4.432 1.474-1.294 1.255-1.294 3.06-1.294 3.257v4.49c0 .198 0 2.002 1.294 3.257.834.814 2.194 1.474 4.432 1.474h4.036v-1.584h-4.234c-1.448 0-2.347-.418-2.917-.968-.658-.639-.878-1.475-.878-2.135v-4.6c.022-.638.241-1.474.878-2.112zM73.351 9.616c0-.198 0-2.002-1.294-3.257-.834-.814-2.194-1.474-4.431-1.474H63.72v1.584h4.102c1.448 0 2.347.418 2.918.969.658.638.877 1.474.877 2.134v1.343h-5.594c-1.053 0-2.5.22-3.247 1.408-.416.638-.548 1.497-.548 2.267v.55c0 .77.132 1.629.548 2.267.746 1.188 2.194 1.408 3.247 1.408h3.554c1.053 0 2.5-.22 3.247-1.408.416-.638.548-1.497.548-2.267-.022.044-.022-5.524-.022-5.524zm-2.303 7.153c-.351.33-.922.506-1.755.506h-3.071c-.834 0-1.404-.176-1.755-.506s-.527-.88-.527-1.695v-.396c0-.814.176-1.365.527-1.695.35-.33.921-.506 1.755-.506h5.374v2.575c-.022.814-.175 1.387-.548 1.717zm31.326-7.153c0-.198 0-2.002-1.294-3.257-.834-.814-2.194-1.474-4.431-1.474h-3.905v1.584h4.08c1.448 0 2.347.418 2.918.969.658.638.877 1.474.877 2.134v1.343h-5.594c-1.053 0-2.5.22-3.247 1.408-.416.638-.548 1.497-.548 2.267v.55c0 .77.132 1.629.548 2.267.746 1.188 2.194 1.408 3.247 1.408h3.554c1.053 0 2.501-.22 3.247-1.408.417-.638.548-1.497.548-2.267V9.616zm-2.303 7.153c-.351.33-.922.506-1.755.506h-3.093c-.834 0-1.404-.176-1.755-.506s-.527-.88-.527-1.695v-.396c0-.814.176-1.365.527-1.695.35-.33.921-.506 1.755-.506h5.374v2.575c0 .814-.175 1.387-.526 1.717zM48.935 4.885h-1.82L42.66 16.483 38.23 4.885h-1.821l5.353 13.996-1.602 4.204h1.82l6.955-18.2zm11.846 4.731c0-.198 0-2.002-1.272-3.257-.812-.814-2.106-1.452-4.212-1.474h-.198c-2.106.022-3.4.704-4.211 1.474-1.273 1.255-1.273 3.06-1.273 3.257v9.243h1.755V9.55c0-.66.22-1.496.856-2.134.548-.529 1.58-.947 2.961-.947 1.382.022 2.435.418 2.962.947.636.638.855 1.474.855 2.134v9.31h1.755c.022-.705.022-9.002.022-9.244zm63.596-3.235c-.812-.814-2.106-1.452-4.212-1.474h-.197c-2.106.022-3.4.704-4.212 1.474-1.273 1.255-1.273 3.06-1.273 3.235v4.49c0 .198 0 2.002 1.273 3.257.812.814 2.106 1.452 4.212 1.474h4.124v-1.584h-4.036c-1.383-.022-2.435-.418-2.962-.946-.636-.639-.856-1.475-.856-2.135v-1.673h9.412V9.572c0-.132 0-1.936-1.273-3.19zm-8.139 4.556V9.55c0-.66.22-1.496.856-2.134.548-.529 1.579-.947 2.962-.947 1.382.022 2.435.418 2.961.947.636.638.856 1.474.856 2.134v1.387h-7.635z" fill="#666"/></svg>