<svg width="106" height="42" viewBox="0 0 106 42" fill="none" xmlns="http://www.w3.org/2000/svg"><path fill-rule="evenodd" clip-rule="evenodd" d="M43.118.231l3.54 5.734-6.206 5.711h10.726l1.008-2.292h-5.917l3.58-3.447-2.093-3.426h9.757l-8.562 19.58h2.932L61.463.23H43.114" fill="#898989"/><path fill-rule="evenodd" clip-rule="evenodd" d="M84.713 31.53h1.852v9.7h-1.852v-9.7zm-.085-3.274h2.02v1.968h-2.02v-1.968zm-3.088.002l-2.3 10.081h-.086l-2.394-6.81h-1.657l-2.722 6.803h-.086l-1.823-10.081H68.48l2.498 12.979h1.852l2.957-7.18h.085l2.554 7.187h1.852l3.169-12.979h-1.909M55.773 39.816c-1.796 0-3.032-1.394-3.032-3.416 0-1.884 1.065-3.498 2.808-3.498 1.991 0 2.525 1.64 2.581 2.654h-3.444l-.646 1.476h5.972c.027-.384.027-.482.027-.683 0-2.788-1.431-5-4.52-5-2.666 0-4.715 2.13-4.715 5.065 0 3.006 1.964 5.001 4.772 5.001 1.684 0 3.168-.6 4.07-1.667l-1.123-1.066a3.817 3.817 0 01-2.75 1.148m-7.327-8.484c0-1.206.59-1.887 1.707-1.887a5.409 5.409 0 011.628.302l.59-1.34a5.41 5.41 0 00-2.275-.482c-1.881 0-3.507.93-3.507 3.416v.3h-1.236v1.531h1.236v8.06h1.853v-8.07h1.879l.646-1.531h-2.52v-.3zm-16.704 0c-1.235 0-2.359.463-2.924 1.42h-.074V31.53h-1.796v9.7h1.853v-5.237c0-1.913.975-3.061 2.525-3.061 1.462 0 2.33.765 2.33 2.54v5.766h1.852v-6.09c0-2.457-1.462-3.796-3.76-3.796m-8.791 6.143c0 1.448-1.206 2.376-2.89 2.376-1.012 0-1.882-.465-1.882-1.614 0-1.063.9-1.775 2.274-1.775 1.236 0 2.05.22 2.498.548v.465zm-2.61-6.149a8.45 8.45 0 00-2.925.463l.31 1.477a7.874 7.874 0 012.36-.384c1.569 0 2.86.712 2.86 2.297v.272a6.641 6.641 0 00-2.437-.436c-2.525 0-4.182 1.256-4.182 3.307 0 2.13 1.628 3.088 3.454 3.088 1.516 0 2.554-.6 3.088-1.313h.082v1.122h1.797v-6.067c0-2.654-1.74-3.826-4.407-3.826zM.052 28.258v1.749h4.155v11.23h1.965v-11.23h4.143v-1.749H.052zm16.366 3.469a4.266 4.266 0 00-1.602-.273c-1.038 0-2.047.41-2.58 1.146h-.086v-1.07h-1.796v9.7h1.852v-5.308c0-2.05 1.011-2.87 2.498-2.87.436-.003.87.052 1.292.163l.421-1.502m51.57.043a4.392 4.392 0 00-1.601-.301c-1.038 0-2.162.41-2.681 1.148H63.6v-1.074h-1.796v9.7h1.852v-5.307c0-2.05 1.124-2.868 2.61-2.868.436-.003.87.051 1.292.162l.422-1.474m33.762 8.074c-1.8 0-3.032-1.394-3.032-3.416 0-1.884 1.067-3.498 2.805-3.498 1.994 0 2.527 1.64 2.583 2.654h-3.453l-.646 1.476h5.974c.027-.384.027-.482.027-.683 0-2.788-1.431-5-4.519-5-2.667 0-4.716 2.13-4.716 5.065 0 3.006 1.964 5.001 4.772 5.001 1.684 0 3.168-.6 4.07-1.667l-1.123-1.066a3.819 3.819 0 01-2.75 1.148m-60.559-4.2c-1.43-.192-2.274-.465-2.274-1.394 0-.849.844-1.367 1.882-1.367a4.798 4.798 0 012.586.832l.9-1.313c-.842-.682-2.194-1.037-3.454-1.037-2.16 0-3.761 1.286-3.761 2.98 0 1.93 1.262 2.569 3.398 2.894 1.206.19 2.244.326 2.244 1.34 0 .846-.843 1.31-1.964 1.31a4.74 4.74 0 01-3.032-1.038l-.814 1.447c.702.63 2.162 1.122 3.79 1.122 2.244 0 3.873-1.286 3.873-3.006 0-2.077-1.685-2.543-3.369-2.76m51.256-.01c-1.43-.193-2.274-.465-2.274-1.394 0-.847.843-1.365 1.882-1.365a4.8 4.8 0 012.58.83l.9-1.315c-.843-.683-2.193-1.038-3.454-1.038-2.159 0-3.76 1.286-3.76 2.98 0 1.93 1.262 2.569 3.395 2.895 1.219.19 2.247.328 2.247 1.339 0 .846-.84 1.312-1.964 1.312a4.745 4.745 0 01-3.042-1.038l-.814 1.448c.702.627 2.162 1.12 3.79 1.12 2.245 0 3.873-1.287 3.873-3.007 0-2.077-1.684-2.542-3.369-2.76" fill="#727272"/></svg>