<svg width="107" height="29" viewBox="0 0 107 29" fill="none" xmlns="http://www.w3.org/2000/svg"><path d="M22.593 8.319l-8.446 19.447H9.388L.944 8.32h4.794l6.123 14.422L18.168 8.32h4.425zm2.176 19.447h4.611V8.32h-4.61v19.447zm22.743-5.316c1.106-1.117 1.66-2.586 1.66-4.408 0-1.82-.554-3.288-1.66-4.405-1.107-1.117-2.509-1.676-4.206-1.676-1.696 0-3.091.559-4.185 1.676-1.095 1.117-1.643 2.585-1.643 4.405 0 1.822.548 3.291 1.643 4.408 1.094 1.117 2.489 1.675 4.185 1.675 1.698 0 3.099-.557 4.206-1.675zm6.196-14.131v19.447H49.32v-2.512a7.111 7.111 0 01-2.823 2.076c-1.118.46-2.355.693-3.706.693-1.918 0-3.634-.415-5.146-1.24a8.859 8.859 0 01-3.54-3.497c-.849-1.504-1.273-3.252-1.273-5.244 0-1.99.424-3.733 1.272-5.225a8.9 8.9 0 013.541-3.478c1.512-.825 3.229-1.238 5.146-1.238 1.278 0 2.453.218 3.522.655a7.765 7.765 0 012.785 1.93V8.32h4.61zm16.005 18.392c-.542.436-1.2.764-1.974.983a9.003 9.003 0 01-2.453.329c-2.164 0-3.836-.56-5.017-1.676-1.18-1.116-1.77-2.744-1.77-4.88V4.02h4.61v4.444h5.275v3.642h-5.275v9.25c0 .947.241 1.67.72 2.166.48.498 1.15.747 2.01.747 1.033 0 1.893-.267 2.582-.8l1.291 3.24zm15.24-4.261c1.106-1.117 1.66-2.586 1.66-4.408 0-1.82-.554-3.288-1.66-4.405-1.107-1.117-2.509-1.676-4.206-1.676-1.696 0-3.091.559-4.185 1.676-1.095 1.117-1.643 2.585-1.643 4.405 0 1.822.548 3.291 1.643 4.408 1.094 1.117 2.489 1.675 4.185 1.675 1.698 0 3.099-.557 4.206-1.675zm-9.59 4.297c-1.598-.85-2.847-2.033-3.745-3.552-.897-1.517-1.345-3.233-1.345-5.153 0-1.918.448-3.628 1.345-5.134.898-1.504 2.146-2.684 3.745-3.532C76.96 8.525 78.756 8.1 80.747 8.1c2.017 0 3.825.424 5.423 1.275 1.598.85 2.847 2.027 3.744 3.531.897 1.507 1.346 3.219 1.346 5.135 0 1.92-.45 3.636-1.346 5.154-.898 1.518-2.146 2.702-3.745 3.551-1.597.85-3.405 1.276-5.422 1.276-1.991 0-3.787-.426-5.384-1.276zM106.16 8.101v4.333a5.927 5.927 0 00-1.07-.108c-1.796 0-3.196.515-4.204 1.548-1.01 1.032-1.514 2.519-1.514 4.46v9.432h-4.61V8.32h4.389v2.84c1.329-2.04 3.665-3.06 7.009-3.06z" fill="#717171"/><path d="M29.381 3.25a2.574 2.574 0 00-.77-1.837 2.625 2.625 0 00-1.858-.758 2.647 2.647 0 00-1.857.759 2.596 2.596 0 00-.77 1.836 2.573 2.573 0 00.77 1.836 2.625 2.625 0 001.857.757h2.627V3.25h.001z" fill="#A1A1A1"/></svg>