<svg width="90" height="32" viewBox="0 0 90 32" fill="none" xmlns="http://www.w3.org/2000/svg"><path d="M49.208 5.645c-.06-.059-.06-.103-.06-.162V4.264c0-.161.104-.264.267-.264h.92c.162 0 .221.103.221.264v1.22c0 .161-.059.264-.222.264h-.904c-.119.015-.163-.044-.222-.103zm0 1.601h1.29v8.475h-1.29V7.246zm3.438 0h.964l.267.955c.43-.323.963-.588 1.512-.75a4.228 4.228 0 011.615-.322c.86 0 1.557.264 1.987.793.43.528.652 1.219.652 2.027v5.757h-1.29v-5.655c0-.528-.163-1.013-.489-1.336a1.783 1.783 0 00-1.29-.529c-.533 0-.963.059-1.348.22-.371.103-.86.323-1.35.647v6.668h-1.289V7.246h.06zm7.753 0h1.29l2.638 7.3 2.742-7.3h1.29l-3.276 8.475H63.63L60.4 7.246zm10.168 8.152c-.489-.265-.86-.69-1.082-1.337-.222-.646-.326-1.498-.326-2.614 0-1.116.104-2.027.326-2.615.222-.646.593-1.072 1.127-1.336.533-.265 1.23-.367 2.149-.367.8 0 1.393.102 1.883.264.489.161.8.485 1.022.852.223.426.326.955.326 1.704s-.222 1.219-.652 1.542c-.43.323-1.023.485-1.823.485h-3.128c0 .749.104 1.277.223 1.703.163.367.37.69.756.852.385.162.919.265 1.615.265h2.743v.749c-.593.058-1.082.103-1.557.161-.43.059-.963.059-1.512.059-.904.073-1.6-.088-2.09-.367zm2.861-4.26c.49 0 .86-.102 1.082-.264.222-.162.326-.485.326-.955 0-.69-.163-1.219-.489-1.498-.326-.279-.86-.426-1.675-.426-.652 0-1.082.103-1.453.264a1.36 1.36 0 00-.696.911c-.163.426-.223 1.072-.223 1.866h3.128v.102zm5.529 4.642c-.756-.06-1.23-.103-1.512-.162v-.749h3.498c.593 0 1.023-.059 1.29-.22.267-.162.43-.485.43-1.014v-.367c0-.793-.534-1.175-1.557-1.175h-1.185c-.801 0-1.453-.162-1.883-.485-.43-.323-.652-.852-.652-1.6V9.58c0-.793.222-1.38.696-1.762.49-.367 1.23-.529 2.313-.529.489 0 1.023 0 1.615.059.653.059 1.127.103 1.453.161v.75h-3.276c-.593 0-1.022.102-1.29.264-.266.22-.43.529-.43 1.013v.368c0 .484.164.749.43.91.267.162.697.22 1.231.22h1.23c.8 0 1.394.162 1.823.53.43.367.653.91.653 1.542v.587c0 .793-.267 1.38-.8 1.704-.534.323-1.29.485-2.254.485-.474-.045-1.067-.103-1.823-.103zm7.649-.69c-.371-.427-.593-1.117-.534-2.13l.06-4.686h-1.35v-.793l1.394-.22.222-2.35h.964v2.35h2.475v1.013h-2.475v4.686c0 .646.103 1.072.37 1.336.267.22.534.367.92.426l1.022.103v.91h-1.186c-.86-.014-1.512-.22-1.882-.646zM49.964 27.72c-.327-.16-.534-.484-.697-.91-.163-.426-.267-1.072-.267-1.865 0-.793.104-1.38.267-1.807.163-.426.43-.749.756-.91a2.568 2.568 0 011.186-.265c.43 0 .8.059 1.126.103.326.059.593.162.8.22v1.175c-.163-.058-.43-.058-.696-.102-.267 0-.593-.06-.92-.06-.266 0-.429.06-.592.104-.104.058-.222.22-.267.484-.06.22-.104.588-.104 1.073 0 .426 0 .793.06 1.013.059.22.163.367.267.485.163.103.326.161.652.161.696 0 1.23 0 1.556-.058v1.175c-.43.161-1.082.264-1.942.264a2.761 2.761 0 01-1.185-.28zm7.1-5.654h1.941l1.78 5.86h-1.616l-.223-.91h-1.779l-.222.91h-1.556l1.675-5.86zm1.452 3.57l-.533-2.233-.534 2.232h1.067zm4.521-3.57h1.23l2.105 3.246v-3.246h1.557v5.86h-1.23l-2.105-3.245v3.246h-1.557v-5.86zm8.82 0h1.942l1.778 5.86h-1.615l-.267-.91h-1.779l-.222.91h-1.557l1.72-5.86zm1.453 3.57l-.534-2.233-.534 2.232h1.067zm4.357-3.57h2.639c.8 0 1.349.265 1.675.793.326.529.489 1.22.489 2.189 0 1.013-.163 1.762-.534 2.232-.37.485-.919.69-1.615.69h-2.639v-5.904h-.015zm2.476 4.48c.267 0 .489-.103.593-.367.103-.22.163-.647.163-1.22 0-.425-.06-.793-.104-1.013-.06-.22-.163-.367-.267-.426a.926.926 0 00-.43-.103h-.919v3.144h.964v-.015zm6.136-4.48h1.942L90 27.926h-1.616l-.222-.91h-1.779l-.222.91h-1.556l1.674-5.86zm1.512 3.57l-.533-2.233-.534 2.232h1.067z" fill="#4B4B4B"/><path d="M66.89 18h.716v2h-.715v-2zm1.934 0h.609l.989 1.135V18h.716v2h-.549l-.989-1.135V20h-.715v-2h-.061zm-20.657.854l16.242-.162c.229 0 .442.119.442.313 0 .163-.168.314-.442.314l-16.242-.162a.158.158 0 01-.167-.162c0-.098.046-.14.167-.14zm41.648.281l-16.135.162c-.229 0-.442-.119-.442-.313 0-.195.168-.314.442-.314l16.135.162c.106 0 .167.076.167.163.061.064-.045.14-.167.14z" fill="#9A9A9C"/><path d="M21.867 32l.781-4.312H28L20.507 21 13 27.688h5.352L19.148 32h2.719z" fill="#666"/><path d="M28.984 25l-8.5-7.266-8.543 7.222L0 20.877l3.834-2.12L.77 13.611l6.083-.058V9.415l9.541 7.851-2.763-14.24 3.835 2.12L20.485 0l3.019 5.146 3.834-2.12-2.732 14.226 9.54-7.851v4.137l6.084.059-3.064 5.146L41 20.863 28.984 25z" fill="#666"/><path d="M20 0l-3 5.299L20 7V0zm0 0v7l3-1.701L20 0zm20 14.05L34.059 14 34 17l6-2.95zM27 3l-3.757 2.28L22 20l2.308-2.05L27 3z" fill="#666"/><path d="M23 5l-3 1.762v11.6L21.74 20 23 5zm-9-2l3.768 2.28L19 20l-2.314-2.05L14 3z" fill="#666"/><path d="M17 5l3 1.762v11.6L18.26 20 17 5zm5 14.574L34 9v4.433L23.614 21 22 19.574z" fill="#666"/><path d="M34 14l-10 6.697L25.54 22 34 17.314V14zm-7 9.415L37.143 19 41 21.052 28.928 25 27 23.415zM37.007 19L40 14l-6 3.352L37.007 19zM1 14.088L6.941 14 7 17l-6-2.912zm18 5.502L7 9v4.433L17.386 21 19 19.59zM7 14l10 6.732L15.46 22l-8.416-4.655L7 14z" fill="#666"/><path d="M15 22.412L6.874 17 4 18.944 13.457 24 15 22.412z" fill="#666"/><path d="M14 23.415L3.857 19 0 21.052 12.01 25 14 23.415zM3.993 19L1 14l6 3.296L3.993 19zM14 26.553L15.811 25l1.751.838L18 28l-4-1.447zM17.556 24L16 24.58l2 .42-.444-1z" fill="#666"/><path d="M18.885 22L17 23.3l2.038 8.7H20l-1.115-10z" fill="#666"/><path d="M19 22.318L20 21v11h-.431L19 22.318zM18 28h-5l1.457-2L18 28zm9-1.447L25.16 25l-1.777.838L23 28l4-1.447zM23.444 24l1.556.58-2 .42.444-1zm-1.725-2L23 23.3 21.667 32H21l.719-10z" fill="#666"/><path d="M22 22.318L20 21v11h.922L22 22.318zM23 28h5l-1.473-2L23 28zm2-5.523L33.911 17 37 18.944 26.683 24 25 22.477z" fill="#666"/></svg>