<svg width="47" height="47" viewBox="0 0 47 47" fill="none" xmlns="http://www.w3.org/2000/svg"><path d="M.735.932h45.326v45.34H.735V.933z" fill="#898989"/><path d="M16 16.699l-.692-7.319-2.468 7.32h-2.413L7.832 9.364 7.299 16.7H4.724L5.878 5.705h3.148l2.747 7.566 2.58-7.566h3.148l1.226 10.994H16zm8.29.245c-2.653 0-4.284-1.91-4.284-4.303 0-2.505 1.944-4.367 4.416-4.367 1.828 0 2.832.856 2.949 1.022l-1.038 1.599a2.937 2.937 0 00-1.533-.496c-1.285 0-2.141.945-2.141 2.193 0 1.302.642 2.225 1.993 2.225.973 0 1.797-.56 1.846-.593l1.005 1.648c-.05.035-1.17 1.072-3.214 1.072zm-13.2 26.74V39.09H7.436v4.598H4.725v-11h2.711v4.203h3.654v-4.203h2.713v10.997H11.09zm6.338-8.31a1.416 1.416 0 01-1.405-1.427 1.398 1.398 0 111.405 1.43v-.004zm-1.34 8.31V36.63h2.646v7.056h-2.645zm4.914 0V32.689h2.518v10.997h-2.518zm4.8 0V32.689h2.518v10.997h-2.518zM9.668 30.368c-3.358 0-5.752-2.177-5.752-5.687 0-3.66 2.518-5.869 5.932-5.869 2.518 0 3.625 1.04 3.873 1.286l-1.17 1.748a4.311 4.311 0 00-2.57-.792c-1.928 0-3.329 1.303-3.329 3.479 0 2.456 1.566 3.593 3.296 3.593.497.008.992-.06 1.469-.198v-1.582H9.422v-1.961h4.383v4.78c-.134.082-1.402 1.203-4.137 1.203zM40.5 29.89h-2.688l-1.334-5.038-1.22 5.038h-2.586l-2.34-8.175h2.505l1.285 5.274 1.352-5.274h2.224l1.352 5.274 1.234-5.274h2.406L40.5 29.89zm-19.643-6.264a2.453 2.453 0 00-2.119 1.126v5.17h-2.65v-8.219h2.186v1.094c.05-.082 1.05-1.342 2.74-1.342a1.66 1.66 0 00.331.031l-.488 2.14zm6.218 6.333v-.696a3.625 3.625 0 01-2.32.878c-1.657 0-2.668-1.11-2.668-2.685 0-2.582 3.663-2.806 4.525-2.806h.182c0-.265.068-.762-.2-.974-.145-.116-.396-.265-.977-.265a5.212 5.212 0 00-1.696.314 4.572 4.572 0 00-.382.152l-.813-1.606c.136-.082.276-.157.42-.224a6.15 6.15 0 012.605-.543c1.259 0 2.203.314 2.85.961.713.713.663 1.674.663 2.686v4.808h-2.189zm-.249-3.846c-.63 0-1.79-.033-2.27.447a.944.944 0 00-.281.696c0 .796.597.995 1.027.995a2.662 2.662 0 001.524-.464v-1.674z" fill="#fff"/></svg>