<svg width="109" height="14" viewBox="0 0 109 14" fill="none" xmlns="http://www.w3.org/2000/svg"><path d="M70.932 13.142h-2.967V1.04h9.584s1.75-.059 2.878 1.034c0 0 1.127.944 1.127 3.276v7.793h-2.967v-8s.03-.826-.237-1.092c0 0-.237-.324-.712-.324h-6.706v9.416zm12.7 0V1.04h11.957v2.687H86.6v2.066h6.26V8.39H86.6v2.066h9.05v2.686H83.632zm-20.86 0V1.04h2.968v12.103h-2.968zm37.09 0V3.726h-2.79V1.039h11.157v2.687h-5.37v9.416h-2.997zm-46.911 0V3.726h-2.79V1.039h11.157v2.687h-5.37v9.416H52.95zm-8.96-7.35c.711 0 1.156 0 1.334-.118 0 0 .297-.177.297-.532v-.797c0-.354-.297-.53-.297-.53-.237-.119-.623-.09-1.543-.09h-5.785v2.067h6.142-.149zm1.601 7.35V9.01a.596.596 0 00-.326-.53c-.148-.09-.564-.09-1.187-.09h.148-6.26v4.753H35V1.04h9.257c1.602 0 2.7.237 3.472.975.742.767.86 1.741.86 2.774v.856c0 .886-.445 1.683-1.009 2.155l.12.06c.236.117.355.265.355.265.416.531.416 1.004.416 1.564v3.454h-2.879zM.7 1.04v12.102h2.967V8.39h8.99V5.792h-8.99V3.726h10.445V1.039H.699zm106.489 9.977v.56h.535c.148 0 .267-.029.296-.236.03-.265-.178-.295-.296-.295h-.535v-.03zm-.207-.177h.712c.237 0 .504.059.504.413 0 .207-.059.295-.207.413.178.118.178.118.207.413.03.207 0 .236.089.384h-.237l-.03-.206c-.029-.178.06-.502-.267-.502h-.534v.679h-.208l-.029-1.594zm.534-.443c-.712 0-1.306.59-1.306 1.299 0 .708.594 1.299 1.306 1.299.712 0 1.305-.59 1.305-1.3 0-.737-.563-1.298-1.305-1.298zm0 2.745c-.801 0-1.484-.65-1.484-1.476a1.484 1.484 0 012.967 0c0 .827-.652 1.476-1.483 1.476z" fill="#525252"/><path d="M30.935 13.26c.98-.325 1.72-1.417 1.899-2.834v-.384h-4.955v3.218h3.056zm1.899-9.121v-.355c-.178-1.446-1.009-2.597-2.018-2.863h-2.908V4.14h4.926zm-17.388 5.903v.384c.178 1.388.92 2.51 1.9 2.834h3.026v-3.218h-4.926zm2.018-9.12c-1.038.265-1.84 1.416-2.018 2.862v.355h4.926V.92h-2.908zm15.37 4.545h-4.955v3.218h4.955V5.467zM21.707 13.26h4.837v-3.218h-4.837v3.218zM26.544.921h-4.837V4.14h4.837V.92zM15.446 8.714h4.926V5.497h-4.926v3.217z" fill="#898989"/></svg>