<svg width="88" height="33" viewBox="0 0 88 33" fill="none" xmlns="http://www.w3.org/2000/svg"><path fill-rule="evenodd" clip-rule="evenodd" d="M41.304 1.225s-1.584-1.951-1.32.392c0 0 .262 4.953-.527 11.072l-.397-.78s-1.45-1.823-3.167-1.304c0 0-1.976.652-3.167 3.649 0 0-.923 2.216-.66 3.775 0 0 0 4.168 5.143 1.172 0 0 .526-.26 1.186-.912-.13.52-.397.912-.397 1.432 0 0-.134 1.044.397 1.304.13.132.397 0 .79-1.04 0 0 3.693-9.38 3.822-13.16.01 0 1.33-1.952-1.703-5.6zM34.97 18.03s-.397-.26-.397-1.304c0 0 .129-1.957 1.45-3.516 0 0 .396-.52.66-.52.133-.127.262 0 .396.652 0 .128-.397.128-.263.653 0 0 .79 1.824 2.244 1.044-.13.26-.13.652-.263 1.044-.79 1.035-2.373 2.991-3.827 1.947z" fill="#757575"/><path fill-rule="evenodd" clip-rule="evenodd" d="M13.207 28.321c.263-.132.397-.392 1.058-.652 0 0 24.93-8.335 58.035-6.644 0 0 1.846-.127 1.32.78-.263.392-.923.524-1.98.524h-1.713s3.43 1.305-10.023 1.04c0 0 1.187 1.172-3.693.912 0 0-13.716-.652-41.415 4.3-.005 0-2.115.525-1.589-.26z" fill="#888"/><path fill-rule="evenodd" clip-rule="evenodd" d="M54.097 10.473c-.923-1.692-1.45-.26-1.45-.26-.526 1.564-3.956 5.34-4.616 5.992-2.9 2.476-1.847.912-2.11-.128 0 0 .13-2.084.66-2.476 0 0 .263.133.526-1.04 0 0 .66-1.691-1.186-1.951 0 0-1.186-.78-1.713 1.564 0 0-1.186 4.56.264 6.644 0 0 .789 1.432 4.745-2.344h-.129c1.45-1.304 3.43-3.648 3.43-3.648 2.244 3.908-1.052 4.953-1.052 4.953-1.32.78 0 .912 0 .912 5.013.132 5.406-2.864 5.406-2.864.129-2.226-2.775-5.354-2.775-5.354zm-4.483-4.688c.13-.652-.397-1.304-1.057-1.432-.66-.127-1.186.393-1.32 1.172 0 .26 0 .52-.13.912 0 .26-.263 1.305 0 1.432.398 0 1.32-.652 1.847-.912.397-.26.66-.652.66-1.172zm21.103 4.168s-3.56 5.08-3.56 6.904c0 0-.134 1.564 1.713 1.432 0 0 1.847-.132 3.167-1.172 0 0 .79-.78 1.32-.912 0 0 1.187.128.79-1.432 0 0-.397-1.824-.79-2.476 0 0-.526-.78-.923-.52 0 0-.526.26-.397 1.04 0 0 0 .132.263.78 0 0 .526 1.691.263 1.691 0 0-.263.128-.397.26l-.53.52s-1.584 1.04-1.321-.52c0 0 .263-.912.526-1.432 0 0 .923-2.476 1.847-3.78 0 0 .923-1.172-.263-1.044h-.264c.005.01-.655-.51-1.444.661zM63.33 12.17c-.66-.392-1.32-1.824-.79-2.476.264-.392.66-.652.66-1.04-.133-.911-1.846 0-2.109 1.173-.66 1.691-2.507 2.736-2.507 2.736-.263.26-.263.912-.263.912-.134 1.304.66.392.66.392 1.187-.912 1.981-1.564 1.981-1.564 2.11 4.04-1.186 5.08-1.186 5.08-.398.132-.527.26-.527.52 0 .392.66.392.66.392 5.014.132 5.407-2.869 5.407-2.869.253-1.432-1.197-2.736-1.986-3.256zm-32.708 5.992c-.13-.132-.79.133-1.45.52-.13.133-.263.133-.397.26-.13.132-.397.26-.526.26 0 0-.397.392-.397-.392 0-.133 0-.392.134-.652 0 0 .526-2.217.789-2.864 0 0 .134-.652.397-1.432 0 0 .923-.912-.923-1.304 0 0-.79-2.084-1.847 1.172 0-.26-.263-.78-.79-1.044-.133 0-.262-.128-.396-.128h-.397s-.79-.26-1.713.912c-1.057 1.044-3.956 4.56-3.296 7.428 0 0 .397 1.565 1.712 1.565 0 0 1.713 0 3.168-1.305 0 0 .396-.392.789-.912 0 .26 0 .392.134.652 0 0 0 .393.263.653.263.132.526.392 1.057.26h.263s1.847-.52 1.847-1.305c-.13-.392.13-.392.13-.392v-.26c-.006 0 1.578-1.04 1.449-1.692zm-5.411 1.172c-.13.26-.263.52-.66.78 0 0-2.11 1.304-2.11-.524 0 0 .134-1.04.526-1.952 0 0 .924-2.344 2.373-3.78.13-.128.263-.128.263 0 .263.26.263.652.397.912.134 0 .134.132.134.132-.134.912-.526 2.604-.66 3.908 0 .132-.13.397-.263.524zM10.835 9.561c-.13-.128-.526 0-1.187 1.172 0 0-6.329 10.424-7.515 15.372 0 0-1.45 3.388.397 4.688 0 0 .397.652.923.78.13.651.397 1.304.923 1.171.264-.132.264-.784.264-1.304s0-.912.129-1.304v-.392s.129-.133.129-.393c.66-2.343 3.43-13.288 5.803-17.848.005.014.531-1.158.134-1.942z" fill="#757575"/><path fill-rule="evenodd" clip-rule="evenodd" d="M20.33 27.15s-5.405-7.949-5.936-9.773c0 0-.264-.652-.66-.912.396 0 .789 0 1.186-.128 0 0 2.904 0 4.09-2.216.397-.52.924-2.604-1.45-5.212 0 0-3.166-3.648-10.156-4.168 0 0-1.976-.912-5.54 2.084 0 0-1.45 1.172-.66 1.432h.923s5.937-1.952 13.19 2.216c0 0 2.904 1.824 1.186 3.516 0 0-.789.78-2.636 1.172 0 0-.397 0-1.186.132h-1.057s-.79 0-.79.26c0 .132.134.132.527.392-.79.132-1.058.132-1.32.392 0 0-.135.128 0 .393.525 1.304 2.77 6.776 8.046 11.204 0 0 3.033 2.343 3.693 1.691.268-.127-.526-1.044-1.45-2.476zm66.212-10.033c-.924-.52-3.167-5.212-3.167-5.212-.531-.78-1.45.26-1.45.26-.66.392-1.583 1.951-1.976 2.863-.66 1.045-.526-.26-.526-.26.13-.392.263-1.04.66-1.304 0 0 .263.26.66-.912 0 0 .66-1.564-1.057-1.951 0 0-1.186-.912-1.976 1.431 0 0-1.057 3.389-.66 5.473 0 0 .263 2.476 2.373.52.263-.133.397-.52.66-.78.397-.652.526-.912.924-1.565.526-1.304 1.32-2.343 1.583-2.476-.134 1.305 1.45 5.08 1.45 5.08.66 1.952 1.583 1.824 1.583 1.824 4.746.137.919-2.991.919-2.991z" fill="#757575"/><path fill-rule="evenodd" clip-rule="evenodd" d="M75.86 21.157c1.056.133 2.109.133 3.692.26.79.133 2.11.133 2.244.652.263.52-.397.913-1.45 1.172-.66.128-.923.26-1.449.128-.66 0-1.847.132-1.976-.652 0-.392-.79-.392-1.32-.392-1.187 0-1.053-.392-.79-.78.125-.128.388-.388 1.048-.388z" fill="#898989"/><path fill-rule="evenodd" clip-rule="evenodd" d="M28.87 28.363h-.527v1.692H26.1v-1.692h-.526v3.909h.526V30.58h2.244v1.692h.526v-3.909zm1.19 1.957c0 1.04.924 1.952 2.11 1.952 1.45 0 2.244-.912 2.244-1.952 0-1.172-.923-2.084-2.11-2.084-1.32-.005-2.243 1.04-2.243 2.084zm.656 0c0-.912.66-1.564 1.584-1.564.789 0 1.45.652 1.45 1.564s-.661 1.432-1.45 1.432c-.924 0-1.584-.525-1.584-1.432zm7.52-1.957h-3.43v.52h1.45v3.389h.526v-3.389h1.45l.005-.52zm3.297 0h-2.244v3.909h2.244v-.52H39.82V30.58h1.584v-.52H39.82v-1.172h1.713v-.525zm1.712 0h-.526v3.909h2.373v-.52h-1.846v-3.389zm4.751.26a1.44 1.44 0 00-.923-.392c-.79 0-1.187.52-1.187 1.044 0 1.173 1.713 1.173 1.713 2.085 0 .132-.263.52-.66.52s-.79-.26-1.057-.653v.78c.263.26.66.26 1.057.26.66 0 1.186-.392 1.186-1.045 0-1.172-1.712-1.172-1.712-1.951 0-.26.263-.525.66-.525.263 0 .53.133.923.393v-.516zm5.803 1.697c-.134.26-.263.52-.526.652l-.531-.652c.53-.392.79-.652.79-1.044 0-.525-.398-.913-1.053-.913-.531 0-.924.393-.924.913 0 .392.134.652.397.912-.526.392-.923.78-.923 1.172 0 .52.397.912 1.057.912.264 0 .66-.133 1.187-.52l.526.52h.66l-.79-.912c.264-.393.527-.78.661-1.04h-.53zm-.923 1.04c-.263.26-.526.392-.79.392-.263 0-.526-.133-.526-.392 0-.26.263-.52.79-.78l.526.78zm-.79-2.084c0-.26.134-.393.397-.393.264 0 .527.133.527.393s-.134.392-.527.652a.719.719 0 01-.397-.652zm5.406-.913v3.909h.66v-1.697h.134c.398 0 .532.132 1.058.912l.526.78h.79c-.398-.392-.398-.52-.66-.78-.264-.52-.527-.78-.79-1.044.397-.26.66-.52.66-1.04 0-.652-.526-1.044-1.32-1.044l-1.058.004zm.66.52h.264c.66 0 .789.133.789.525s-.134.652-.79.652h-.262v-1.177zm5.67-.52h-2.244v3.909h2.244v-.52h-1.713V30.58h1.713v-.52h-1.713v-1.172h1.713v-.525zm3.033.26c-.264-.26-.531-.392-.924-.392-.66 0-1.186.52-1.186 1.044 0 1.173 1.713 1.173 1.713 2.085 0 .132-.134.52-.66.52-.398 0-.66-.26-1.058-.653v.78c.397.26.79.26 1.187.26.66 0 1.052-.392 1.052-1.045 0-1.172-1.713-1.172-1.713-1.951 0-.26.263-.525.66-.525.264 0 .66.133.924.393v-.516h.005zm1.19 1.697c0 1.04.79 1.952 2.11 1.952 1.321 0 2.11-.912 2.11-1.952 0-1.172-.789-2.084-2.11-2.084-1.32-.005-2.11 1.04-2.11 2.084zm.527 0c0-.912.66-1.564 1.584-1.564.923 0 1.583.652 1.583 1.564s-.66 1.432-1.583 1.432c-.924 0-1.584-.525-1.584-1.432zm4.88-1.957v3.909h.66v-1.697h.263c.263 0 .526.132 1.057.912l.527.78h.66c-.263-.392-.397-.52-.526-.78-.397-.52-.531-.78-.924-1.044.397-.26.66-.52.66-1.04 0-.652-.526-1.044-1.32-1.044l-1.057.004zm.66.52h.397c.526 0 .66.133.66.525s-.134.652-.66.652h-.397v-1.177zm5.932-.52h-3.43v.52h1.45v3.389h.526v-3.389h1.45v-.52h.004zm2.904.26c-.263-.26-.526-.392-.923-.392-.66 0-1.187.52-1.187 1.044 0 1.173 1.713 1.173 1.713 2.085 0 .132-.134.52-.66.52-.397 0-.79-.26-1.057-.653v.78c.397.26.66.26 1.186.26.66 0 1.057-.392 1.057-1.045 0-1.172-1.712-1.172-1.712-1.951 0-.26.263-.525.66-.525.263 0 .53.133.923.393v-.516z" fill="#757575"/></svg>