<svg width="99" height="30" viewBox="0 0 99 30" fill="none" xmlns="http://www.w3.org/2000/svg"><path d="M23.5 16c.828 0 1.5-.448 1.5-1s-.672-1-1.5-1-1.5.448-1.5 1 .672 1 1.5 1zm0 9c.828 0 1.5-.448 1.5-1s-.672-1-1.5-1-1.5.448-1.5 1 .672 1 1.5 1zm-9 0c.828 0 1.5-.448 1.5-1s-.672-1-1.5-1-1.5.448-1.5 1 .672 1 1.5 1zm0-7c1.38 0 2.5-1.343 2.5-3s-1.12-3-2.5-3-2.5 1.343-2.5 3 1.12 3 2.5 3zm-9-9C6.88 9 8 7.657 8 6S6.88 3 5.5 3 3 4.343 3 6s1.12 3 2.5 3zm0 9C6.88 18 8 16.657 8 15s-1.12-3-2.5-3S3 13.343 3 15s1.12 3 2.5 3zm9-9C15.88 9 17 7.657 17 6s-1.12-3-2.5-3S12 4.343 12 6s1.12 3 2.5 3zm9 0C24.88 9 26 7.657 26 6s-1.12-3-2.5-3S21 4.343 21 6s1.12 3 2.5 3zm-18 18C6.88 27 8 25.657 8 24s-1.12-3-2.5-3S3 22.343 3 24s1.12 3 2.5 3zm45.194-15.65v2.082c-1.073-1.587-3.004-2.48-4.989-2.43-3.754.05-6.758 2.927-6.704 6.448v.05c0 3.67 3.003 6.498 6.704 6.498 2.039.05 3.916-.843 4.989-2.43V23.7H53V11.35h-2.306zm-4.72 10.565c-2.629.05-4.774-1.935-4.828-4.365-.053-2.431 2.092-4.415 4.72-4.465 2.629-.05 4.774 1.935 4.828 4.365v.05c.053 2.381-1.931 4.365-4.506 4.415h-.215zm15.8-11.201a5.316 5.316 0 00-4.632 2.483V6H55v17.689h2.142v-2.18c.996 1.622 2.789 2.585 4.632 2.484 3.437 0 6.226-2.89 6.226-6.64 0-3.75-2.79-6.64-6.226-6.64zm-.25 11.15c-2.44.05-4.482-1.926-4.532-4.41-.05-2.483 1.893-4.561 4.334-4.612 2.44-.05 4.482 1.926 4.532 4.41v.101a4.383 4.383 0 01-4.184 4.562c-.05-.051-.1 0-.15-.051zm10.64-8.5v-2.159H70V24h2.164v-6.783c0-3.031 2.016-4.007 3.836-3.905V11c-1.574 0-3.05.565-3.836 2.364zM80 24h-2V11h2v13zm8.541-.001c2.262.049 4.377-1.231 5.459-3.2l-1.82-1.084a4.18 4.18 0 01-3.688 2.167 4.39 4.39 0 01-4.377-4.382 4.39 4.39 0 014.377-4.382c1.524-.049 2.95.788 3.59 2.167l1.77-1.034c-1.032-2.019-3.098-3.299-5.36-3.25A6.489 6.489 0 0082 17.5c.05 3.594 2.95 6.499 6.541 6.499zM38 8.144V6.023c-3.36-.253-5.133 1.616-5.133 4.999v.404H31v2.12h1.867V24h2.053V13.547H38v-2.121h-3.08v-.404c0-2.171 1.073-3.03 3.08-2.878z" fill="#707070"/><path d="M79 15c.552 0 1-.672 1-1.5s-.448-1.5-1-1.5-1 .672-1 1.5.448 1.5 1 1.5z" fill="#707070"/></svg>