<svg width="79" height="45" viewBox="0 0 79 45" fill="none" xmlns="http://www.w3.org/2000/svg"><path d="M38.505 33.842v-3.17c-1.078.437-3.874 1.093-3.874 2.46 0 .9.728 1.666 1.748 1.666.903 0 1.427-.465 2.126-.956zm.029-3.689v-2.404c0-.875-.612-1.12-1.486-1.12-.873 0-2.126.546-2.126 1.038 0 .136.059.3.059.519 0 .847-.233 1.42-1.253 1.42-.437 0-.728-.41-.728-.737 0-.492.35-.956.874-1.339 1.078-.847 2.825-1.53 4.252-1.53 1.486 0 2.272.82 2.272 2.131v5.93c0 .382 0 1.037.553 1.037.38 0 .612-.464.67-.765H42C41.883 35.4 41.388 36 40.223 36c-.903 0-1.63-.765-1.66-1.53-1.136.765-1.893 1.53-3.408 1.53C34.05 36 33 35.18 33 34.115c0-2.432 3.583-3.197 5.534-3.962zm20.46.887c0 1.69.656 4.497 2.963 4.497 2.251 0 3.02-2.234 3.02-3.978 0-1.88-.285-5.069-2.991-5.069-2.308 0-2.992 2.889-2.992 4.55zM57 30.933C57 28.262 58.994 26 61.929 26 65.034 26 67 28.234 67 31.014 67 33.874 65.063 36 61.957 36 58.795 36 57 33.738 57 30.932zM0 20.517v-.534h5.376v.534c-1 .029-1.373.029-1.373.619 0 .028.03.168.115.393l3.26 10.846 4.575-12.897h.372L16.3 32.235s3.145-9.33 3.145-10.65c0-1.04-.657-.983-1.515-1.068v-.534h3.317c1.458 0 2.945-.477 3.775-.983v8.233c1.03-.9 1.887-1.602 3.374-1.602 1.087 0 2.116.478 2.66 1.377.486.787.6 1.546.6 2.445v4.58c0 1.18.315 1.18 1.344 1.264v.422h-4.518v-.422c.972-.056 1.287-.056 1.287-1.264v-4.58c0-.73 0-1.04-.343-1.714-.372-.675-1.059-1.293-1.916-1.152-1.316.197-1.802.815-2.488 1.433v6.013c0 1.18.314 1.18 1.315 1.264v.422H21.79v-.422c1.058-.056 1.373-.056 1.373-1.264V20.686c.029-.028-.372 0-.858 0-1.83.112-1.859 1.461-2.46 3.09L15.758 36h-.43l-4.003-12.28-4.661 12.252h-.4l-4.318-13.46c-.258-.702-.372-1.292-.773-1.686-.228-.196-.228-.309-1.172-.309zM72.422 36v-.46c-.995-.06-1.271-.06-1.271-1.378v-5.883c0-1.134 1.382-2.176 2.349-2.176 1.493 0 2.294 1.042 2.294 2.604v5.455c0 1.287-.304 1.287-1.327 1.378V36H79v-.46c-.774-.06-1.41-.06-1.41-1.378v-5.883c0-1.87-1.686-3.279-3.344-3.279-1.437 0-2.183.735-3.123 1.777V25c-.995.398-2.017.98-3.095 1.134v.398c.967.123 1.299.46 1.299 1.379v6.22c0 1.287-.304 1.287-1.327 1.379v.46m-20.333 0v-.453c-1.153-.061-1.455-.061-1.455-1.36V27.69c0-.393.576-.998 1.235-.998.576 0 .686.756 1.427.756.906 0 1.126-.544 1.126-1.27 0-.755-.741-1.178-1.565-1.178-.988 0-1.73.937-2.278 1.753V25.09c-1.043.513-2.141.997-3.157 1.178v.393c1.016.121 1.428.393 1.428 1.33v6.195c0 1.269-.302 1.269-1.263 1.36V36" fill="#707070"/><path d="M57.623 26.257L58 25.004h-4.486V23h-.251A26.046 26.046 0 0150 25.979v.25h1.412v6.82c0 1.615.815 2.951 2.792 2.951 1.694 0 2.98-1.086 3.67-1.81l-.313-.39c-.628.613-1.412.975-2.165.975-1.506 0-1.882-.724-1.882-1.948v-6.542m-52.5 16.041c0 .766.197 1.39 1.042 1.39.76 0 1.155-.51 1.155-1.39v-1.56c0-.113-.028-.199-.028-.312-.028-.199-.225-.284-.479-.312V40H4v.142c-.254.028-.45.113-.479.312 0 .085-.028.17-.028.312v1.589c0 1.191-.76 1.645-1.465 1.645-1.183 0-1.55-.596-1.55-1.617v-1.674c0-.51.029-.482-.478-.539v-.142h1.493v.142c-.507.057-.479.029-.479.54" fill="#707070"/><path d="M1.067 42.377H.96c0 .378.053.729.213.999s.454.432.88.432c.374 0 .694-.135.907-.378.213-.243.293-.621.293-1.053V40.89c0-.135-.026-.216-.026-.297a.478.478 0 00-.187-.297 1.312 1.312 0 00-.347-.108v.108H2.8v-.027h1.013v.027h.107v-.108c-.133.027-.24.027-.347.108a.332.332 0 00-.186.297c0 .081-.027.162-.027.297v1.513c0 .54-.16.89-.4 1.134-.24.216-.56.324-.88.324-.533 0-.88-.135-1.067-.378C.827 43.24.72 42.89.72 42.43v-1.944l-.053-.135c-.054-.054-.134-.08-.187-.108-.08-.027-.16-.027-.293-.027v.108h.106v-.027h1.2v.027H1.6l-.027-.108c-.213.027-.32.027-.453.108a.247.247 0 00-.08.19v2.025h.107v-.162H1.04h.133v-1.945s0-.027.08-.027c.054 0 .134-.027.267-.027h.107v-.351H0v.351h.107c.213.027.32.054.32.054l.026.054v1.891c0 .486.08.918.347 1.188.267.297.667.46 1.227.432.373 0 .746-.108 1.013-.378.293-.27.48-.702.48-1.296V40.81c0-.108.027-.189.027-.27H3.44l.107.027c0-.054.026-.08.08-.135a1.56 1.56 0 01.266-.08H4V40H2.533v.351h.107c.107 0 .213.027.267.081.053.027.08.054.08.135l.106-.027h-.106c0 .108.026.162.026.27v1.486c0 .405-.08.702-.266.918-.16.189-.4.297-.72.297-.374 0-.56-.135-.694-.324-.133-.216-.186-.513-.186-.864v-.108H1.04v.162h.027zm6.446 1.595c-.616-.785-1.257-1.626-1.898-2.467v1.878c0 .084.026.168.026.224.026.169.154.225.41.225v.112h-.948v-.112c.18-.028.307-.084.333-.224 0-.057.026-.14.026-.225v-1.99c-.103-.14-.231-.28-.462-.28V41h.718c.59.757 1.18 1.542 1.77 2.327V41.59c0-.084-.026-.168-.026-.224-.026-.14-.154-.225-.41-.225v-.112H8v.112c-.18.028-.308.084-.333.224 0 .057-.026.14-.026.225V44" fill="#707070"/><path d="M7.27 43.86l.095-.106c-.762-.982-1.555-2.035-2.35-3.087l-.221-.316v2.737c0 .14.031.245.031.316 0 .14.096.28.223.315.127.07.254.07.412.106v-.14h-.127v.14h.127v-.14H4.286v.14h.127v-.14h-.127v.14a.595.595 0 00.349-.106c.095-.07.19-.175.19-.316 0-.07.032-.175.032-.315v-2.562l-.032-.035c-.127-.21-.317-.42-.666-.42v.14h.127v-.14h-.127v.14h.889v-.14l-.096.104c.73.948 1.46 1.93 2.19 2.913l.033.07h.19v-2.316c0-.14-.032-.245-.032-.316 0-.14-.095-.245-.222-.316-.127-.07-.254-.07-.413-.105v.14h.127v-.14h-.158v.14H7.84v-.14h-.127v.14h.127v-.14a.672.672 0 00-.349.106c-.095.07-.19.175-.19.315 0 .07-.032.176-.032.316v2.877h-.032v.14h.127v-.07l-.032-.035-.063.106h-.127V44h.413v-3.158c0-.105.031-.175.031-.28H7.46l.127.035.064-.106c.032-.035.127-.07.222-.07H8V40H6.571v.421h.127a.63.63 0 01.318.07l.063.105c0 .106.032.176.032.281v2.176h.127l.095-.106c-.73-.947-1.46-1.93-2.19-2.912L5.079 40H4v.421h.127c.222 0 .317.105.444.316l.096-.105H4.54v2.49c0 .106 0 .176-.032.282l-.064.105c-.031.035-.127.07-.222.07h-.127V44h1.429v-.421h-.127a.629.629 0 01-.318-.07l-.063-.105-.127.035h.127c0-.106-.032-.176-.032-.281v-2.351h-.127l-.095.105c.794 1.018 1.587 2.07 2.35 3.088l.158-.14zm2.413-.398c0 .396-.024.368.317.425V44H9v-.113c.341-.057.317-.029.317-.425v-1.924c0-.396.024-.368-.317-.425V41h1v.113c-.341.057-.317.029-.317.425" fill="#707070"/><path d="M9.653 43.193h-.082v.351l.041.14c.041.07.082.105.123.105.04 0 .102.036.163.036v-.14h-.082v.14h.082v-.14h-.837v.14h.082v-.14H9.06v.14c.123-.036.204-.036.266-.106l.06-.21v-3.088l-.04-.14c-.04-.07-.082-.106-.123-.106-.04 0-.102-.035-.163-.035v.14h.082v-.14H9.06v.14h.837v-.14h-.082v.14h.082v-.14c-.122.035-.204.035-.265.106l-.062.21v2.737h.164v-2.702s.081-.035.183-.035H10V40H9v.421h.082c.06 0 .122.035.142.035l.041.035v3.053c-.02 0-.081.035-.183.035H9V44h1v-.421h-.082c-.06 0-.122-.035-.142-.035l-.041-.035v-.316h-.082zm2.536-2.08c-.227 0-.396.057-.255.481.17.51.425 1.246.65 1.897.284-.651.539-1.33.793-1.982.114-.283 0-.396-.311-.396V41H14v.113c-.113 0-.255.029-.368.255A102.51 102.51 0 0012.557 44h-.227c-.255-.736-.566-1.557-.82-2.292-.17-.453-.284-.595-.51-.595V41h1.16" fill="#707070"/><path d="M11.628 40.28v-.14c-.106 0-.248 0-.354.07a.43.43 0 00-.177.351c0 .106.036.21.071.351.213.632.531 1.544.814 2.351l.142.351.141-.35c.354-.808.673-1.65.992-2.457.035-.105.07-.175.07-.28 0-.141-.07-.281-.177-.316a.718.718 0 00-.389-.106v.14h.142v-.14h-.142v.14h1.168v-.14h-.141v.14h.141v-.14c-.106 0-.212 0-.318.07a.832.832 0 00-.284.316c-.46 1.088-.92 2.176-1.345 3.263l.142.07v-.14h-.283v.14l.141-.035c-.318-.912-.708-1.93-1.026-2.842a2.604 2.604 0 00-.319-.631.573.573 0 00-.46-.21v.14h.142v-.14h-.142v.14l1.451.035v-.14h-.141v.28h.141v-.28.14h.142V40H10v.421h.142c.106 0 .141.035.212.105.07.07.177.246.248.527.318.912.708 1.93 1.026 2.842l.036.105h.495l.036-.105c.46-1.088.92-2.176 1.345-3.263a.538.538 0 01.141-.21l.177-.036H14V40h-1.451v.421h.141c.107 0 .213.035.248.035l.035.105c0 .035 0 .106-.035.176-.319.807-.673 1.649-.991 2.456l.142.07.141-.035c-.283-.807-.602-1.72-.814-2.35a1.363 1.363 0 01-.07-.246c0-.07 0-.106.034-.106.036-.035.107-.035.213-.035v-.28.07h.035zM14 43.914c.35-.057.325-.028.325-.428v-1.943c0-.4.025-.372-.325-.429V41h1.7v.686h-.1c-.05-.315-.125-.572-.375-.572H14.7v1.229h.325c.25 0 .35-.114.35-.372h.1v.915h-.1c0-.257-.1-.4-.35-.4H14.7v.971c0 .372.15.4.5.4.55 0 .525-.171.7-.628h.1l-.125.771H14" fill="#707070"/><path d="M14.136 43.72l.035.14c.204-.035.34-.035.443-.106l.102-.21v-3.088l-.068-.14c-.069-.07-.137-.105-.205-.105-.068 0-.17-.036-.272-.036v.14h.136v-.14h-.17v.14h2.181v.703h.136v-.14h-.136v.14l.136-.035c-.034-.211-.068-.386-.17-.562a.477.477 0 00-.511-.246h-.852V42h.579c.17 0 .34-.035.443-.14a.678.678 0 00.17-.456h-.136v.14h.137v-.14h-.137v1.122h.137v-.14h-.137v.14h.137c0-.175-.035-.35-.137-.456-.102-.14-.273-.175-.477-.175h-.579v1.333c0 .14 0 .246.034.316.068.14.17.245.306.28.137.036.273.036.444.036.374 0 .613-.07.784-.21.136-.176.204-.387.306-.667l-.136-.07v.14h.137v-.14l-.137-.036-.136.842h-2.387v.14h.137v-.14H14V44h2.796L17 42.737h-.409l-.034.07c-.136.28-.17.491-.273.561-.068.07-.204.14-.58.14-.238 0-.375 0-.443-.07l-.068-.07c0-.035-.034-.105-.034-.21v-1.053h.307a.52.52 0 01.273.07c.034.036.068.14.068.281v.14h.409v-1.438h-.375v.14c0 .14-.034.21-.068.246-.034.035-.102.07-.273.07h-.307v-1.228h.58c.136 0 .204.035.273.14.068.07.102.246.136.421v.14h.408V40H14v.421h.136c.103 0 .205.035.239.035l.068.035v3.053c-.034 0-.136.035-.307.035H14v.14h.136zM17 41h1.467c.5 0 1.033.224 1.033.729 0 .449-.333.729-.7.87l.5.644c.267.308.533.617.7.7V44h-.533c-.3 0-.467-.477-1.067-1.318h-.467v.785c0 .393-.033.365.434.42V44H17v-.112c.467-.056.433-.028.433-.42V41.56c0-.393.034-.365-.433-.42V41zm.9 1.514h.433c.434 0 .634-.28.634-.757s-.3-.617-.667-.617h-.4v1.374z" fill="#707070"/><path d="M17.122 40.313h1.347c.215 0 .429.07.582.174a.71.71 0 01.245.556c0 .487-.245.8-.582.94l-.153.07.551.938c.245.383.49.766.704.905l.062-.14h-.123v.07h.123v-.139h-.49l-.092-.07c-.153-.173-.367-.695-.765-1.495l-.031-.07h-.674v1.461l.062.14c.061.069.122.104.183.104.062 0 .153.034.245.034l.03-.139h-.122v.14h.123v-.14h-1.255v.14h.122v-.14h-.122l.03.14c.184-.035.307-.035.398-.105l.092-.209v-3.061l-.061-.139a.64.64 0 00-.184-.139c-.06 0-.153-.035-.245-.035v.209h.123v-.14H17v.28h.122c.092 0 .184.034.215.034l.061.035v3.026c-.03 0-.122.035-.276.035H17V44h1.5v-.418h-.122c-.092 0-.184-.034-.215-.034l-.061-.035v-1.148h.306v-.139l-.122.07c.275.521.459.939.612 1.217.061.14.153.244.214.348.062.07.184.139.276.139H20v-.279l-.061-.034c-.123-.07-.398-.452-.613-.835l-.459-.8-.091.07.06.139c.399-.174.735-.591.735-1.218a1.1 1.1 0 00-.336-.8A1.118 1.118 0 0018.5 40h-1.347v.313h-.03zm.827 1.74v.138h.398a.599.599 0 00.551-.313c.122-.208.153-.452.153-.765s-.092-.556-.214-.696a.771.771 0 00-.52-.208h-.491v2.017h.123v-.174h.122v-1.565h.245c.153 0 .276.035.337.14.092.103.153.243.153.486 0 .278-.03.487-.122.626-.062.14-.184.174-.337.174h-.398v.14zm3.707-.393c-.031-.302-.218-.522-.593-.522-.282 0-.532.137-.532.44s.344.468.813.77c.5.33.656.551.656.881 0 .496-.563.771-1.156.771-.313 0-.563-.055-.813-.138L20 43.807v-.605h.125c.063.468.406.66.75.66s.625-.22.625-.523c0-.275-.156-.495-.875-.908-.25-.165-.563-.303-.563-.77 0-.386.47-.661 1.032-.661.218 0 .468.028.656.083l.031.055v.55" fill="#707070"/><path d="M21.528 40.933h.11a1.213 1.213 0 00-.194-.533.62.62 0 00-.472-.233.471.471 0 00-.389.166c-.11.1-.194.3-.194.5 0 .234.111.4.222.567.139.167.306.3.528.5.222.2.361.367.444.5.084.133.111.267.111.467a.675.675 0 01-.277.566 1.03 1.03 0 01-.64.234c-.25 0-.471-.067-.666-.167l-.028.133.111-.066-.027-.034v-.7h-.111v.134h.11v-.134h-.11c.027.3.138.534.277.7.14.167.334.2.528.2a.6.6 0 00.472-.233.891.891 0 00.195-.567c0-.2-.056-.366-.167-.566-.139-.2-.333-.4-.667-.634-.11-.1-.222-.166-.305-.3a.85.85 0 01-.139-.5.66.66 0 01.222-.466c.14-.134.361-.2.556-.2.166 0 .416.033.555.1l.028-.134-.111.067v.033l.028.6h.11V40.8h-.221v.133h.11v.134h.223v-.834l-.056-.1-.027-.033h-.028A2.128 2.128 0 0021 40c-.278 0-.528.1-.694.267a.882.882 0 00-.306.7c0 .3.083.533.194.7.112.166.25.266.362.366.305.234.5.434.61.6.112.167.14.267.14.4 0 .3-.195.5-.417.5-.139 0-.278-.033-.361-.133-.111-.1-.167-.267-.195-.5v-.133H20v.9l.028.1.028.033.055.033c.222.1.472.167.75.167s.556-.1.778-.267c.222-.166.361-.466.361-.8a1.6 1.6 0 00-.139-.633c-.111-.2-.25-.367-.5-.567-.222-.2-.389-.333-.5-.466-.111-.134-.167-.234-.167-.367 0-.167.028-.233.112-.3.055-.067.138-.1.25-.1.138 0 .222.067.305.133a.79.79 0 01.111.367h.222-.166v-.067zm2.155 2.529c0 .396-.024.368.317.425V44h-1v-.113c.341-.057.317-.029.317-.425v-1.924c0-.396.024-.368-.317-.425V41h1v.113c-.341.057-.317.029-.317.425" fill="#707070"/><path d="M23.653 43.165h-.082v.348l.041.174c.041.07.082.104.123.14.04 0 .102.034.163.034v-.14h-.061v.14h.081v-.14h-.836v.14h.081v-.14h-.081v.14c.122-.035.204-.035.285-.104a.413.413 0 00.062-.21v-3.06l-.041-.174c-.041-.07-.082-.104-.123-.14-.04 0-.102-.034-.163-.034v.14h.082v-.14h-.082v.14h.837v-.14h-.102v.14h.081v-.14c-.122.035-.204.035-.265.104l-.061.21v2.712h.143v-2.713c.02 0 .081-.035.183-.035H24V40h-1v.418h.082c.06 0 .122.034.142.034l.041.035v3.061c-.02 0-.081.035-.183.035H23V44h1v-.418h-.082c-.06 0-.122-.034-.142-.034l-.041-.035v-.348h-.082zm3.075.297c0 .396-.032.368.424.425V44h-1.337v-.113c.457-.057.424-.029.424-.425v-2.32h-.456c-.424 0-.522.226-.685.509H25l.13-.651h2.74l.13.65h-.13c-.164-.282-.261-.508-.685-.508h-.457" fill="#707070"/><path d="M26.748 43.228h-.117v.351l.058.14c.059.07.117.106.175.106.058 0 .146.035.233.035v-.14h-.116v.14h.116v-.14h-1.194v.14h.116v-.14h-.116v.14c.175-.035.291-.035.379-.106l.087-.21v-3.369h-.524a.65.65 0 00-.495.246c-.117.14-.175.316-.234.491l.117.07v-.14h-.03v.14l.117.035.117-.701h2.243l.087.701.117-.035v-.14h-.117v.14l.117-.07c-.059-.175-.117-.35-.233-.49a.605.605 0 00-.496-.247h-.524v3.018h.117v-.14h-.117v.14h.117v.14h.116v-2.877h.262c.175 0 .233.07.32.14.059.106.117.246.204.422l.03.07H28L27.825 40h-2.65L25 41.088h.349l.03-.07c.087-.176.145-.316.203-.422.059-.105.146-.14.32-.14h.292v3.088c-.029 0-.116.035-.262.035h-.116V44h1.427v-.421h-.117c-.087 0-.175-.035-.204-.035l-.058-.035v-.316h-.116v.14-.105zm2.091.659c.451-.057.42-.029.42-.425v-.65l-.743-1.303c-.161-.283-.29-.396-.516-.396V41h1.258v.113c-.355 0-.322.17-.226.396l.58 1.076.678-1.076c.162-.254 0-.396-.29-.396V41h1v.113c-.129 0-.258.057-.387.255l-.806 1.302c-.065.085-.065.198-.065.311v.481c0 .396-.032.368.42.425V44h-1.323" fill="#707070"/><path d="M28.912 43.72l.03.14c.176-.035.293-.035.381-.106l.089-.21V42.35l-.706-1.65c-.088-.175-.147-.315-.235-.42-.089-.106-.206-.14-.353-.14v.14h.117v-.14h-.117v.14h1.147v-.14h-.118v.14h.118v-.14c-.118 0-.206 0-.265.07a.323.323 0 00-.118.245c0 .14.03.246.089.351l.647 1.579.735-1.579a.641.641 0 00.088-.316.389.389 0 00-.147-.316c-.088-.07-.176-.07-.294-.07v.14h.118v-.14H30v.14h.912v-.14h-.118v.14h.118v-.14c-.177 0-.353.106-.47.386l-.736 1.614c-.059.14-.059.316-.059.456v.948l.059.14c.059.07.117.105.176.105.06 0 .147.035.236.035l.03-.14h-.119v.14h.118v-.14l-1.235.07v.14h.117v-.14h-.117v-.14h-.118V44h1.441v-.421h-.117c-.089 0-.147-.035-.206-.035l-.06-.035v-.912c0-.14 0-.246.03-.316l.736-1.614c.117-.21.176-.246.264-.246H31V40h-1.147v.421h.118c.088 0 .147.035.176.035l.03.07c0 .035 0 .07-.06.176l-.5 1.087-.44-1.087c-.03-.105-.06-.176-.06-.21 0 0 .06-.036.148-.036h.117V40H28v.421h.118c.088 0 .117.035.176.07.059.07.118.176.177.316l.676 1.579v1.123s-.118.035-.265.035l.03.175zM33 42.864c0-.757.506-1.864 1.264-1.864.598 0 .736.524.736 1.02 0 .64-.39 1.98-1.264 1.98-.575-.03-.736-.612-.736-1.136zm1.586-1.136c0-.582-.276-.611-.368-.611-.482 0-.804 1.106-.804 1.864 0 .29.046.844.368.844.528 0 .804-1.077.804-2.097zm3.747-1.174l-.151.125h-.788c-.303 1.46-.758 3.388-1.121 4.321H36l.849-4.321h-.576l.06-.249h.546c.303-1.306 1.363-1.43 1.606-1.43.151 0 .424.031.515.124l-.06.404-.152.063c-.091-.156-.273-.342-.515-.342-.364 0-.637.248-.758.901l-.06.311h.878m2.747 2.833c0 .53-.03.5.51.559V44H40v-.147c.54-.059.51-.03.51-.559v-2.588c0-.53.03-.5-.51-.559V40h1.53c.99 0 1.47.382 1.47 1.088 0 .824-.78 1.294-1.68 1.236v-.118c.75 0 1.08-.412 1.08-1.059s-.33-.941-.99-.941h-.36" fill="#707070"/><path d="M41.073 43.25h-.11v.361l.055.139c.055.056.138.083.193.111.083.028.165.028.303.028v-.111h-.083v.028h-1.238v-.028h-.11v.11c.22-.027.33-.027.468-.11a.253.253 0 00.082-.195v-3.166l-.055-.14c-.055-.055-.138-.083-.193-.11-.082-.028-.165-.028-.302-.056v.111h.11v-.028h1.293c.44 0 .743.084.936.25.193.14.275.362.303.667a.994.994 0 01-.358.778c-.22.167-.55.278-.908.278h-.11v.11h.11v-.11h-.11v.11h.027c.358 0 .633-.11.798-.305.193-.194.276-.472.276-.805 0-.334-.083-.584-.248-.75-.165-.167-.44-.25-.743-.25h-.44v3.083h.054v-.111h-.11v.111h.11v.111h.11V40.39h.22c.276 0 .469.055.606.194.11.111.193.306.193.584 0 .277-.083.5-.193.639a.84.84 0 01-.633.25h-.137v.332h.247c.413 0 .77-.11 1.046-.332.275-.223.468-.556.468-.945 0-.361-.138-.639-.385-.833-.248-.195-.606-.278-1.074-.278H40v.361h.11c.22.028.33.056.33.056l.028.055v3.111l-.083.028c-.055 0-.137.028-.275.028H40V44h1.679v-.361h-.11a3.086 3.086 0 01-.33-.056l-.028-.055v-.305h-.138v.11-.083zm2.927.664c.35-.057.325-.028.325-.428v-1.943c0-.4.025-.372-.325-.429V41h1.7v.686h-.1c-.05-.315-.125-.572-.375-.572H44.7v1.229h.325c.25 0 .35-.114.35-.372h.1v.915h-.1c0-.257-.1-.4-.35-.4H44.7v.971c0 .372.15.4.5.4.55 0 .525-.171.7-.628h.1l-.125.771H44" fill="#707070"/><path d="M44.09 43.72l.024.14c.136-.035.227-.035.295-.106l.068-.21v-3.088l-.045-.14c-.046-.07-.091-.105-.137-.105-.045 0-.113-.036-.181-.036v.14h.09v-.14h-.09v.14h1.454v.703h.091v-.14h-.09v.14l.09-.035a2.132 2.132 0 00-.114-.562c-.068-.175-.181-.28-.34-.246h-.568V42h.386c.113 0 .227-.035.295-.14a.896.896 0 00.114-.456h-.091v.14h.09v-.14h-.09v1.122h.09v-.14h-.09v.14h.09c0-.175-.022-.35-.09-.456-.068-.14-.182-.175-.318-.175h-.386v1.333c0 .14 0 .246.022.316.046.14.114.245.205.28.09.036.181.036.295.036.25 0 .41-.07.523-.21.09-.176.136-.387.204-.667l-.09-.07v.14h.09v-.14l-.09-.036-.091.842H44.09v.14h.09v-.14H44V44h1.864L46 42.737h-.273l-.022.07c-.091.28-.114.491-.182.561-.046.07-.137.14-.387.14-.159 0-.25 0-.295-.07l-.046-.07c0-.035-.022-.105-.022-.21v-1.053h.204c.091 0 .137.035.182.07.023.036.046.14.046.281v.14h.272v-1.438h-.272v.14c0 .14-.023.21-.046.246-.023.035-.068.07-.182.07h-.159v-1.228h.387c.09 0 .136.035.181.14.046.07.069.246.091.421v.14h.273V40h-1.727v.421h.09c.069 0 .137.035.16.035l.045.035v3.053c-.023 0-.09.035-.204.035h-.091v.14h.068zm5.423.252c-.616-.785-1.257-1.626-1.898-2.467v1.878c0 .084.026.168.026.224.026.169.154.225.41.225v.112h-.948v-.112c.179-.028.307-.084.333-.224 0-.057.026-.14.026-.225v-1.99c-.103-.14-.231-.28-.462-.28V41h.718c.59.757 1.18 1.542 1.77 2.327V41.59c0-.084-.026-.168-.026-.224-.026-.14-.154-.225-.41-.225v-.112H50v.112c-.18.028-.308.084-.333.224 0 .057-.026.14-.026.225V44" fill="#707070"/><path d="M49.448 43.86l.072-.106c-.576-.982-1.176-2.035-1.776-3.087l-.168-.316v2.737c0 .14.024.245.024.316 0 .14.072.245.168.315.096.07.192.07.312.106v-.14h-.096v.14h.096v-.14h-.888v.14h.096v-.14h-.096v.14a.377.377 0 00.264-.106.44.44 0 00.144-.316c0-.07.024-.175.024-.315v-2.562l-.024-.035c-.096-.21-.24-.42-.504-.42v.14h.096v-.14h-.096v.14h.672v-.14l-.072.104c.552.948 1.104 1.93 1.656 2.913l.024.07h.144v-2.316c0-.14-.024-.245-.024-.316a.384.384 0 00-.168-.316c-.096-.07-.192-.07-.312-.105v.14h.096v-.14h-.096v.14h.888v-.14h-.096v.14h.096v-.14a.324.324 0 00-.24.106.44.44 0 00-.144.315c0 .07-.024.176-.024.316v2.877h-.024v.14h.096v-.07l-.024-.035-.096.106h-.096V44h.312v-3.158c0-.105.024-.175.024-.28h-.096l.096.035.048-.106c.024-.035.096-.07.168-.07H50V40h-1.08v.421h.096c.12 0 .192.035.24.07l.048.105c0 .106.024.176.024.281v2.176h.096l.072-.106c-.552-.947-1.104-1.93-1.656-2.912L47.816 40H47v.421h.096c.168 0 .24.105.336.316l.072-.105h-.096v2.49c0 .106 0 .176-.024.246l-.048.106c-.024.035-.096.07-.168.07h-.096v.42h1.08v-.419h-.096a.385.385 0 01-.24-.07l-.048-.106c0-.105-.024-.175-.024-.28v-2.351h-.096l-.072.105c.6 1.018 1.2 2.07 1.776 3.088l.096-.07zm4.065.112c-.616-.785-1.257-1.626-1.898-2.467v1.878c0 .084.026.168.026.224.026.169.154.225.41.225v.112h-.948v-.112c.18-.028.307-.084.333-.224 0-.057.026-.14.026-.225v-1.99c-.103-.14-.231-.28-.462-.28V41h.718c.59.757 1.18 1.542 1.77 2.327V41.59c0-.084-.026-.168-.026-.224-.026-.14-.154-.225-.41-.225v-.112H54v.112c-.18.028-.308.084-.333.224 0 .057-.026.14-.026.225V44" fill="#707070"/><path d="M53.448 43.86l.072-.103c-.576-.974-1.176-2.018-1.776-3.061l-.168-.313v2.713c0 .139.024.243.024.313a.38.38 0 00.168.313c.096.07.192.07.312.104v-.139h-.096v.14h.096v-.14h-.888v.14h.096v-.14h-.096v.14a.379.379 0 00.264-.105.434.434 0 00.144-.313c0-.07.024-.174.024-.313v-2.54l-.024-.034c-.096-.209-.24-.418-.504-.418v.14h.096v-.14h-.096v.14h.672v-.14l-.072.105a212.02 212.02 0 011.656 2.887l.024.07h.144V40.87c0-.14-.024-.244-.024-.313a.38.38 0 00-.168-.314c-.096-.07-.192-.07-.312-.104v.14h.096v-.14h-.096v.14h.888v-.14h-.096v.14h.096v-.14c-.096 0-.168.035-.264.104a.434.434 0 00-.144.313c0 .07-.024.174-.024.314v2.852h-.024v.139h.096v-.07l-.024-.034-.072.104h-.096V44h.312v-3.13c0-.105.024-.174.024-.279l.048-.104c.024-.035.096-.07.168-.07H54v-.382h-1.08v.418h.096c.12 0 .192.034.24.069l.048.104.096-.035h-.096c0 .105.024.174.024.279v2.156h.096l.072-.104c-.552-.94-1.104-1.913-1.656-2.887L51.816 40H51v.418h.096c.168 0 .24.104.336.312l.072-.104h-.072v2.47c0 .104 0 .174-.024.243l-.048.105c-.024.034-.096.069-.168.069h-.096v.418h1.08v-.419h-.096a.388.388 0 01-.24-.07l-.048-.104-.096.035h.096c0-.104-.024-.174-.024-.278v-2.33h-.096l-.072.104c.6 1.008 1.2 2.052 1.776 3.06l.072-.07zm3.208-2.2c-.031-.302-.218-.522-.593-.522-.282 0-.532.137-.532.44s.344.468.813.77c.5.33.656.551.656.881 0 .496-.563.771-1.156.771-.313 0-.563-.055-.813-.138L55 43.807v-.605h.125c.063.468.406.66.75.66s.625-.22.625-.523c0-.275-.156-.495-.875-.908-.25-.165-.563-.303-.563-.77 0-.386.47-.661 1.032-.661.218 0 .468.028.656.083l.031.055v.55" fill="#707070"/><path d="M56.583 40.933h.111a1.215 1.215 0 00-.194-.533.62.62 0 00-.472-.233.471.471 0 00-.39.166c-.11.1-.194.3-.194.5 0 .234.112.4.223.567.139.167.305.3.527.5.223.2.362.367.445.5.083.133.111.267.111.467a.674.674 0 01-.278.566 1.03 1.03 0 01-.639.234c-.25 0-.472-.067-.694-.167l-.028.133.111-.066-.028-.034v-.7h-.083v.134h.111v-.134h-.11c.027.3.138.534.277.7.139.167.333.2.528.2.36 0 .666-.333.666-.766 0-.2-.055-.367-.166-.567-.14-.2-.334-.4-.667-.633-.111-.1-.222-.167-.306-.3a.85.85 0 01-.138-.5c0-.167.083-.334.222-.467s.36-.2.555-.2c.167 0 .417.033.556.1l.028-.133-.084.066v.6h.111V40.8h-.222v.133h.111v.134h.223v-.834l-.056-.1-.028-.033h-.028a2.128 2.128 0 00-.638-.1.98.98 0 00-.695.267.882.882 0 00-.305.7c0 .3.083.533.194.7.111.166.25.266.361.366.306.234.5.434.611.6.111.167.111.267.14.4 0 .3-.195.5-.418.5-.138 0-.277-.033-.36-.133-.112-.1-.167-.267-.195-.5v-.133H55v.9l.028.1.028.033.055.033c.222.1.472.167.75.167s.556-.1.778-.267c.222-.166.361-.466.361-.8a1.6 1.6 0 00-.139-.633c-.111-.2-.25-.367-.5-.567-.222-.2-.389-.333-.5-.466-.111-.134-.167-.234-.167-.367 0-.167.028-.233.112-.3.055-.067.138-.1.25-.1.138 0 .222.067.305.133a.79.79 0 01.111.367h.222-.11v-.067zm1.256 2.954c.451-.057.42-.029.42-.425v-.65l-.743-1.303c-.161-.283-.29-.396-.516-.396V41h1.258v.113c-.355 0-.323.17-.226.396l.58 1.076.678-1.076c.162-.254 0-.396-.29-.396V41h1v.113c-.129 0-.258.057-.387.255l-.806 1.302a.906.906 0 00-.065.311v.481c0 .396-.032.368.42.425V44h-1.323" fill="#707070"/><path d="M57.912 43.72l.03.14c.176-.035.293-.035.382-.106l.088-.21V42.35l-.706-1.65c-.088-.175-.147-.315-.235-.42-.089-.106-.206-.14-.353-.14v.14h.117v-.14h-.117v.14h1.147v-.14h-.118v.14h.118v-.14c-.118 0-.206 0-.265.07a.323.323 0 00-.118.245c0 .14.03.246.089.351l.647 1.579.735-1.579a.641.641 0 00.088-.316.388.388 0 00-.147-.316c-.088-.07-.176-.07-.294-.07v.14h.118v-.14h-.147v.14h.911v-.14h-.117v.14h.117v-.14c-.176 0-.353.106-.47.386l-.736 1.614c-.058.14-.058.316-.058.456v.948l.058.14c.06.07.118.105.177.105s.147.035.235.035l.03-.14H59v.14h.118v-.14l-1.206.07v.14h.117v-.14h-.117v-.14h-.118V44h1.441v-.421h-.117c-.089 0-.177-.035-.206-.035l-.06-.035v-.912c0-.106 0-.246.03-.316l.736-1.614c.117-.246.176-.246.264-.246H60V40h-1.147v.421h.118c.088 0 .147.035.176.035l.03.07c0 .035 0 .07-.06.176l-.5 1.087-.44-1.087c-.03-.105-.06-.176-.06-.21 0 0 .06-.036.148-.036h.117V40H57v.421h.118c.088 0 .117.035.176.07.059.07.118.176.177.316l.676 1.579v1.123c-.03 0-.118.035-.265.035l.03.175zm3.113.14c.35-.056.325-.028.325-.42v-1.907c0-.393.025-.365-.325-.42V41h1.025v.112c-.35.056-.325.028-.325.42v1.991c0 .309.15.337.475.337.55 0 .525-.168.7-.617h.1l-.125.757H61" fill="#707070"/><path d="M61.133 43.72l.023.14c.133-.035.222-.035.288-.106l.067-.21v-3.088l-.044-.14c-.045-.07-.09-.105-.134-.105-.044 0-.11-.036-.177-.036v.14h.088v-.14h-.088v.14h.91v-.14h-.088v.14h.089v-.14c-.134.036-.223.036-.29.106l-.066.21v2.842c0 .106 0 .21.045.281.044.14.11.21.2.246a.76.76 0 00.288.035c.245 0 .4-.07.512-.21.088-.176.133-.387.2-.668l-.09-.07v.14h.09v-.14l-.09-.035-.088.842-1.645-.035v.14h.09v-.14h-.179V44h1.823L63 42.737h-.267l-.022.07c-.089.28-.111.491-.178.561-.044.07-.133.14-.377.14-.156 0-.245 0-.29-.034l-.044-.07c0-.036-.022-.07-.022-.176v-2.842c.022 0 .089-.035.2-.035h.089V40H61v.421h.089c.067 0 .133.035.155.035l.045.035v3.053c-.022 0-.089.035-.2.035H61v.14h.133zm3.056-2.607c-.227 0-.396.057-.255.481.17.51.425 1.246.65 1.897.284-.651.539-1.33.793-1.982.114-.283 0-.396-.311-.396V41H66v.113c-.113 0-.255.029-.368.255-.368.877-.736 1.755-1.075 2.632h-.227c-.254-.736-.566-1.557-.82-2.292-.17-.453-.284-.595-.51-.595V41h1.16" fill="#707070"/><path d="M64.221 40.28v-.14c-.08 0-.186 0-.265.07-.08.07-.133.211-.133.351 0 .106.027.21.053.351.16.632.398 1.544.61 2.351l.107.351.106-.35c.266-.808.505-1.65.743-2.457.027-.105.054-.175.054-.28a.406.406 0 00-.133-.316.442.442 0 00-.292-.106v.14h.106v-.14h-.106v.14h.876v-.14h-.106v.14h.106v-.14c-.08 0-.16 0-.239.07a.563.563 0 00-.186.316 153.6 153.6 0 00-1.009 3.263l.106.07v-.14h-.212v.14l.106-.035c-.239-.912-.53-1.93-.77-2.842-.08-.28-.159-.49-.239-.631a.396.396 0 00-.345-.21v.14h.107v-.14h-.133v.14l1.088.035v-.14h-.106v.28h.106v-.28.14h.106V40H63v.421h.106c.08 0 .106.035.16.105.053.07.132.246.185.527.24.912.531 1.93.77 2.842l.027.105h.372l.026-.105c.345-1.088.69-2.176 1.009-3.263.026-.106.08-.176.106-.176l.133-.035H66V40h-1.088v.421h.106c.08 0 .159.035.186.035l.026.105c0 .035 0 .106-.026.176-.24.807-.505 1.649-.744 2.456l.106.07.107-.035c-.213-.807-.452-1.72-.611-2.35a1.755 1.755 0 01-.053-.246c0-.07 0-.106.026-.106.027-.035.08-.035.16-.035v-.28.07h.026zm2.597 2.748l-.212.555c-.06.167.03.306.243.306V44H66v-.111a.386.386 0 00.333-.222c.213-.361.728-1.75 1.121-2.667h.243c.303.833.788 2.139.94 2.528.09.25.181.36.363.36V44h-1.06v-.111c.302 0 .333-.139.242-.333L67.97 43l-1.152.028zm1.121-.167l-.484-1.361-.546 1.361h1.03z" fill="#707070"/><path d="M66.7 42.69l-.195.69-.028.172c0 .103.028.207.084.276.056.069.14.103.252.103v-.138h-.112v.138h.112v-.138h-.785v.138h.112v-.138h-.112v.138c.168 0 .337-.138.42-.345.197-.483.674-2.172 1.038-3.345l-.112-.034v.138h.224v-.138l-.112.034c.28 1.035.729 2.656.87 3.138.055.138.083.276.167.38a.34.34 0 00.309.172v-.138h-.112v.138h.112v-.138h-.981v.138h.112v-.138h-.112v.138a.414.414 0 00.28-.103c.084-.07.112-.173.112-.276 0-.07-.028-.173-.028-.242l-.196-.69-.028-.103h-1.178v.276h1.01l.168.586.028.138v.035s-.056.034-.14.034h-.113V44H69v-.414h-.112c-.056 0-.084 0-.112-.069-.028-.069-.084-.172-.112-.31-.14-.448-.59-2.07-.87-3.104L67.766 40h-.392l-.028.103c-.365 1.138-.841 2.862-1.038 3.31-.056.139-.14.173-.196.173H66V44h1.01v-.414h-.113l-.084-.034-.028-.07v-.068l.196-.69-.28-.034zm1.15-.173l.113-.034-.477-1.793h-.196l-.59 2h1.29l-.055-.173h-.085v-.138h-.813l.449-1.517-.112-.034-.112.034.448 1.69.14-.035zm4.5 1.455a265.76 265.76 0 01-2.53-2.467v1.878c0 .084.035.168.035.224.034.169.205.225.547.225v.112h-1.265v-.112c.24-.028.41-.084.444-.224 0-.057.034-.14.034-.225v-1.99c-.136-.14-.307-.28-.615-.28V41h.957c.787.757 1.573 1.542 2.36 2.327V41.59c0-.084-.035-.168-.035-.224-.034-.14-.205-.225-.547-.225v-.112H73v.112c-.24.028-.41.084-.444.224 0 .057-.035.14-.035.225V44" fill="#707070"/><path d="M72.264 43.86l.096-.106c-.768-.982-1.568-2.035-2.368-3.087l-.224-.316v2.737c0 .14.032.245.032.316 0 .14.096.245.224.315s.256.07.416.106v-.14h-.128v.14h.128v-.14h-1.184v.14h.128v-.14h-.128v.14a.68.68 0 00.352-.106c.096-.07.192-.175.192-.316 0-.07.032-.175.032-.315v-2.562l-.032-.035c-.128-.21-.32-.42-.672-.42v.14h.128v-.14h-.128v.14h.896v-.14l-.096.104c.736.948 1.472 1.93 2.208 2.913l.032.07h.192v-2.316c0-.14-.032-.245-.032-.316 0-.14-.096-.245-.224-.316-.128-.07-.256-.07-.416-.105v.14h.128v-.14h-.128v.14h1.184v-.14h-.128v.14h.128v-.14a.681.681 0 00-.352.106c-.096.07-.192.175-.192.315 0 .07-.032.176-.032.316v2.877h-.032v.14h.128v-.07l-.032-.035-.096.106h-.128V44h.416v-3.158c0-.105.032-.175.032-.28l.064-.106c.032-.035.128-.07.224-.07H73V40h-1.44v.421h.128a.64.64 0 01.32.07l.064.105c0 .106.032.176.032.281v2.176h.128l.096-.106c-.736-.947-1.472-1.93-2.208-2.912L70.088 40H69v.421h.128c.224 0 .32.105.448.316l.096-.105h-.128v2.49c0 .106 0 .176-.032.282l-.064.105c-.032.035-.128.07-.224.07h-.128V44h1.44v-.421h-.128a.638.638 0 01-.32-.07l-.064-.105c0-.106-.032-.176-.032-.281v-2.351h-.128l-.096.105c.8 1.018 1.6 2.07 2.368 3.088l.128-.105zm2.419-.398c0 .396-.025.368.317.425V44h-1v-.113c.341-.057.317-.029.317-.425v-1.924c0-.396.025-.368-.317-.425V41h1v.113c-.341.057-.317.029-.317.425" fill="#707070"/><path d="M74.306 43.193h-.163v.351l.082.14c.081.07.163.105.244.105.082 0 .205.036.327.036v-.14h-.123v.14h.164v-.14h-1.674v.14h.163v-.14h-.163v.14c.245-.036.408-.036.53-.106l.123-.21v-3.088l-.081-.14a.377.377 0 00-.245-.106c-.082 0-.204-.035-.327-.035v.14h.163v-.14h-.163v.14h1.674v-.14h-.163v.14h.163v-.14c-.245.035-.408.035-.53.106l-.123.21v2.737h.285v-2.702c.041 0 .164-.035.368-.035H75V40h-2v.421h.163c.123 0 .245.035.286.035l.082.035v3.053c-.041 0-.164.035-.368.035H73V44h2v-.421h-.163c-.123 0-.204-.035-.286-.035l-.082-.035v-.316h-.163zm1.512-.165l-.212.555c-.06.167.03.306.243.306V44H75v-.111c.121 0 .242-.083.333-.222.182-.361.728-1.75 1.121-2.667h.243c.303.833.788 2.139.94 2.528.09.25.181.36.363.36V44h-1.06v-.111c.302 0 .302-.139.242-.333L76.97 43l-1.152.028zm1.091-.167l-.485-1.361-.545 1.361h1.03z" fill="#707070"/><path d="M75.7 42.7l-.195.685-.028.17a.44.44 0 00.084.274c.056.068.14.103.252.103v-.137h-.112v.137h.112v-.137h-.785v.137h.112v-.137h-.112v.137c.168 0 .337-.137.42-.342.197-.479.674-2.154 1.038-3.317l-.112-.034v.137h.224v-.137l-.112.035c.28 1.025.729 2.632.87 3.11.055.137.083.274.167.377.056.102.169.17.309.17v-.136h-.112v.137h.112v-.137h-.981v.137h.112v-.137h-.112v.137a.416.416 0 00.28-.103c.084-.068.112-.17.112-.273 0-.069-.028-.171-.028-.24l-.196-.684-.028-.102h-1.178v.273h1.01l.168.582.028.136v.035s-.056.034-.14.034h-.113V44H78v-.41h-.112c-.056 0-.084 0-.112-.069-.028-.068-.084-.17-.112-.307-.14-.445-.59-2.052-.87-3.111L76.766 40h-.392l-.028.103c-.365 1.128-.87 2.837-1.038 3.282-.056.136-.14.17-.196.17H75v.412h1.01v-.411h-.113l-.084-.035-.028-.068v-.068l.196-.684h-.28zm1.122-.17l.113-.034-.477-1.778h-.168l-.59 1.983h1.29l-.055-.171h-.113v-.137h-.813l.449-1.504-.112-.034-.112.034.448 1.675.14-.034z" fill="#707070"/><path d="M29 0h20v9.376c-.145 7.65-9.274 11.669-10.412 11.624-1.186-.046-9.612-3.973-9.588-11.67V0z" fill="#fff"/><path d="M30 0h18v9.368c-.114 7.651-8.348 11.656-9.377 11.632-1.075-.048-8.646-3.98-8.623-11.656V0z" fill="#fff"/><path d="M30 6V0h18v6" fill="#8A8A8A"/><path d="M30.068 5.927h.068V.147h17.705v5.706H30.068v.074h.068-.068V6H48V0H30v6h.068v-.073z" fill="#8A8A8A"/><path d="M31 14.099c.696 1.58 1.577 2.84 2.783 3.901l5.31-5.728 5.101 5.58c1.044-1.037 2.087-2.272 2.806-3.729L39.07 6l-8.047 8.099" fill="#707070"/><path d="M30.218 14.04l-.073.025c.726 1.554 1.645 2.818 2.926 3.886l.049.049 5.537-5.611 5.32 5.49.049-.049c1.112-1.02 2.176-2.235 2.95-3.692l.024-.049L38.633 6l-8.464 8.04.049.05.024-.074-.049-.024-.193-.097.097.194.12-.049-.023.073.048.025.048.024 8.391-7.968 8.222 7.944.049-.049-.073-.049c-.75 1.434-1.814 2.648-2.926 3.669l.048.072.049-.048-5.393-5.563-5.586 5.684.049.049.048-.073c-1.258-1.045-2.152-2.283-2.878-3.814l-.072.024z" fill="#707070"/><path d="M43.296 1.354h.56c.429-.11.562-.354.99-.354.32 0 .454.218.695.218.187 0 .481-.218.802-.218.32 0 .48.19.721.3.188.08.455.08.722.08v.464c0 .163.214.108.214.38 0 .3-.294.218-.294.354V3.64c.027.137.267.164.267.354 0 .3-.294.19-.267.436.027.163 0 .544 0 .544-.561 0-4.197.027-4.384.027 0-.381.08-.381.08-.571 0-.164-.32-.245-.32-.517 0-.19.214-.164.214-.327V2.524c0-.136-.321-.218-.294-.408.026-.245.294-.218.294-.354 0-.082.026-.327 0-.408z" fill="#fff"/><path d="M43.335 1.392v.079h.54c.206-.053.36-.131.49-.21a.79.79 0 01.437-.13c.129 0 .232.052.31.078.102.052.205.105.334.105.129 0 .232-.053.386-.105.129-.052.258-.104.412-.104.283 0 .412.156.644.287.18.079.412.079.644.079h.077v-.079h-.078v.471c0 .052.026.104.052.157l.103.078c.026.026.026.052.051.13 0 .105-.025.105-.077.158l-.103.052c-.026.026-.077.078-.077.13v1.02c0 .053.052.105.077.131.052.052.103.078.129.105l.051.078c0 .052 0 .078-.025.105a.356.356 0 01-.103.078.25.25 0 00-.129.21v.548h.077v-.078c-.489 0-3.398.026-4.094.026h-.128v.078h.077c0-.183.026-.261.026-.313.026-.053.025-.105.051-.21V4.32c0-.078-.026-.13-.077-.157-.051-.052-.129-.104-.154-.156-.052-.053-.078-.105-.078-.157 0-.053.026-.053.078-.105a.342.342 0 00.154-.209v-1.02c-.026-.13-.129-.183-.18-.235-.078-.052-.103-.105-.103-.13 0-.08.026-.08.103-.131l.103-.079c.026-.026.077-.078.077-.157v-.366l-.077-.026h-.078v.392a.563.563 0 01-.128.079c-.052.052-.129.13-.129.235v.026c0 .157.103.235.18.288l.103.078.026.026v1.02c0 .026-.026.052-.077.105a.262.262 0 00-.129.235c0 .157.103.261.18.34l.103.104.026.053c0 .078-.026.104-.026.183-.026.078-.026.183-.051.366V5h.205c.67 0 3.604-.026 4.094-.026h.077v-.602l.025-.052c.026-.026.078-.052.13-.078.05-.052.128-.13.128-.262a.294.294 0 00-.18-.261l-.078-.052-.025-.026V2.62h-.026l.026.026V2.62h-.026l.026.026s.077-.026.154-.078c.078-.053.155-.131.129-.288 0-.157-.077-.261-.154-.288l-.052-.052v-.575h-.18c-.232 0-.438 0-.592-.078-.18-.079-.36-.288-.721-.288-.18 0-.335.052-.464.105-.129.052-.257.104-.309.104a.57.57 0 01-.257-.078.843.843 0 00-.386-.105c-.232 0-.387.079-.515.13-.155.08-.284.158-.464.184l.026.078V1.34h-.644v.104l.052-.052z" fill="#707070"/><path d="M44 1v3h3V1h-.152v2.919h.065v-.081h-2.869v.08h.065V1H44zm1.5 3.188v.187l.136.063.046.062-.046.062-.136.063-.136-.063-.046-.062.046-.063.136-.062V4c-.136 0-.227.063-.318.125-.091.063-.182.25-.182.375 0 .188.09.312.182.375.09.062.182.125.318.125s.227-.063.318-.125c.091-.063.182-.25.182-.375a.444.444 0 00-.182-.375C45.728 4.062 45.636 4 45.5 4v.188z" fill="#707070"/><path d="M35.232 4.593c.047.183.186.32.442.32.442 0 .86-.32 1.116-.503.21-.138.418-.298.418-.595l-.046.114s.349-.343 1.209-.069c.232.069 1.255.641 1.464.733.186.068.86.549 1.883.366 0 0 1.58-.206 1.232-1.808-.256-1.144-.163-1.236-.07-1.602-.047-.023-.976-.229-.93 1.053-.395.046-.906.343-.58 1.121.139-.206.325-.412.557-.412.163 0 .325.229.325.39.024.388-.395.571-.883.503-.256-.046-.488-.32-.837-.572.07-.023.117-.23.117-.32 0-.207-.186-.298-.303-.367.024-.069.07-.16.07-.229 0-.16-.232-.16-.325-.206.046-.046.046-.023.046-.091 0-.23.047-.366-.441-.344.046-.228 0-.389-.163-.434l-.349-.046c-.232-.046 0-.114-.21-.298-.185-.183-.487 0-.487 0A.29.29 0 0038.185 1c-.117 0-.233 0-.303.046l-.14.114c-.185 0-.231-.16-.44-.16-.21 0-.303.16-.396.275-.14-.07-.163-.183-.349-.183-.116 0-.14.114-.186.183-.116.137-.116.274-.325.343l-.07-.137v-.023c-.279.137-.953 1.601-.953 1.922 0 .297.256.16.256.457 0 .183-.279.32-.279.458 0 .206.232.298.442.298" fill="#fff"/><path d="M35.406 4.607l-.068.021c.045.219.225.372.496.35.473 0 .879-.328 1.127-.503.202-.13.428-.306.428-.633l-.158-.022-.045.109.135.066c.023-.022.18-.153.518-.153.158 0 .339.021.564.087.09.022.406.175.698.328.293.153.609.306.721.35.068.021.226.13.474.218.248.088.563.175.946.175.136 0 .293-.022.474-.044l-.023-.065v.065s.316-.043.654-.24c.315-.197.653-.547.653-1.137a3.18 3.18 0 00-.045-.437c-.113-.546-.158-.83-.158-1.027 0-.197.045-.284.09-.46l.023-.065-.068-.022-.067-.022h-.136a.777.777 0 00-.518.197c-.18.153-.293.415-.293.853v.043h.068v-.065a1.13 1.13 0 00-.496.175.66.66 0 00-.248.524c0 .131.045.284.113.46l.045.13.09-.109c.135-.197.293-.371.496-.35.045 0 .112.044.157.088a.47.47 0 01.09.197v.021c0 .132-.044.219-.157.285a.737.737 0 01-.406.109c-.067 0-.135 0-.225-.022-.203-.022-.45-.284-.789-.546l-.045.065.023.066.067-.088a.817.817 0 00.09-.284.409.409 0 00-.112-.284.534.534 0 00-.203-.131l-.045.065.067.022c.023-.065.068-.153.068-.24 0-.066-.023-.11-.068-.131a.459.459 0 00-.18-.088c-.045-.022-.113-.022-.113-.044l-.045.066.068.044.045-.044.023-.087v-.088c0-.087 0-.175-.09-.24-.068-.066-.18-.088-.361-.088h-.068v.066l.068.022c0-.044.023-.11.023-.153 0-.153-.068-.306-.226-.372l-.36-.044v.066l.022-.066h-.045l-.022.022h.022v-.022l-.022.022h.022v-.043a.33.33 0 00-.113-.24.382.382 0 00-.247-.088c-.158 0-.293.087-.316.087l.045.066h.068a.45.45 0 00-.09-.24.379.379 0 00-.27-.11c-.114 0-.249 0-.339.044l-.158.109.045.066v-.066c-.067 0-.09-.022-.157-.066a.436.436 0 00-.27-.087.396.396 0 00-.294.11c-.067.065-.112.13-.157.174l.067.044.023-.066a.613.613 0 01-.136-.109.367.367 0 00-.247-.087c-.09 0-.136.043-.18.087-.046.044-.046.087-.068.11a1.486 1.486 0 00-.136.196c-.045.044-.067.087-.135.11l.023.065.067-.044-.067-.11v-.02l-.023-.087-.09.043c-.113.044-.18.175-.293.328a6.36 6.36 0 00-.45.874c-.136.307-.226.569-.226.7 0 .087.023.131.045.197.045.065.113.087.135.109.023.022.045.044.045.153 0 .044-.045.11-.112.175-.068.065-.158.153-.158.262 0 .131.09.219.18.284a.53.53 0 00.316.088V4.52l-.023-.065-.135.043-.068.022.023.066.113.022.022.065.135-.044-.022-.153a.465.465 0 01-.248-.065c-.068-.044-.09-.088-.09-.153 0-.022.045-.088.112-.175.068-.066.158-.153.158-.284 0-.175-.09-.262-.157-.284l-.068-.044c-.023-.022-.023-.044-.023-.11 0-.043.045-.196.09-.37.09-.263.248-.591.406-.875a2.43 2.43 0 01.226-.35c.067-.087.135-.153.157-.175l-.022-.065-.068.021v.022l.068.131.022.044.068-.022a.468.468 0 00.225-.175c.045-.065.068-.13.113-.174l.068-.11.067-.043c.09 0 .113.021.135.043.045.022.09.088.18.131l.046.022.045-.043a.96.96 0 01.135-.153c.045-.044.09-.066.18-.066s.113.022.18.066a.418.418 0 00.248.087h.023l.158-.131a.757.757 0 01.27-.044c.158 0 .225.088.225.197v.131l.113-.066h.023c.045-.021.135-.065.203-.065.067 0 .112.022.157.044.068.065.068.087.068.13v.044l.045.11c.045.022.068.043.135.043l.36.044v-.065l-.022.065c.09.044.135.088.135.219 0 .043 0 .065-.022.109l-.023.087h.158c.158 0 .248.022.27.044.023.022.023.044.023.131v.13l-.023.044-.045.066.068.043c.068.044.158.044.203.066l.067.022.023.044c0 .043-.045.13-.068.196l-.022.066.045.022a.492.492 0 01.18.11c.045.043.068.087.068.174 0 .022-.023.087-.023.153l-.022.066-.023.021.023.022v-.022l.022.022v-.022l-.113.044.113.066c.338.24.564.502.856.568.09.022.158.022.248.022a.88.88 0 00.496-.131c.135-.088.226-.219.203-.394V3.69c0-.11-.045-.197-.135-.285-.068-.087-.158-.153-.27-.153-.294 0-.474.24-.61.416l.069.043.067-.021a1.06 1.06 0 01-.09-.416c0-.197.068-.328.203-.415a.917.917 0 01.405-.153h.068v-.109c0-.416.113-.634.248-.744a.676.676 0 01.406-.153h.135v-.021l-.023.021v-.021l-.022.021.022-.065-.067-.022c-.045.175-.09.284-.09.503 0 .218.045.502.157 1.049.023.153.045.284.045.415 0 .547-.293.853-.586 1.028a1.522 1.522 0 01-.405.174c-.045.022-.113.022-.135.044h-.046c-.157.022-.293.044-.428.044a2.4 2.4 0 01-.879-.175c-.225-.087-.383-.175-.473-.219-.09-.043-.405-.196-.698-.35a7.126 7.126 0 00-.744-.349c-.248-.066-.45-.11-.608-.11-.429 0-.631.176-.631.197l.045.044.067.022.045-.11-.067-.021h-.113c0 .262-.158.371-.36.503-.248.174-.654.48-1.037.459-.203 0-.293-.088-.338-.24l-.09.087z" fill="#707070"/><path d="M37.084 3.488c.106-.046.127-.162.17-.209.02-.046.02-.07.126-.07a.34.34 0 01.212.07.442.442 0 00.274.093c.085 0 .148-.046.212-.07.063-.023.105-.07.19-.07.042 0 .126.047.169.117.063.07.105.163.105.279v.046l-.02.117.105-.047.042-.023c.021 0 .063-.023.106-.023.063 0 .148.023.19.07a.43.43 0 01.105.302v.163l.106-.047a.603.603 0 01.17-.046c.041 0 .084.023.105.023a.585.585 0 01.063.163c.021.07.021.162.042.232a.24.24 0 00.106.14c.063.046.127.046.148.07.021.023.042.046.042.139v.07L40 5v-.093c0-.093-.021-.163-.063-.21-.064-.07-.127-.092-.17-.116-.042-.023-.063-.023-.063-.046-.02-.07-.02-.186-.063-.302-.021-.047-.042-.117-.085-.163-.042-.047-.105-.07-.19-.07-.063 0-.127.023-.211.047l.021.07h.063V4.07c0-.21-.063-.35-.147-.442-.085-.093-.19-.093-.296-.093-.106 0-.19.023-.212.023l.022.07h.063v-.07a.636.636 0 00-.127-.372c-.084-.093-.169-.163-.274-.163-.106 0-.19.047-.254.07-.063.047-.106.07-.148.07-.084 0-.127-.023-.211-.07A.511.511 0 0037.359 3c-.148 0-.232.07-.253.163-.043.07-.043.116-.106.14l.084.185z" fill="#707070"/><path d="M30.215 1.356h.45c.341-.11.448-.356.812-.356.256 0 .363.22.556.22.15 0 .385-.22.641-.22.257 0 .385.192.578.301.15.083.363.083.577.083v.465c0 .165.171.11.171.384 0 .301-.235.219-.235.356v1.069c0 .137.214.164.214.356 0 .301-.236.191-.214.438.021.164 0 .548 0 .548h-3.443v-.548c0-.164-.257-.247-.257-.52 0-.165.171-.165.171-.33V2.535c0-.137-.256-.219-.235-.41 0-.247.235-.22.235-.357-.02-.082-.02-.356-.02-.41z" fill="#fff"/><path d="M30.335 1.444v.079h.54a1.7 1.7 0 00.49-.21.79.79 0 01.437-.13c.129 0 .232.052.31.078a.707.707 0 00.334.105c.129 0 .232-.052.386-.105.129-.052.258-.104.412-.104.283 0 .412.157.644.287.206.079.412.079.67.079h.05v-.079h-.076v.446c0 .052.025.104.051.157l.103.078c.026.026.026.052.051.13 0 .105-.025.105-.077.158l-.103.052c-.026.026-.077.078-.077.13h.103-.077v1.02c0 .053.051.105.077.131.052.052.103.079.129.105l.051.078c0 .052 0 .079-.026.105a.346.346 0 01-.102.078.25.25 0 00-.13.21v.548h.078v-.078h-4.145v.078h.077v-.497c0-.079-.026-.131-.077-.157-.052-.053-.129-.105-.155-.157-.051-.052-.077-.105-.077-.157 0-.052 0-.052.077-.105a.341.341 0 00.155-.209v-1.02c-.026-.13-.129-.182-.18-.235-.078-.052-.104-.104-.104-.13 0-.079.026-.079.104-.131l.102-.079c.026-.026.078-.078.078-.156V1.47l-.103-.027h-.078v.393a.563.563 0 01-.128.078c-.052.052-.129.13-.129.235v.026c0 .157.103.236.18.288l.103.078.026.027v1.02c0 .025-.026.052-.077.104a.262.262 0 00-.129.235c0 .157.103.262.18.34l.103.105.026.052V5h4.3v-.627l.025-.053a.56.56 0 01.13-.078c.05-.052.128-.13.128-.262a.294.294 0 00-.18-.261l-.078-.052-.025-.026V2.62h-.026l.026.026V2.62h-.026l.026.026s.077-.026.154-.078c.078-.053.155-.131.129-.288 0-.157-.077-.261-.154-.288l-.052-.052v-.575h-.206c-.232 0-.438 0-.592-.078-.18-.079-.36-.288-.721-.288-.18 0-.335.052-.464.105-.128.052-.257.104-.308.104a.569.569 0 01-.258-.078.843.843 0 00-.386-.105c-.232 0-.386.079-.515.13-.155.08-.283.158-.464.184l.026.078V1.34h-.644v.104h.078z" fill="#707070"/><path d="M31 1v3h3V1h-.151v2.919h.065v-.081h-2.849v.08h.064V1H31zm1.5 3.188v.187l.136.063.046.062-.046.062-.136.063-.136-.063-.046-.062.046-.063.136-.062V4c-.136 0-.227.063-.318.125-.091.063-.182.25-.182.375 0 .188.09.312.182.375.09.062.182.125.318.125s.227-.063.318-.125c.091-.063.182-.25.182-.375a.444.444 0 00-.182-.375C32.728 4.062 32.636 4 32.5 4v.188z" fill="#707070"/><path d="M33 13.5c0-.818.674-1.5 1.5-1.5s1.5.682 1.5 1.5c0 .84-.674 1.5-1.5 1.5s-1.5-.682-1.5-1.5z" fill="#fff"/><path d="M34.5 12.086v.064c.75 0 1.354.6 1.354 1.35 0 .75-.604 1.35-1.354 1.35-.75 0-1.354-.6-1.354-1.35 0-.75.604-1.35 1.354-1.35V12c-.833 0-1.5.664-1.5 1.5s.667 1.479 1.5 1.5c.833 0 1.5-.664 1.5-1.5s-.667-1.479-1.5-1.5v.086z" fill="#707070"/><path d="M37 9.5c0-.84.674-1.5 1.5-1.5s1.5.682 1.5 1.5c0 .84-.674 1.5-1.5 1.5S37 10.318 37 9.5z" fill="#fff"/><path d="M38.5 8.064v.065c.75 0 1.354.6 1.354 1.35 0 .75-.604 1.35-1.354 1.35-.75 0-1.354-.6-1.354-1.35 0-.75.604-1.35 1.354-1.35V8c-.833 0-1.5.664-1.5 1.5s.667 1.5 1.5 1.5 1.5-.664 1.5-1.5S39.333 8 38.5 8v.064z" fill="#707070"/><path d="M42 13.5c0-.818.674-1.5 1.5-1.5s1.5.682 1.5 1.5c0 .84-.674 1.5-1.5 1.5s-1.5-.682-1.5-1.5z" fill="#fff"/><path d="M43.5 12.086v.064c.75 0 1.354.6 1.354 1.35 0 .75-.604 1.35-1.354 1.35-.75 0-1.354-.6-1.354-1.35 0-.75.604-1.35 1.354-1.35V12c-.833 0-1.5.664-1.5 1.5s.667 1.479 1.5 1.5c.833 0 1.5-.664 1.5-1.5s-.667-1.479-1.5-1.5v.086zM40 3.916a8.717 8.717 0 01-.472-.59 2.405 2.405 0 00-.164-.21l-.061-.063-.062-.042c-.02 0-.082-.064-.164-.169-.246-.274-.718-.8-1.6-.842h-.082a4.11 4.11 0 00-.8.084 1.07 1.07 0 00-.39.127c-.102.042-.184.105-.205.231l.144.021c0-.02.04-.063.143-.126.267-.126.882-.21 1.149-.21h.061a1.96 1.96 0 011.19.484c.123.105.226.231.308.315.082.085.144.169.205.19l.082.084c.123.168.37.505.636.8L40 3.916z" fill="#707070"/><path d="M37.684 4v-.106c0-.053-.052-.08-.052-.106l-.106-.027h-.315l-.027.08.053-.053-.026-.027-.027.08h.08l-.027-.08-.053.053.053.053.026-.053h-.079l.053.053.052-.026.027-.027h.026l.026-.026.027-.053-.053-.08h-.026v.08l.026.08c.105-.027.237-.107.369-.187.078-.053.131-.08.184-.132.052-.054.105-.107.105-.186 0-.053-.026-.106-.079-.16-.184-.159-.263-.345-.395-.477a.808.808 0 00-.605-.266c-.158 0-.29.106-.447.212-.132.107-.263.24-.316.266l.053.08.052.053c.053-.053.158-.133.237-.266a.567.567 0 00.184-.398c0-.531-.395-.982-.5-1.354L36 1.053c.105.425.5.85.5 1.301a.497.497 0 01-.132.265c-.079.107-.184.186-.236.24l.105.132c.079-.053.21-.186.342-.292.132-.106.263-.186.316-.186.237 0 .342.08.473.213.08.106.21.292.395.478v.026l-.052.053c-.106.106-.369.213-.5.266l.026.186v.026l-.026.08h.026v-.08h-.08l.054.08.026-.08-.053-.053-.026.053h.079l-.026-.053.052.053-.026-.053-.053.027-.052.026-.027.027-.026.08.026.079.053.026c.079.027.158 0 .263.027h.132l.026-.053-.026.026h.026l.026-.053-.026.027.053-.053h-.08l.027.053.053-.053h-.08V4h.132z" fill="#707070"/><path d="M29.166.14v.165h18.525v9.067c-.071 3.688-2.185 6.507-4.417 8.433a16.842 16.842 0 01-3.23 2.161c-.475.235-.903.423-1.235.54-.333.118-.594.189-.689.165-.095 0-.332-.07-.641-.188-1.093-.423-3.159-1.574-4.916-3.453-1.758-1.856-3.23-4.416-3.23-7.681V.14H29v9.232c0 3.83 1.995 6.742 4.109 8.668a16.449 16.449 0 003.063 2.185c.452.235.856.423 1.188.564.333.117.57.188.76.211h.024c.19 0 .451-.07.784-.188 1.21-.446 3.443-1.62 5.39-3.523 1.948-1.903 3.635-4.558 3.682-7.893V0H29v.164l.166-.023z" fill="#707070"/></svg>