<svg width="79" height="45" viewBox="0 0 79 45" fill="none" xmlns="http://www.w3.org/2000/svg">
<path d="M38.5049 33.8415V30.6721C37.4272 31.1093 34.6311 31.765 34.6311 33.1311C34.6311 34.0328 35.3592 34.7978 36.3786 34.7978C37.2816 34.7978 37.8058 34.3333 38.5049 33.8415ZM38.534 30.153V27.7486C38.534 26.8743 37.9223 26.6284 37.0485 26.6284C36.1748 26.6284 34.9223 27.1749 34.9223 27.6667C34.9223 27.8033 34.9806 27.9672 34.9806 28.1858C34.9806 29.0328 34.7476 29.6066 33.7282 29.6066C33.2913 29.6066 33 29.1967 33 28.8689C33 28.377 33.3495 27.9126 33.8738 27.5301C34.9515 26.6831 36.699 26 38.1262 26C39.6116 26 40.3981 26.8197 40.3981 28.1311V34.0601C40.3981 34.4426 40.3981 35.0984 40.9515 35.0984C41.3301 35.0984 41.5631 34.6339 41.6214 34.3333H42C41.8835 35.3989 41.3883 36 40.2233 36C39.3204 36 38.5922 35.235 38.5631 34.4699C37.4272 35.235 36.6699 36 35.1553 36C34.0486 36 33 35.1803 33 34.1148C33 31.6831 36.5825 30.918 38.534 30.153Z" fill="#707070"/>
<path d="M58.9943 31.0409C58.9943 32.7302 59.6496 35.5368 61.9573 35.5368C64.208 35.5368 64.9772 33.3025 64.9772 31.5586C64.9772 29.6785 64.6923 26.4905 61.9858 26.4905C59.6781 26.4905 58.9943 29.3787 58.9943 31.0409ZM57 30.9319C57 28.2616 58.9943 26 61.9288 26C65.0342 26 67 28.2343 67 31.0136C67 33.8747 65.0627 36 61.9573 36C58.7949 36 57 33.7384 57 30.9319Z" fill="#707070"/>
<path d="M0 20.5174V19.9835H5.37608V20.5174C4.37522 20.5455 4.00347 20.5455 4.00347 21.1355C4.00347 21.1636 4.03207 21.3041 4.11785 21.5289L7.37782 32.3752L11.9532 19.4777H12.325L16.2998 32.2347C16.2998 32.2347 19.4454 22.9058 19.4454 21.5851C19.4454 20.5455 18.7877 20.6017 17.9298 20.5174V19.9835H21.247C22.7054 19.9835 24.1924 19.5058 25.0217 19V27.2331C26.0511 26.3339 26.909 25.6314 28.396 25.6314C29.4827 25.6314 30.5121 26.1091 31.0555 27.0083C31.5416 27.795 31.656 28.5537 31.656 29.4529V34.0331C31.656 35.2132 31.9705 35.2132 33 35.2975V35.719H28.4818V35.2975C29.4541 35.2413 29.7686 35.2413 29.7686 34.0331V29.4529C29.7686 28.7223 29.7686 28.4132 29.4255 27.7388C29.0537 27.0645 28.3674 26.4463 27.5095 26.5868C26.1941 26.7835 25.708 27.4017 25.0217 28.0198V34.0331C25.0217 35.2132 25.3362 35.2132 26.3371 35.2975V35.719H21.7903V35.2975C22.8484 35.2413 23.1629 35.2413 23.1629 34.0331V20.686C23.1915 20.6579 22.7912 20.686 22.305 20.686C20.4749 20.7983 20.4463 22.1471 19.8458 23.7769L15.7565 36H15.3276L11.3241 23.7207L6.66291 35.9719H6.26257L1.94454 22.5124C1.68718 21.8099 1.57279 21.2198 1.17245 20.8264C0.943676 20.6298 0.943674 20.5174 0 20.5174Z" fill="#707070"/>
<path d="M72.4221 36V35.5404C71.4271 35.4791 71.1508 35.4791 71.1508 34.1616V28.2786C71.1508 27.1448 72.5327 26.1031 73.5 26.1031C74.9925 26.1031 75.794 27.1448 75.794 28.7075V34.1616C75.794 35.4485 75.49 35.4485 74.4673 35.5404V36H79V35.5404C78.2261 35.4791 77.5905 35.4791 77.5905 34.1616V28.2786C77.5905 26.4095 75.9045 25 74.2462 25C72.809 25 72.0628 25.7354 71.1231 26.7772V25C70.1281 25.3983 69.1055 25.9805 68.0276 26.1337V26.532C68.995 26.6546 69.3266 26.9916 69.3266 27.9109V34.1309C69.3266 35.4178 69.0226 35.4178 68 35.5097V35.9694" fill="#707070"/>
<path d="M47.6667 35.9698V35.5165C46.5137 35.456 46.2118 35.456 46.2118 34.1566V27.6896C46.2118 27.2967 46.7882 26.6923 47.4471 26.6923C48.0235 26.6923 48.1333 27.4478 48.8745 27.4478C49.7804 27.4478 50 26.9038 50 26.1786C50 25.4231 49.2588 25 48.4353 25C47.4471 25 46.7059 25.9368 46.1569 26.7527V25.0907C45.1137 25.6044 44.0157 26.0879 43 26.2692V26.6621C44.0157 26.783 44.4275 27.0549 44.4275 27.9918V34.1868C44.4275 35.456 44.1255 35.456 43.1647 35.5467V36" fill="#707070"/>
<path d="M57.6235 26.257L58 25.0043H53.5137V23H53.2627C52.2274 24.1135 51.2235 25.0321 50 25.9786V26.2291H51.4118V33.0492C51.4118 34.6638 52.2274 36 54.2039 36C55.898 36 57.1843 34.9143 57.8745 34.1906L57.5608 33.8009C56.9333 34.4133 56.149 34.7752 55.3961 34.7752C53.8902 34.7752 53.5137 34.0514 53.5137 32.8266V26.2848" fill="#707070"/>
<path d="M1.01409 42.3262C1.01409 43.0922 1.21127 43.7163 2.05634 43.7163C2.8169 43.7163 3.21127 43.2057 3.21127 42.3262V40.766C3.21127 40.6525 3.1831 40.5674 3.1831 40.4539C3.15493 40.2553 2.95775 40.1702 2.70423 40.1418V40H4V40.1418C3.74648 40.1702 3.5493 40.2553 3.52113 40.4539C3.52113 40.539 3.49296 40.6241 3.49296 40.766V42.3546C3.49296 43.5461 2.73239 44 2.02817 44C0.84507 44 0.478873 43.4043 0.478873 42.383V40.7092C0.478873 40.1986 0.507042 40.227 0 40.1702V40.0284H1.49296V40.1702C0.985917 40.227 1.01409 40.1986 1.01409 40.7092" fill="#707070"/>
<path d="M1.06667 42.3766H0.959998C0.959998 42.7547 1.01333 43.1058 1.17333 43.3759C1.33333 43.646 1.62667 43.808 2.05333 43.808C2.42667 43.808 2.74666 43.673 2.96 43.4299C3.17333 43.1869 3.25333 42.8088 3.25333 42.3766V40.8912C3.25333 40.7562 3.22666 40.6752 3.22666 40.5942C3.2 40.4591 3.12 40.3511 3.04 40.2971C2.93333 40.2431 2.82666 40.2161 2.69333 40.189V40.2971H2.8V40.2701H3.81333V40.2971H3.92V40.189C3.78667 40.2161 3.68 40.2161 3.57333 40.2971C3.46667 40.3511 3.38667 40.4591 3.38667 40.5942C3.38667 40.6752 3.36 40.7562 3.36 40.8912V42.4037C3.36 42.9438 3.2 43.2949 2.96 43.538C2.72 43.754 2.4 43.862 2.08 43.862C1.54666 43.862 1.2 43.727 1.01333 43.4839C0.826663 43.2409 0.719999 42.8898 0.719999 42.4307V40.8372V40.7292C0.719999 40.6482 0.719999 40.5672 0.719999 40.4861L0.666667 40.3511C0.613333 40.2971 0.53333 40.2701 0.479997 40.2431C0.399997 40.2161 0.319999 40.2161 0.186666 40.2161V40.3241H0.293331V40.2971H1.49333V40.3241H1.6L1.57333 40.2161C1.36 40.2431 1.25333 40.2431 1.12 40.3241C1.06667 40.3781 1.04 40.4321 1.04 40.5131C1.04 40.5672 1.04 40.6482 1.04 40.7562V40.8642V42.5387H1.14666V42.3766H1.04H1.06667H1.17333V40.8102V40.7022C1.17333 40.5942 1.17333 40.5401 1.17333 40.4861V40.4321C1.17333 40.4321 1.17333 40.4051 1.25333 40.4051C1.30667 40.4051 1.38667 40.3781 1.52 40.3781H1.62666V40.135V40.027H0V40.2701V40.3781H0.106665C0.319998 40.4051 0.426664 40.4321 0.426664 40.4321L0.453333 40.4861C0.453333 40.5131 0.453333 40.5942 0.453333 40.6752V40.7832V42.3766C0.453333 42.8628 0.533333 43.2949 0.8 43.565C1.06667 43.862 1.46666 44.0241 2.02666 43.9971C2.4 43.9971 2.77333 43.8891 3.04 43.619C3.33333 43.3489 3.52 42.9168 3.52 42.3226V40.8102C3.52 40.7022 3.54666 40.6212 3.54666 40.5401H3.44L3.54666 40.5671C3.54666 40.5131 3.57333 40.4861 3.62666 40.4321C3.68 40.4051 3.78666 40.3781 3.89333 40.3511H4V40.108V40H2.53333V40.2431V40.3511H2.64C2.74667 40.3511 2.85333 40.3781 2.90667 40.4321C2.96 40.4591 2.98667 40.4861 2.98667 40.5671L3.09333 40.5401H2.98667C2.98667 40.6482 3.01333 40.7022 3.01333 40.8102V42.2956C3.01333 42.7007 2.93333 42.9978 2.74666 43.2139C2.58666 43.4029 2.34666 43.511 2.02666 43.511C1.65333 43.511 1.46667 43.3759 1.33333 43.1869C1.2 42.9708 1.14666 42.6737 1.14666 42.3226V42.2146H1.04V42.3766H1.06667Z" fill="#707070"/>
<path d="M7.51282 43.972C6.89743 43.1869 6.25641 42.3458 5.61538 41.5047V43.3832C5.61538 43.4673 5.64103 43.5514 5.64103 43.6075C5.66667 43.7757 5.79487 43.8318 6.05128 43.8318V43.9439H5.10256V43.8318C5.28205 43.8037 5.41026 43.7477 5.4359 43.6075C5.4359 43.5514 5.46154 43.4673 5.46154 43.3832V41.3925C5.35897 41.2523 5.23077 41.1121 5 41.1121V41H5.71795C6.30769 41.757 6.89744 42.5421 7.48718 43.3271V41.5888C7.48718 41.5047 7.46154 41.4206 7.46154 41.3645C7.4359 41.2243 7.30769 41.1402 7.05128 41.1402V41.028H8V41.1402C7.82051 41.1682 7.69231 41.2243 7.66667 41.3645C7.66667 41.4206 7.64102 41.5047 7.64102 41.5888V44" fill="#707070"/>
<path d="M7.26984 43.8597L7.36508 43.7544C6.60317 42.7719 5.80952 41.7193 5.01587 40.6667L4.79365 40.3509V43.0877C4.79365 43.2281 4.82539 43.3333 4.82539 43.4035C4.82539 43.5439 4.92063 43.6842 5.04762 43.7193C5.1746 43.7895 5.30159 43.7895 5.46032 43.8246V43.6842H5.33333V43.8246H5.46032V43.6842H4.28571V43.8246H4.41269V43.6842H4.28571V43.8246C4.4127 43.8246 4.53968 43.7895 4.63492 43.7193C4.73016 43.6491 4.82539 43.5439 4.82539 43.4035C4.82539 43.3333 4.85714 43.2281 4.85714 43.0877V40.5263L4.82539 40.4912C4.69841 40.2807 4.50794 40.0702 4.15873 40.0702V40.2105H4.28571V40.0702H4.15873V40.2105H5.04762V40.0702L4.95238 40.1754C5.68254 41.1228 6.4127 42.1053 7.14286 43.0877L7.17461 43.1579H7.2381H7.36508V40.8421C7.36508 40.7018 7.33334 40.5965 7.33334 40.5263C7.33334 40.386 7.23809 40.2807 7.11111 40.2105C6.98413 40.1404 6.85714 40.1403 6.69841 40.1053V40.2456H6.8254V40.1053H6.66667V40.2456H7.84127V40.1053H7.71429V40.2456H7.84127V40.1053C7.71429 40.1053 7.61905 40.1404 7.49207 40.2105C7.39683 40.2807 7.30159 40.386 7.30159 40.5263C7.30159 40.5965 7.26984 40.7018 7.26984 40.8421V43.7193H7.2381V43.8597H7.36508V43.7895L7.33334 43.7544L7.26984 43.8597H7.14286V44H7.42857H7.55556V40.8421C7.55556 40.7368 7.5873 40.6667 7.5873 40.5614H7.46032L7.5873 40.5965L7.6508 40.4912C7.68254 40.4561 7.77778 40.4211 7.87302 40.4211H8V40.1403V40H6.57143V40.2807V40.4211H6.69841C6.85714 40.4211 6.95238 40.4561 7.01588 40.4912L7.07937 40.5965C7.07937 40.7018 7.11111 40.7719 7.11111 40.8772V43.0526H7.2381L7.33334 42.9474C6.60318 42 5.87301 41.0175 5.14286 40.0351L5.07936 40H4V40.2807V40.4211H4.12698C4.3492 40.4211 4.44444 40.5263 4.57143 40.7368L4.66666 40.6316H4.53968V43.1228C4.53968 43.2281 4.53968 43.2983 4.50793 43.4035L4.44444 43.5088C4.4127 43.5439 4.31746 43.579 4.22222 43.579H4.09523V43.8597V44H5.52381V43.7193V43.579H5.39682C5.23809 43.579 5.14286 43.5439 5.07936 43.5088L5.01587 43.4035L4.88889 43.4386H5.01587C5.01587 43.3333 4.98412 43.2632 4.98412 43.1579V40.807H4.85714L4.7619 40.9123C5.55555 41.9298 6.3492 42.9825 7.11111 44L7.26984 43.8597Z" fill="#707070"/>
<path d="M9.68293 43.4623C9.68293 43.8585 9.65854 43.8302 10 43.8868V44H9V43.8868C9.34146 43.8302 9.31707 43.8585 9.31707 43.4623V41.5377C9.31707 41.1415 9.34146 41.1698 9 41.1132V41H10V41.1132C9.65854 41.1698 9.68293 41.1415 9.68293 41.5377" fill="#707070"/>
<path d="M9.65306 43.193H9.57143V43.2982C9.57143 43.4035 9.57143 43.4737 9.57143 43.5439L9.61225 43.6842C9.65306 43.7544 9.69388 43.7895 9.73469 43.7895C9.77551 43.7895 9.83673 43.8246 9.89796 43.8246V43.6842H9.81633V43.8246H9.89796V43.6842H9.06122V43.8246H9.14286V43.6842H9.06122V43.8246C9.18367 43.7895 9.2653 43.7895 9.32653 43.7193L9.38775 43.5088C9.38775 43.4386 9.38775 43.3684 9.38775 43.2632V43.1579V40.7719V40.6667C9.38775 40.5614 9.38775 40.4912 9.38775 40.4211L9.34694 40.2807C9.30612 40.2105 9.2653 40.1754 9.22449 40.1754C9.18367 40.1754 9.12245 40.1403 9.06122 40.1403V40.2807H9.14286V40.1403H9.06122V40.2807H9.89796V40.1403H9.81633V40.2807H9.89796V40.1403C9.77551 40.1754 9.69388 40.1754 9.63265 40.2456L9.57143 40.4561C9.57143 40.5263 9.57143 40.5965 9.57143 40.7018V40.807V43.193H9.65306H9.73469V40.807V40.7018C9.73469 40.5965 9.73469 40.5614 9.73469 40.5263V40.4912C9.73469 40.4912 9.81633 40.4561 9.91837 40.4561H10V40.1754V40H9V40.2807V40.4211H9.08163C9.14286 40.4211 9.20408 40.4561 9.22449 40.4561L9.2653 40.4912C9.2653 40.4912 9.2653 40.5614 9.2653 40.7018V40.807V43.193V43.2982C9.2653 43.4035 9.2653 43.4737 9.2653 43.5088V43.5439C9.2449 43.5439 9.18367 43.579 9.08163 43.579H9V43.8597V44H10V43.7193V43.579H9.91837C9.85714 43.579 9.79592 43.5439 9.77551 43.5439L9.73469 43.5088C9.73469 43.5088 9.73469 43.4386 9.73469 43.2982V43.193H9.65306Z" fill="#707070"/>
<path d="M12.1887 41.1132C11.9623 41.1132 11.7925 41.1698 11.934 41.5943C12.1038 42.1038 12.3585 42.8396 12.5849 43.4906C12.8679 42.8396 13.1226 42.1604 13.3774 41.5094C13.4906 41.2264 13.3774 41.1132 13.066 41.1132V41H14V41.1132C13.8868 41.1132 13.7453 41.1415 13.6321 41.3679C13.2641 42.2453 12.8962 43.1226 12.5566 44H12.3302C12.0755 43.2642 11.7641 42.4434 11.5094 41.7075C11.3396 41.2547 11.2264 41.1132 11 41.1132V41H12.1604" fill="#707070"/>
<path d="M11.6283 40.2807V40.1403C11.5221 40.1403 11.3805 40.1404 11.2743 40.2105C11.1681 40.2807 11.0973 40.4211 11.0973 40.5614C11.0973 40.6667 11.1327 40.7719 11.1681 40.9123C11.3805 41.5439 11.6991 42.4561 11.9823 43.2632L12.1239 43.614L12.2655 43.2632C12.6195 42.4561 12.9381 41.614 13.2566 40.807C13.292 40.7018 13.3274 40.6316 13.3274 40.5263C13.3274 40.386 13.2566 40.2456 13.1504 40.2105C13.0443 40.1404 12.9027 40.1053 12.7611 40.1053V40.2456H12.9027V40.1053H12.7611V40.2456H13.9292V40.1053H13.7876V40.2456H13.9292V40.1053C13.823 40.1053 13.7168 40.1053 13.6106 40.1754C13.5044 40.2456 13.3982 40.3509 13.3274 40.4912C12.8673 41.5789 12.4071 42.6667 11.9823 43.7544L12.1239 43.8246V43.6842H11.8407V43.8246L11.9823 43.7895C11.6637 42.8772 11.2743 41.8597 10.9558 40.9474C10.8496 40.6667 10.7434 40.4561 10.6372 40.3158C10.531 40.1754 10.354 40.1053 10.177 40.1053V40.2456H10.3186V40.1053H10.177V40.2456L11.6283 40.2807V40.1403H11.4867V40.2807V40.4211H11.6283V40.1403V40.2807H11.7699V40.1403V40H10V40.2807V40.4211H10.1416C10.2478 40.4211 10.2832 40.4561 10.354 40.5263C10.4248 40.5965 10.531 40.7719 10.6018 41.0526C10.9204 41.9649 11.3097 42.9825 11.6283 43.8947L11.6637 44H12.0531H12.1593L12.1947 43.8947C12.6549 42.807 13.115 41.7193 13.5398 40.6316C13.5752 40.5263 13.646 40.4561 13.6814 40.4211L13.8584 40.386H14V40.1053V40H12.5487V40.2807V40.4211H12.6903C12.7965 40.4211 12.9027 40.4561 12.9381 40.4561L12.9735 40.5614C12.9735 40.5965 12.9735 40.6667 12.9381 40.7368C12.6195 41.5439 12.2655 42.386 11.9469 43.193L12.0885 43.2632L12.2301 43.2281C11.9469 42.4211 11.6283 41.5088 11.4159 40.8772C11.3805 40.7719 11.3451 40.6667 11.3451 40.6316C11.3451 40.5614 11.3451 40.5263 11.3805 40.5263C11.4159 40.4912 11.4867 40.4912 11.5929 40.4912V40.2105V40.2807H11.6283Z" fill="#707070"/>
<path d="M14 43.9143C14.35 43.8571 14.325 43.8857 14.325 43.4857V41.5429C14.325 41.1429 14.35 41.1714 14 41.1143V41H15.7V41.6857H15.6C15.55 41.3714 15.475 41.1143 15.225 41.1143H14.7V42.3429H15.025C15.275 42.3429 15.375 42.2286 15.375 41.9714H15.475V42.8857H15.375C15.375 42.6286 15.275 42.4857 15.025 42.4857H14.7V43.4571C14.7 43.8286 14.85 43.8571 15.2 43.8571C15.75 43.8571 15.725 43.6857 15.9 43.2286H16L15.875 44H14" fill="#707070"/>
<path d="M14.1364 43.7193L14.1705 43.8597C14.375 43.8246 14.5114 43.8246 14.6136 43.7544L14.7159 43.5439C14.7159 43.4737 14.7159 43.4035 14.7159 43.2982V43.193V40.807V40.7018C14.7159 40.5965 14.7159 40.5263 14.7159 40.4561L14.6477 40.3158C14.5795 40.2456 14.5114 40.2105 14.4432 40.2105C14.375 40.2105 14.2727 40.1754 14.1705 40.1754V40.3158H14.3068V40.1754H14.1364V40.3158H16.3182V41.0175H16.4545V40.8772H16.3182V41.0175L16.4545 40.9825C16.4205 40.7719 16.3864 40.5965 16.2841 40.4211C16.1818 40.2456 16.0114 40.1404 15.7727 40.1754H15.0568H14.9205V42H15.5C15.6705 42 15.8409 41.9649 15.9432 41.8596C16.0455 41.7544 16.1136 41.5789 16.1136 41.4035H15.9773V41.5439H16.1136V41.4035H15.9773V42.5263H16.1136V42.386H15.9773V42.5263H16.1136C16.1136 42.3509 16.0795 42.1754 15.9773 42.0702C15.875 41.9298 15.7045 41.8947 15.5 41.8947H15.0568H14.9205V43.2281C14.9205 43.3684 14.9205 43.4737 14.9545 43.5439C15.0227 43.6842 15.125 43.7895 15.2614 43.8246C15.3977 43.8596 15.5341 43.8597 15.7045 43.8597C16.0795 43.8597 16.3182 43.7895 16.4886 43.6491C16.625 43.4737 16.6932 43.2632 16.7955 42.9825L16.6591 42.9123V43.0526H16.7955V42.9123L16.6591 42.8772L16.5227 43.7193H14.1364V43.8597H14.2727V43.7193H14.1364H14V43.8597V44H16.7955L17 42.7368H16.6932H16.5909L16.5568 42.807C16.4205 43.0877 16.3864 43.2982 16.2841 43.3684C16.2159 43.4386 16.0795 43.5088 15.7045 43.5088C15.4659 43.5088 15.3295 43.5088 15.2614 43.4386L15.1932 43.3684C15.1932 43.3333 15.1591 43.2632 15.1591 43.1579V42.1053H15.4659C15.6023 42.1053 15.6705 42.1404 15.7386 42.1754C15.7727 42.2105 15.8068 42.3158 15.8068 42.4561V42.5965H16.0795H16.2159V41.1579H15.9432H15.8409V41.2983C15.8409 41.4386 15.8068 41.5088 15.7727 41.5439C15.7386 41.5789 15.6705 41.614 15.5 41.614H15.1932V40.386H15.7727C15.9091 40.386 15.9773 40.4211 16.0455 40.5263C16.1136 40.5965 16.1477 40.7719 16.1818 40.9474V41.0877H16.4545H16.5909V40.0702V40H14V40.2807V40.4211H14.1364C14.2386 40.4211 14.3409 40.4561 14.375 40.4561L14.4432 40.4912C14.4432 40.4912 14.4432 40.5614 14.4432 40.7018V40.807V43.193V43.2982C14.4432 43.4035 14.4432 43.4737 14.4432 43.5088V43.5439C14.4091 43.5439 14.3068 43.579 14.1364 43.579H14V43.7193H14.1364Z" fill="#707070"/>
<path d="M17 41H18.4667C18.9667 41 19.5 41.2243 19.5 41.729C19.5 42.1776 19.1667 42.4579 18.8 42.5981L19.3 43.243C19.5667 43.5514 19.8333 43.8598 20 43.9439V44H19.4667C19.1667 44 19 43.5234 18.4 42.6822H17.9333V43.4673C17.9333 43.8598 17.9 43.8318 18.3667 43.8879V44H17V43.8879C17.4667 43.8318 17.4333 43.8598 17.4333 43.4673V41.5607C17.4333 41.1682 17.4667 41.1963 17 41.1402V41ZM17.9 42.514H18.3333C18.7667 42.514 18.9667 42.2336 18.9667 41.757C18.9667 41.2804 18.6667 41.1402 18.3 41.1402H17.9V42.514Z" fill="#707070"/>
<path d="M17.1224 40.313H18.4694C18.6837 40.313 18.898 40.3826 19.051 40.487C19.2041 40.6261 19.2959 40.8 19.2959 41.0435C19.2959 41.5304 19.051 41.8435 18.7143 41.9826L18.5612 42.0522L19.1122 42.9913C19.3571 43.3739 19.602 43.7565 19.8163 43.8957L19.8775 43.7565H19.7551V43.8261H19.8775V43.687H19.3878L19.2959 43.6174C19.1429 43.4435 18.9286 42.9217 18.5306 42.1217L18.5 42.0522H17.9796H17.8265V43.1652V43.2696C17.8265 43.3739 17.8265 43.4435 17.8265 43.513L17.8878 43.6522C17.949 43.7217 18.0102 43.7565 18.0714 43.7565C18.1327 43.7565 18.2245 43.7913 18.3163 43.7913L18.3469 43.6522H18.2245V43.7913H18.3469V43.6522H17.0918V43.7913H17.2143V43.6522H17.0918L17.1224 43.7913C17.3061 43.7565 17.4286 43.7565 17.5204 43.687L17.6122 43.4783C17.6122 43.4087 17.6122 43.3391 17.6122 43.2348V43.1304V40.7652V40.6609C17.6122 40.5565 17.6122 40.487 17.6122 40.4174L17.551 40.2783C17.4898 40.2087 17.4286 40.1739 17.3673 40.1391C17.3061 40.1391 17.2143 40.1044 17.1224 40.1044V40.313H17.2449V40.1739H17V40.313V40.4522H17.1224C17.2143 40.4522 17.3061 40.487 17.3367 40.487L17.398 40.5217C17.398 40.5565 17.398 40.6261 17.398 40.7304V40.8348V43.2V43.3043C17.398 43.4087 17.398 43.4783 17.398 43.513V43.5478C17.3673 43.5478 17.2755 43.5826 17.1224 43.5826H17V43.8609V44H18.5V43.7217V43.5826H18.3776C18.2857 43.5826 18.1939 43.5478 18.1633 43.5478L18.102 43.513C18.102 43.513 18.102 43.4435 18.102 43.3043V43.2V42.3652H18.4082V42.2261L18.2857 42.2957C18.5612 42.8174 18.7449 43.2348 18.898 43.513C18.9592 43.6522 19.051 43.7565 19.1122 43.8609C19.1735 43.9304 19.2959 44 19.3878 44H19.8775H20V43.7913V43.7217L19.9388 43.687C19.8163 43.6174 19.5408 43.2348 19.3265 42.8522L18.8673 42.0522L18.7755 42.1217L18.8367 42.2609C19.2347 42.087 19.5714 41.6696 19.5714 41.0435C19.5714 40.6957 19.4184 40.4174 19.2347 40.2435C19.0204 40.0696 18.7755 40 18.5 40H17.1531V40.313H17.1224ZM17.949 42.0522V42.1913H18.3469C18.5918 42.1913 18.7755 42.087 18.898 41.8783C19.0204 41.6696 19.051 41.4261 19.051 41.113C19.051 40.8 18.9592 40.5565 18.8367 40.4174C18.6837 40.2783 18.5 40.2087 18.3163 40.2087H17.949H17.8265V42.2261H17.949V42.0522H18.0714V40.487H18.3163C18.4694 40.487 18.5918 40.5217 18.6531 40.6261C18.7449 40.7304 18.8061 40.8696 18.8061 41.113C18.8061 41.3913 18.7755 41.6 18.6837 41.7391C18.6224 41.8783 18.5 41.913 18.3469 41.913H17.949V42.0522Z" fill="#707070"/>
<path d="M21.6562 41.6606C21.625 41.3578 21.4375 41.1376 21.0625 41.1376C20.7813 41.1376 20.5313 41.2752 20.5313 41.578C20.5313 41.8807 20.875 42.0459 21.3437 42.3486C21.8437 42.6789 22 42.8991 22 43.2294C22 43.7248 21.4375 44 20.8438 44C20.5313 44 20.2813 43.945 20.0313 43.8624L20 43.8073V43.2018H20.125C20.1875 43.6697 20.5313 43.8624 20.875 43.8624C21.2187 43.8624 21.5 43.6422 21.5 43.3394C21.5 43.0642 21.3437 42.844 20.625 42.4312C20.375 42.2661 20.0625 42.1284 20.0625 41.6606C20.0625 41.2752 20.5312 41 21.0937 41C21.3125 41 21.5625 41.0275 21.75 41.0826L21.7813 41.1376V41.6881" fill="#707070"/>
<path d="M21.5278 40.9333H21.6389C21.6111 40.7333 21.5556 40.5667 21.4444 40.4C21.3333 40.2667 21.1667 40.1667 20.9722 40.1667C20.8333 40.1667 20.6944 40.2 20.5833 40.3333C20.4722 40.4333 20.3889 40.6333 20.3889 40.8333C20.3889 41.0667 20.5 41.2333 20.6111 41.4C20.75 41.5667 20.9167 41.7 21.1389 41.9C21.3611 42.1 21.5 42.2667 21.5833 42.4C21.6667 42.5333 21.6944 42.6667 21.6944 42.8667C21.6944 43.1333 21.5833 43.3 21.4167 43.4333C21.25 43.5667 21.0278 43.6667 20.7778 43.6667C20.5278 43.6667 20.3056 43.6 20.1111 43.5L20.0833 43.6333L20.1944 43.5667L20.1667 43.5333V42.8333H20.0556V42.9667H20.1667V42.8333H20.0556C20.0833 43.1333 20.1944 43.3667 20.3333 43.5333C20.4722 43.7 20.6667 43.7333 20.8611 43.7333C21.0278 43.7333 21.1944 43.6667 21.3333 43.5C21.4444 43.3667 21.5278 43.1667 21.5278 42.9333C21.5278 42.7333 21.4722 42.5667 21.3611 42.3667C21.2222 42.1667 21.0278 41.9667 20.6944 41.7333C20.5833 41.6333 20.4722 41.5667 20.3889 41.4333C20.3056 41.3 20.25 41.1667 20.25 40.9333C20.25 40.7667 20.3333 40.6 20.4722 40.4667C20.6111 40.3333 20.8333 40.2667 21.0278 40.2667C21.1944 40.2667 21.4444 40.3 21.5833 40.3667L21.6111 40.2333L21.5 40.3V40.3333L21.5278 40.9333H21.6389V40.8H21.5278H21.4167V40.9333H21.5278V41.0667H21.6389H21.75V40.2667V40.2333L21.6944 40.1333L21.6667 40.1H21.6389C21.4444 40.0333 21.1944 40 21 40C20.7222 40 20.4722 40.1 20.3056 40.2667C20.1111 40.4333 20 40.6667 20 40.9667C20 41.2667 20.0833 41.5 20.1944 41.6667C20.3056 41.8333 20.4444 41.9333 20.5556 42.0333C20.8611 42.2667 21.0556 42.4667 21.1667 42.6333C21.2778 42.8 21.3056 42.9 21.3056 43.0333C21.3056 43.3333 21.1111 43.5333 20.8889 43.5333C20.75 43.5333 20.6111 43.5 20.5278 43.4C20.4167 43.3 20.3611 43.1333 20.3333 42.9V42.7667H20.1111H20V43.6333V43.6667L20.0278 43.7667L20.0556 43.8L20.1111 43.8333C20.3333 43.9333 20.5833 44 20.8611 44C21.1389 44 21.4167 43.9 21.6389 43.7333C21.8611 43.5667 22 43.2667 22 42.9333C22 42.7 21.9444 42.5 21.8611 42.3C21.75 42.1 21.6111 41.9333 21.3611 41.7333C21.1389 41.5333 20.9722 41.4 20.8611 41.2667C20.75 41.1333 20.6944 41.0333 20.6944 40.9C20.6944 40.7333 20.7222 40.6667 20.8056 40.6C20.8611 40.5333 20.9444 40.5 21.0556 40.5C21.1944 40.5 21.2778 40.5667 21.3611 40.6333C21.4167 40.7333 21.4722 40.8667 21.4722 41H21.6944H21.5278V40.9333Z" fill="#707070"/>
<path d="M23.6829 43.4623C23.6829 43.8585 23.6585 43.8302 24 43.8868V44H23V43.8868C23.3415 43.8302 23.3171 43.8585 23.3171 43.4623V41.5377C23.3171 41.1415 23.3415 41.1698 23 41.1132V41H24V41.1132C23.6585 41.1698 23.6829 41.1415 23.6829 41.5377" fill="#707070"/>
<path d="M23.6531 43.1652H23.5714V43.2696C23.5714 43.3739 23.5714 43.4435 23.5714 43.513L23.6122 43.687C23.6531 43.7565 23.6939 43.7913 23.7347 43.8261C23.7755 43.8261 23.8367 43.8609 23.898 43.8609V43.7217H23.8367V43.8609H23.9184V43.7217H23.0816V43.8609H23.1633V43.7217H23.0816V43.8609C23.2041 43.8261 23.2857 43.8261 23.3673 43.7565C23.4082 43.687 23.4286 43.6174 23.4286 43.5478C23.4286 43.4783 23.4286 43.4087 23.4286 43.3043V43.2V40.8348V40.7304C23.4286 40.6261 23.4286 40.5565 23.4286 40.487L23.3878 40.313C23.3469 40.2435 23.3061 40.2087 23.2653 40.1739C23.2245 40.1739 23.1633 40.1391 23.102 40.1391V40.2783H23.1837V40.1391H23.102V40.2783H23.9388V40.1391H23.8367V40.2783H23.9184V40.1391C23.7959 40.1739 23.7143 40.1739 23.6531 40.2435L23.5918 40.4522C23.5918 40.5217 23.5918 40.5913 23.5918 40.6957V40.8V43.1652H23.6531H23.7347V40.8V40.6957C23.7347 40.5913 23.7347 40.5217 23.7347 40.487V40.4522C23.7551 40.4522 23.8163 40.4174 23.9184 40.4174H24V40.1391V40H23V40.2783V40.4174H23.0816C23.1429 40.4174 23.2041 40.4522 23.2245 40.4522L23.2653 40.487C23.2653 40.5217 23.2653 40.5913 23.2653 40.7304V40.8348V43.2V43.3043C23.2653 43.4087 23.2653 43.4783 23.2653 43.513V43.5478C23.2449 43.5478 23.1837 43.5826 23.0816 43.5826H23V43.8609V44H24V43.7217V43.5826H23.9184C23.8571 43.5826 23.7959 43.5478 23.7755 43.5478L23.7347 43.513C23.7347 43.513 23.7347 43.4435 23.7347 43.2696V43.1652H23.6531Z" fill="#707070"/>
<path d="M26.7283 43.4623C26.7283 43.8585 26.6957 43.8302 27.1522 43.8868V44H25.8152V43.8868C26.2717 43.8302 26.2391 43.8585 26.2391 43.4623V41.1415H25.7826C25.3587 41.1415 25.2609 41.3679 25.0978 41.6509H25L25.1304 41H27.8696L28 41.6509H27.8696C27.7065 41.3679 27.6087 41.1415 27.1848 41.1415H26.7283" fill="#707070"/>
<path d="M26.7476 43.2281H26.6311V43.3333C26.6311 43.4386 26.6311 43.5088 26.6311 43.579L26.6893 43.7193C26.7476 43.7895 26.8058 43.8246 26.8641 43.8246C26.9223 43.8246 27.0097 43.8597 27.0971 43.8597V43.7193H26.9806V43.8597H27.0971V43.7193H25.9029V43.8597H26.0194V43.7193H25.9029V43.8597C26.0777 43.8246 26.1942 43.8246 26.2816 43.7544L26.3689 43.5439C26.3689 43.4737 26.3689 43.4035 26.3689 43.2982V43.193V40.1754H25.8447C25.6408 40.1754 25.466 40.2807 25.3495 40.4211C25.233 40.5614 25.1748 40.7368 25.1165 40.9123L25.233 40.9825V40.8421H25.2039V40.9825L25.3204 41.0175L25.4369 40.3158H27.6796L27.767 41.0175L27.8835 40.9825V40.8421H27.767V40.9825L27.8835 40.9123C27.8252 40.7368 27.767 40.5614 27.6505 40.4211C27.534 40.2807 27.3883 40.1754 27.1553 40.1754H26.7476H26.6311V43.193H26.7476V43.0526H26.6311V43.193H26.7476V43.3333H26.8641V40.4561H27.1262C27.301 40.4561 27.3592 40.5263 27.4466 40.5965C27.5049 40.7018 27.5631 40.8421 27.6505 41.0175L27.6796 41.0877H27.8544H28L27.8252 40H25.1748L25 41.0877H25.2621H25.3495L25.3786 41.0175C25.466 40.8421 25.5243 40.7018 25.5825 40.5965C25.6408 40.4912 25.7282 40.4561 25.9029 40.4561H26.1942V43.193V43.2982C26.1942 43.4035 26.1942 43.4737 26.1942 43.5088V43.5439C26.165 43.5439 26.0777 43.579 25.932 43.579H25.8155V43.8597V44H27.2427V43.7193V43.579H27.1262C27.0388 43.579 26.9515 43.5439 26.9223 43.5439L26.8641 43.5088C26.8641 43.5088 26.8641 43.4386 26.8641 43.2982V43.193H26.7476V43.3333V43.2281Z" fill="#707070"/>
<path d="M28.8387 43.8868C29.2903 43.8302 29.2581 43.8585 29.2581 43.4623V42.8113L28.5161 41.5094C28.3548 41.2264 28.2258 41.1132 28 41.1132V41H29.2581V41.1132C28.9032 41.1132 28.9355 41.283 29.0323 41.5094L29.6129 42.5849L30.2903 41.5094C30.4516 41.2547 30.2903 41.1132 30 41.1132V41H31V41.1132C30.871 41.1132 30.7419 41.1698 30.6129 41.3679L29.8065 42.6698C29.7419 42.7547 29.7419 42.8679 29.7419 42.9811V43.4623C29.7419 43.8585 29.7097 43.8302 30.1613 43.8868V44H28.8387" fill="#707070"/>
<path d="M28.9118 43.7193L28.9412 43.8597C29.1176 43.8246 29.2353 43.8246 29.3235 43.7544L29.4118 43.5439C29.4118 43.4737 29.4118 43.4035 29.4118 43.2982V43.193V42.386V42.3509L28.7059 40.7018C28.6176 40.5263 28.5588 40.386 28.4706 40.2807C28.3824 40.1754 28.2647 40.1403 28.1176 40.1403V40.2807H28.2353V40.1403H28.1176V40.2807H29.2647V40.1403H29.1471V40.2807H29.2647V40.1403C29.1471 40.1403 29.0588 40.1404 29 40.2105C28.9118 40.2807 28.8824 40.386 28.8824 40.4561C28.8824 40.5965 28.9118 40.7018 28.9706 40.807L29.6176 42.386L30.3529 40.807C30.4118 40.7018 30.4412 40.5965 30.4412 40.4912C30.4412 40.3509 30.3823 40.2456 30.2941 40.1754C30.2059 40.1053 30.1176 40.1053 30 40.1053V40.2456H30.1176V40.1053H30V40.2456H30.9118V40.1053H30.7941V40.2456H30.9118V40.1053C30.7353 40.1053 30.5588 40.2105 30.4412 40.4912L29.7059 42.1053C29.6471 42.2456 29.6471 42.421 29.6471 42.5614V43.1579V43.2632C29.6471 43.3684 29.6471 43.4386 29.6471 43.5088L29.7059 43.6491C29.7647 43.7193 29.8235 43.7544 29.8823 43.7544C29.9412 43.7544 30.0294 43.7895 30.1176 43.7895L30.1471 43.6491H30.0294V43.7895H30.1471V43.6491L28.9118 43.7193V43.8597H29.0294V43.7193H28.9118V43.579H28.7941V43.8597V44H30.2353V43.7193V43.579H30.1176C30.0294 43.579 29.9706 43.5439 29.9118 43.5439L29.8529 43.5088C29.8529 43.5088 29.8529 43.4386 29.8529 43.2982V43.193V42.5965C29.8529 42.4561 29.8529 42.3509 29.8823 42.2807L30.6176 40.6667C30.7353 40.4561 30.7941 40.4211 30.8823 40.4211H31V40.1403V40H29.8529V40.2807V40.4211H29.9706C30.0588 40.4211 30.1176 40.4561 30.1471 40.4561L30.1765 40.5263C30.1765 40.5614 30.1765 40.5965 30.1176 40.7018L29.6176 41.7895L29.1765 40.7018C29.1471 40.5965 29.1176 40.5263 29.1176 40.4912C29.1176 40.4912 29.1765 40.4561 29.2647 40.4561H29.3824V40.1754V40H28V40.2807V40.4211H28.1176C28.2059 40.4211 28.2353 40.4561 28.2941 40.4912C28.3529 40.5614 28.4118 40.6667 28.4706 40.807L29.1471 42.386V43.1579V43.2632C29.1471 43.3684 29.1471 43.4386 29.1471 43.4737V43.5088C29.1471 43.5088 29.0294 43.5439 28.8824 43.5439L28.9118 43.7193Z" fill="#707070"/>
<path d="M33 42.8641C33 42.1068 33.5057 41 34.2644 41C34.8621 41 35 41.5243 35 42.0194C35 42.6602 34.6092 44 33.7356 44C33.1609 43.9709 33 43.3884 33 42.8641ZM34.5862 41.7282C34.5862 41.1456 34.3103 41.1165 34.2184 41.1165C33.7356 41.1165 33.4138 42.2233 33.4138 42.9806C33.4138 43.2718 33.4598 43.8252 33.7816 43.8252C34.3103 43.8252 34.5862 42.7476 34.5862 41.7282Z" fill="#707070"/>
<path d="M38.3333 40.5544L38.1818 40.6788H37.3939C37.0909 42.1399 36.6364 44.0674 36.2727 45H36L36.8485 40.6788H36.2727L36.3333 40.4301H36.8788C37.1818 39.1244 38.2424 39 38.4848 39C38.6364 39 38.9091 39.0311 39 39.1244L38.9394 39.5285L38.7879 39.5907C38.697 39.4352 38.5152 39.2487 38.2727 39.2487C37.9091 39.2487 37.6364 39.4974 37.5152 40.1503L37.4545 40.4611H38.3333" fill="#707070"/>
<path d="M41.08 43.2941C41.08 43.8235 41.05 43.7941 41.59 43.8529V44H40V43.8529C40.54 43.7941 40.51 43.8235 40.51 43.2941V40.7059C40.51 40.1765 40.54 40.2059 40 40.1471V40H41.53C42.52 40 43 40.3824 43 41.0882C43 41.9118 42.22 42.3823 41.32 42.3235V42.2059C42.07 42.2059 42.4 41.7941 42.4 41.1471C42.4 40.5 42.07 40.2059 41.41 40.2059H41.05" fill="#707070"/>
<path d="M41.0734 43.25H40.9633V43.3611C40.9633 43.4722 40.9633 43.5278 40.9633 43.6111L41.0183 43.75C41.0734 43.8056 41.156 43.8333 41.211 43.8611C41.2936 43.8889 41.3761 43.8889 41.5138 43.8889V43.7778H41.4312V43.8056H40.1927V43.7778H40.0826V43.8889C40.3028 43.8611 40.4128 43.8611 40.5505 43.7778C40.6055 43.7222 40.633 43.6667 40.633 43.5833C40.633 43.5278 40.633 43.4444 40.633 43.3333V43.2222V40.7778V40.6667C40.633 40.5556 40.633 40.5 40.633 40.4167L40.578 40.2778C40.5229 40.2222 40.4404 40.1944 40.3853 40.1667C40.3028 40.1389 40.2202 40.1389 40.0826 40.1111V40.2222H40.1927V40.1944H41.4862C41.9266 40.1944 42.2294 40.2778 42.422 40.4444C42.6147 40.5833 42.6972 40.8056 42.7248 41.1111C42.7248 41.4444 42.5872 41.6945 42.367 41.8889C42.1468 42.0556 41.8165 42.1667 41.4587 42.1667H41.3486V42.2778H41.4587V42.1667H41.3486V42.2778H41.3761C41.7339 42.2778 42.0092 42.1667 42.1743 41.9722C42.367 41.7778 42.4495 41.5 42.4495 41.1667C42.4495 40.8333 42.367 40.5833 42.2018 40.4167C42.0367 40.25 41.7615 40.1667 41.4587 40.1667H41.1284H41.0183V43.25H41.0734V43.1389H40.9633V43.25H41.0734V43.3611H41.1835V40.3889H41.4037C41.6789 40.3889 41.8716 40.4444 42.0092 40.5833C42.1193 40.6944 42.2018 40.8889 42.2018 41.1667C42.2018 41.4444 42.1193 41.6667 42.0092 41.8056C41.8716 41.9444 41.6789 42.0556 41.3761 42.0556H41.3486H41.2385V42.2778V42.3889H41.3486H41.4862C41.8991 42.3889 42.2569 42.2778 42.5321 42.0556C42.8073 41.8333 43 41.5 43 41.1111C43 40.75 42.8624 40.4722 42.6147 40.2778C42.367 40.0833 42.0092 40 41.5413 40H40V40.25V40.3611H40.1101C40.3303 40.3889 40.4404 40.4167 40.4404 40.4167L40.4679 40.4722C40.4679 40.5 40.4679 40.5833 40.4679 40.6667V40.7778V43.2222V43.3333C40.4679 43.4167 40.4679 43.5 40.4679 43.5278V43.5833C40.4679 43.5833 40.4679 43.5833 40.3853 43.6111C40.3303 43.6111 40.2477 43.6389 40.1101 43.6389H40V43.8889V44H41.6789V43.75V43.6389H41.5688C41.3486 43.6111 41.2385 43.5833 41.2385 43.5833L41.211 43.5278C41.211 43.5 41.211 43.4167 41.211 43.3333V43.2222H41.0734V43.3333V43.25Z" fill="#707070"/>
<path d="M44 43.9143C44.35 43.8571 44.325 43.8857 44.325 43.4857V41.5429C44.325 41.1429 44.35 41.1714 44 41.1143V41H45.7V41.6857H45.6C45.55 41.3714 45.475 41.1143 45.225 41.1143H44.7V42.3429H45.025C45.275 42.3429 45.375 42.2286 45.375 41.9714H45.475V42.8857H45.375C45.375 42.6286 45.275 42.4857 45.025 42.4857H44.7V43.4571C44.7 43.8286 44.85 43.8571 45.2 43.8571C45.75 43.8571 45.725 43.6857 45.9 43.2286H46L45.875 44H44" fill="#707070"/>
<path d="M44.0909 43.7193L44.1136 43.8597C44.25 43.8246 44.3409 43.8246 44.4091 43.7544L44.4773 43.5439C44.4773 43.4737 44.4773 43.4035 44.4773 43.2982V43.193V40.807V40.7018C44.4773 40.5965 44.4773 40.5263 44.4773 40.4561L44.4318 40.3158C44.3864 40.2456 44.3409 40.2105 44.2955 40.2105C44.25 40.2105 44.1818 40.1754 44.1136 40.1754V40.3158H44.2045V40.1754H44.1136V40.3158H45.5682V41.0175H45.6591V40.8772H45.5682V41.0175L45.6591 40.9825C45.6364 40.7719 45.6136 40.5965 45.5455 40.4211C45.4773 40.2456 45.3636 40.1404 45.2045 40.1754H44.7273H44.6364V42H45.0227C45.1364 42 45.25 41.9649 45.3182 41.8596C45.3864 41.7544 45.4318 41.5789 45.4318 41.4035H45.3409V41.5439H45.4318V41.4035H45.3409V42.5263H45.4318V42.386H45.3409V42.5263H45.4318C45.4318 42.3509 45.4091 42.1754 45.3409 42.0702C45.2727 41.9298 45.1591 41.8947 45.0227 41.8947H44.7273H44.6364V43.2281C44.6364 43.3684 44.6364 43.4737 44.6591 43.5439C44.7045 43.6842 44.7727 43.7895 44.8636 43.8246C44.9545 43.8596 45.0455 43.8597 45.1591 43.8597C45.4091 43.8597 45.5682 43.7895 45.6818 43.6491C45.7727 43.4737 45.8182 43.2632 45.8864 42.9825L45.7954 42.9123V43.0526H45.8864V42.9123L45.7954 42.8772L45.7045 43.7193H44.0909V43.8597H44.1818V43.7193H44.0909H44V43.8597V44H45.8636L46 42.7368H45.7954H45.7273L45.7045 42.807C45.6136 43.0877 45.5909 43.2982 45.5227 43.3684C45.4773 43.4386 45.3864 43.5088 45.1364 43.5088C44.9773 43.5088 44.8864 43.5088 44.8409 43.4386L44.7955 43.3684C44.7955 43.3333 44.7727 43.2632 44.7727 43.1579V42.1053H44.9773C45.0682 42.1053 45.1136 42.1404 45.1591 42.1754C45.1818 42.2105 45.2045 42.3158 45.2045 42.4561V42.5965H45.3864H45.4773V41.1579H45.2955H45.2045V41.2983C45.2045 41.4386 45.1818 41.5088 45.1591 41.5439C45.1364 41.5789 45.0909 41.614 44.9773 41.614H44.8182V40.386H45.2045C45.2955 40.386 45.3409 40.4211 45.3864 40.5263C45.4318 40.5965 45.4545 40.7719 45.4773 40.9474V41.0877H45.6591H45.75V40.0702V40H44.0227V40.2807V40.4211H44.1136C44.1818 40.4211 44.25 40.4561 44.2727 40.4561L44.3182 40.4912C44.3182 40.4912 44.3182 40.5614 44.3182 40.7018V40.807V43.193V43.2982C44.3182 43.4035 44.3182 43.4737 44.3182 43.5088V43.5439C44.2955 43.5439 44.2273 43.579 44.1136 43.579H44.0227V43.7193H44.0909Z" fill="#707070"/>
<path d="M49.5128 43.972C48.8974 43.1869 48.2564 42.3458 47.6154 41.5047V43.3832C47.6154 43.4673 47.641 43.5514 47.641 43.6075C47.6667 43.7757 47.7949 43.8318 48.0513 43.8318V43.9439H47.1026V43.8318C47.282 43.8037 47.4103 43.7477 47.4359 43.6075C47.4359 43.5514 47.4615 43.4673 47.4615 43.3832V41.3925C47.359 41.2523 47.2308 41.1121 47 41.1121V41H47.7179C48.3077 41.757 48.8974 42.5421 49.4872 43.3271V41.5888C49.4872 41.5047 49.4615 41.4206 49.4615 41.3645C49.4359 41.2243 49.3077 41.1402 49.0513 41.1402V41.028H50V41.1402C49.8205 41.1682 49.6923 41.2243 49.6667 41.3645C49.6667 41.4206 49.641 41.5047 49.641 41.5888V44" fill="#707070"/>
<path d="M49.448 43.8597L49.52 43.7544C48.944 42.7719 48.344 41.7193 47.744 40.6667L47.576 40.3509V43.0877C47.576 43.2281 47.6 43.3333 47.6 43.4035C47.6 43.5439 47.672 43.6491 47.768 43.7193C47.864 43.7895 47.96 43.7895 48.08 43.8246V43.6842H47.984V43.8246H48.08V43.6842H47.192V43.8246H47.288V43.6842H47.192V43.8246C47.288 43.8246 47.384 43.7895 47.456 43.7193C47.528 43.6491 47.6 43.5439 47.6 43.4035C47.6 43.3333 47.624 43.2281 47.624 43.0877V40.5263L47.6 40.4912C47.504 40.2807 47.36 40.0702 47.096 40.0702V40.2105H47.192V40.0702H47.096V40.2105H47.768V40.0702L47.696 40.1754C48.248 41.1228 48.8 42.1053 49.352 43.0877L49.376 43.1579H49.424H49.52V40.8421C49.52 40.7018 49.496 40.5965 49.496 40.5263C49.496 40.386 49.424 40.2807 49.328 40.2105C49.232 40.1404 49.136 40.1403 49.016 40.1053V40.2456H49.112V40.1053H49.016V40.2456H49.904V40.1053H49.808V40.2456H49.904V40.1053C49.808 40.1053 49.736 40.1404 49.664 40.2105C49.592 40.2807 49.52 40.386 49.52 40.5263C49.52 40.5965 49.496 40.7018 49.496 40.8421V43.7193H49.472V43.8597H49.568V43.7895L49.544 43.7544L49.448 43.8597H49.352V44H49.568H49.664V40.8421C49.664 40.7368 49.688 40.6667 49.688 40.5614H49.592L49.688 40.5965L49.736 40.4912C49.76 40.4561 49.832 40.4211 49.904 40.4211H50V40.1403V40H48.92V40.2807V40.4211H49.016C49.136 40.4211 49.208 40.4561 49.256 40.4912L49.304 40.5965C49.304 40.7018 49.328 40.7719 49.328 40.8772V43.0526H49.424L49.496 42.9474C48.944 42 48.392 41.0175 47.84 40.0351L47.816 40H47V40.2807V40.4211H47.096C47.264 40.4211 47.336 40.5263 47.432 40.7368L47.504 40.6316H47.408V43.1228C47.408 43.2281 47.408 43.2982 47.384 43.3684L47.336 43.4737C47.312 43.5088 47.24 43.5439 47.168 43.5439H47.072V43.8246V43.9649H48.152V43.6842V43.5439H48.056C47.936 43.5439 47.864 43.5088 47.816 43.4737L47.768 43.3684C47.768 43.2632 47.744 43.193 47.744 43.0877V40.7368H47.648L47.576 40.8421C48.176 41.8596 48.776 42.9123 49.352 43.9298L49.448 43.8597Z" fill="#707070"/>
<path d="M53.5128 43.972C52.8974 43.1869 52.2564 42.3458 51.6154 41.5047V43.3832C51.6154 43.4673 51.641 43.5514 51.641 43.6075C51.6667 43.7757 51.7949 43.8318 52.0513 43.8318V43.9439H51.1026V43.8318C51.2821 43.8037 51.4103 43.7477 51.4359 43.6075C51.4359 43.5514 51.4615 43.4673 51.4615 43.3832V41.3925C51.359 41.2523 51.2308 41.1121 51 41.1121V41H51.7179C52.3077 41.757 52.8974 42.5421 53.4872 43.3271V41.5888C53.4872 41.5047 53.4615 41.4206 53.4615 41.3645C53.4359 41.2243 53.3077 41.1402 53.0513 41.1402V41.028H54V41.1402C53.8205 41.1682 53.6923 41.2243 53.6667 41.3645C53.6667 41.4206 53.641 41.5047 53.641 41.5888V44" fill="#707070"/>
<path d="M53.448 43.8609L53.52 43.7565C52.944 42.7826 52.344 41.7391 51.744 40.6957L51.576 40.3826V43.0957C51.576 43.2348 51.6 43.3391 51.6 43.4087C51.6 43.5478 51.672 43.6522 51.768 43.7217C51.864 43.7913 51.96 43.7913 52.08 43.8261V43.687H51.984V43.8261H52.08V43.687H51.192V43.8261H51.288V43.687H51.192V43.8261C51.288 43.8261 51.384 43.7913 51.456 43.7217C51.528 43.6522 51.6 43.5478 51.6 43.4087C51.6 43.3391 51.624 43.2348 51.624 43.0957V40.5565L51.6 40.5217C51.504 40.313 51.36 40.1044 51.096 40.1044V40.2435H51.192V40.1044H51.096V40.2435H51.768V40.1044L51.696 40.2087C52.248 41.1478 52.8 42.1217 53.352 43.0957L53.376 43.1652H53.424H53.52V40.8696C53.52 40.7304 53.496 40.6261 53.496 40.5565C53.496 40.4174 53.424 40.313 53.328 40.2435C53.232 40.1739 53.136 40.1739 53.016 40.1391V40.2783H53.112V40.1391H53.016V40.2783H53.904V40.1391H53.808V40.2783H53.904V40.1391C53.808 40.1391 53.736 40.1739 53.64 40.2435C53.568 40.313 53.496 40.4174 53.496 40.5565C53.496 40.6261 53.472 40.7304 53.472 40.8696V43.7217H53.448V43.8609H53.544V43.7913L53.52 43.7565L53.448 43.8609H53.352V44H53.568H53.664V40.8696C53.664 40.7652 53.688 40.6957 53.688 40.5913L53.736 40.487C53.76 40.4522 53.832 40.4174 53.904 40.4174H54V40.1391V40.0348H52.92V40.313V40.4522H53.016C53.136 40.4522 53.208 40.487 53.256 40.5217L53.304 40.6261L53.4 40.5913H53.304C53.304 40.6957 53.328 40.7652 53.328 40.8696V43.0261H53.424L53.496 42.9217C52.944 41.9826 52.392 41.0087 51.84 40.0348L51.816 40H51V40.2783V40.4174H51.096C51.264 40.4174 51.336 40.5217 51.432 40.7304L51.504 40.6261H51.432V43.0957C51.432 43.2 51.432 43.2696 51.408 43.3391L51.36 43.4435C51.336 43.4783 51.264 43.513 51.192 43.513H51.096V43.7913V43.9304H52.176V43.6522V43.513H52.08C51.96 43.513 51.888 43.4783 51.84 43.4435L51.792 43.3391L51.696 43.3739H51.792C51.792 43.2696 51.768 43.2 51.768 43.0957V40.7652H51.672L51.6 40.8696C52.2 41.8783 52.8 42.9217 53.376 43.9304L53.448 43.8609Z" fill="#707070"/>
<path d="M56.6562 41.6606C56.625 41.3578 56.4375 41.1376 56.0625 41.1376C55.7812 41.1376 55.5313 41.2752 55.5313 41.578C55.5313 41.8807 55.875 42.0459 56.3437 42.3486C56.8437 42.6789 57 42.8991 57 43.2294C57 43.7248 56.4375 44 55.8438 44C55.5313 44 55.2813 43.945 55.0313 43.8624L55 43.8073V43.2018H55.125C55.1875 43.6697 55.5312 43.8624 55.875 43.8624C56.2187 43.8624 56.5 43.6422 56.5 43.3394C56.5 43.0642 56.3438 42.844 55.625 42.4312C55.375 42.2661 55.0625 42.1284 55.0625 41.6606C55.0625 41.2752 55.5313 41 56.0938 41C56.3125 41 56.5625 41.0275 56.75 41.0826L56.7813 41.1376V41.6881" fill="#707070"/>
<path d="M56.5833 40.9333H56.6945C56.6667 40.7333 56.6111 40.5667 56.5 40.4C56.3889 40.2667 56.2222 40.1667 56.0278 40.1667C55.8889 40.1667 55.75 40.2 55.6389 40.3333C55.5278 40.4333 55.4444 40.6333 55.4444 40.8333C55.4444 41.0667 55.5556 41.2333 55.6667 41.4C55.8056 41.5667 55.9722 41.7 56.1944 41.9C56.4167 42.1 56.5556 42.2667 56.6389 42.4C56.7222 42.5333 56.75 42.6667 56.75 42.8667C56.75 43.1333 56.6389 43.3 56.4722 43.4333C56.3056 43.5667 56.0833 43.6667 55.8333 43.6667C55.5833 43.6667 55.3611 43.6 55.1389 43.5L55.1111 43.6333L55.2222 43.5667L55.1944 43.5333V42.8333H55.1111V42.9667H55.2222V42.8333H55.1111C55.1389 43.1333 55.25 43.3667 55.3889 43.5333C55.5278 43.7 55.7222 43.7333 55.9167 43.7333C56.2778 43.7333 56.5833 43.4 56.5833 42.9667C56.5833 42.7667 56.5278 42.6 56.4167 42.4C56.2778 42.2 56.0833 42 55.75 41.7667C55.6389 41.6667 55.5278 41.6 55.4444 41.4667C55.3611 41.3333 55.3056 41.2 55.3056 40.9667C55.3056 40.8 55.3889 40.6333 55.5278 40.5C55.6667 40.3667 55.8889 40.3 56.0833 40.3C56.25 40.3 56.5 40.3333 56.6389 40.4L56.6667 40.2667L56.5833 40.3333V40.3667V40.9333H56.6945V40.8H56.5833H56.4722V40.9333H56.5833V41.0667H56.6945H56.8056V40.2667V40.2333L56.75 40.1333L56.7222 40.1H56.6945C56.5 40.0333 56.25 40 56.0556 40C55.7778 40 55.5278 40.1 55.3611 40.2667C55.1667 40.4333 55.0556 40.6667 55.0556 40.9667C55.0556 41.2667 55.1389 41.5 55.25 41.6667C55.3611 41.8333 55.5 41.9333 55.6111 42.0333C55.9167 42.2667 56.1111 42.4667 56.2222 42.6333C56.3333 42.8 56.3333 42.9 56.3611 43.0333C56.3611 43.3333 56.1667 43.5333 55.9444 43.5333C55.8056 43.5333 55.6667 43.5 55.5833 43.4C55.4722 43.3 55.4167 43.1333 55.3889 42.9V42.7667H55.1111H55V43.6333V43.6667L55.0278 43.7667L55.0556 43.8L55.1111 43.8333C55.3333 43.9333 55.5833 44 55.8611 44C56.1389 44 56.4167 43.9 56.6389 43.7333C56.8611 43.5667 57 43.2667 57 42.9333C57 42.7 56.9444 42.5 56.8611 42.3C56.75 42.1 56.6111 41.9333 56.3611 41.7333C56.1389 41.5333 55.9722 41.4 55.8611 41.2667C55.75 41.1333 55.6944 41.0333 55.6944 40.9C55.6944 40.7333 55.7222 40.6667 55.8056 40.6C55.8611 40.5333 55.9444 40.5 56.0556 40.5C56.1944 40.5 56.2778 40.5667 56.3611 40.6333C56.4167 40.7333 56.4722 40.8667 56.4722 41H56.6945H56.5833V40.9333Z" fill="#707070"/>
<path d="M57.8387 43.8868C58.2903 43.8302 58.2581 43.8585 58.2581 43.4623V42.8113L57.5161 41.5094C57.3548 41.2264 57.2258 41.1132 57 41.1132V41H58.2581V41.1132C57.9032 41.1132 57.9355 41.283 58.0323 41.5094L58.6129 42.5849L59.2903 41.5094C59.4516 41.2547 59.2903 41.1132 59 41.1132V41H60V41.1132C59.871 41.1132 59.7419 41.1698 59.6129 41.3679L58.8065 42.6698C58.7742 42.7547 58.7419 42.8679 58.7419 42.9811V43.4623C58.7419 43.8585 58.7097 43.8302 59.1613 43.8868V44H57.8387" fill="#707070"/>
<path d="M57.9118 43.7193L57.9412 43.8597C58.1176 43.8246 58.2353 43.8246 58.3235 43.7544L58.4118 43.5439C58.4118 43.4737 58.4118 43.4035 58.4118 43.2982V43.193V42.386V42.3509L57.7059 40.7018C57.6177 40.5263 57.5588 40.386 57.4706 40.2807C57.3824 40.1754 57.2647 40.1403 57.1177 40.1403V40.2807H57.2353V40.1403H57.1177V40.2807H58.2647V40.1403H58.1471V40.2807H58.2647V40.1403C58.1471 40.1403 58.0588 40.1404 58 40.2105C57.9118 40.2807 57.8824 40.386 57.8824 40.4561C57.8824 40.5965 57.9118 40.7018 57.9706 40.807L58.6176 42.386L59.3529 40.807C59.4118 40.7018 59.4412 40.5965 59.4412 40.4912C59.4412 40.3509 59.3824 40.2456 59.2941 40.1754C59.2059 40.1053 59.1177 40.1053 59 40.1053V40.2456H59.1176V40.1053H58.9706V40.2456H59.8824V40.1053H59.7647V40.2456H59.8824V40.1053C59.7059 40.1053 59.5294 40.2105 59.4118 40.4912L58.6765 42.1053C58.6176 42.2456 58.6176 42.421 58.6176 42.5614V43.1579V43.2632C58.6176 43.3684 58.6176 43.4386 58.6176 43.5088L58.6765 43.6491C58.7353 43.7193 58.7941 43.7544 58.8529 43.7544C58.9118 43.7544 59 43.7895 59.0882 43.7895L59.1176 43.6491H59V43.7895H59.1176V43.6491L57.9118 43.7193V43.8597H58.0294V43.7193H57.9118V43.579H57.7941V43.8597V44H59.2353V43.7193V43.579H59.1176C59.0294 43.579 58.9412 43.5439 58.9118 43.5439L58.8529 43.5088C58.8529 43.5088 58.8529 43.4386 58.8529 43.2982V43.193V42.5965C58.8529 42.4912 58.8529 42.3509 58.8824 42.2807L59.6177 40.6667C59.7353 40.4211 59.7941 40.4211 59.8824 40.4211H60V40.1403V40H58.8529V40.2807V40.4211H58.9706C59.0588 40.4211 59.1177 40.4561 59.1471 40.4561L59.1765 40.5263C59.1765 40.5614 59.1765 40.5965 59.1176 40.7018L58.6176 41.7895L58.1765 40.7018C58.1471 40.5965 58.1177 40.5263 58.1177 40.4912C58.1177 40.4912 58.1765 40.4561 58.2647 40.4561H58.3824V40.1754V40H57V40.2807V40.4211H57.1177C57.2059 40.4211 57.2353 40.4561 57.2941 40.4912C57.3529 40.5614 57.4118 40.6667 57.4706 40.807L58.1471 42.386V43.1579V43.2632C58.1471 43.3684 58.1471 43.4386 58.1471 43.4737V43.5088C58.1177 43.5088 58.0294 43.5439 57.8824 43.5439L57.9118 43.7193Z" fill="#707070"/>
<path d="M61.025 43.8598C61.375 43.8037 61.35 43.8318 61.35 43.4393V41.5327C61.35 41.1402 61.375 41.1682 61.025 41.1121V41H62.05V41.1121C61.7 41.1682 61.725 41.1402 61.725 41.5327V43.5234C61.725 43.8318 61.875 43.8598 62.2 43.8598C62.75 43.8598 62.725 43.6916 62.9 43.243H63L62.875 44H61" fill="#707070"/>
<path d="M61.1333 43.7193L61.1556 43.8597C61.2889 43.8246 61.3778 43.8246 61.4444 43.7544L61.5111 43.5439C61.5111 43.4737 61.5111 43.4035 61.5111 43.2982V43.193V40.807V40.7018C61.5111 40.5965 61.5111 40.5263 61.5111 40.4561L61.4667 40.3158C61.4222 40.2456 61.3778 40.2105 61.3333 40.2105C61.2889 40.2105 61.2222 40.1754 61.1556 40.1754V40.3158H61.2444V40.1754H61.1556V40.3158H62.0667V40.1754H61.9778V40.3158H62.0667V40.1754C61.9333 40.2105 61.8444 40.2105 61.7778 40.2807L61.7111 40.4912C61.7111 40.5614 61.7111 40.6316 61.7111 40.7368V40.8421V43.3333C61.7111 43.4386 61.7111 43.5439 61.7556 43.614C61.8 43.7544 61.8667 43.8246 61.9556 43.8597C62.0444 43.8947 62.1333 43.8947 62.2444 43.8947C62.4889 43.8947 62.6444 43.8246 62.7556 43.6842C62.8444 43.5088 62.8889 43.2982 62.9556 43.0175L62.8667 42.9474V43.0877H62.9556V42.9474L62.8667 42.9123L62.7778 43.7544L61.1333 43.7193V43.8597H61.2222V43.7193H61.1333H61.0444V43.8597V44H62.8667L63 42.7368H62.8H62.7333L62.7111 42.807C62.6222 43.0877 62.6 43.2982 62.5333 43.3684C62.4889 43.4386 62.4 43.5088 62.1556 43.5088C62 43.5088 61.9111 43.5088 61.8667 43.4737L61.8222 43.4035C61.8222 43.3684 61.8 43.3333 61.8 43.2281V40.7368V40.6316C61.8 40.5263 61.8 40.4561 61.8 40.4211V40.386C61.8222 40.386 61.8889 40.3509 62 40.3509H62.0889V40.0702V40H61V40.2807V40.4211H61.0889C61.1556 40.4211 61.2222 40.4561 61.2444 40.4561L61.2889 40.4912C61.2889 40.4912 61.2889 40.5614 61.2889 40.7018V40.807V43.193V43.2982C61.2889 43.4035 61.2889 43.4737 61.2889 43.5088V43.5439C61.2667 43.5439 61.2 43.579 61.0889 43.579H61V43.7193H61.1333Z" fill="#707070"/>
<path d="M64.1887 41.1132C63.9623 41.1132 63.7925 41.1698 63.934 41.5943C64.1038 42.1038 64.3585 42.8396 64.5849 43.4906C64.8679 42.8396 65.1226 42.1604 65.3774 41.5094C65.4906 41.2264 65.3774 41.1132 65.066 41.1132V41H66V41.1132C65.8868 41.1132 65.7453 41.1415 65.6321 41.3679C65.2642 42.2453 64.8962 43.1226 64.5566 44H64.3302C64.0755 43.2642 63.7642 42.4434 63.5094 41.7075C63.3396 41.2547 63.2264 41.1132 63 41.1132V41H64.1604" fill="#707070"/>
<path d="M64.2212 40.2807V40.1403C64.1416 40.1403 64.0354 40.1404 63.9558 40.2105C63.8761 40.2807 63.823 40.4211 63.823 40.5614C63.823 40.6667 63.8496 40.7719 63.8761 40.9123C64.0354 41.5439 64.2743 42.4561 64.4867 43.2632L64.5929 43.614L64.6991 43.2632C64.9646 42.4561 65.2035 41.614 65.4425 40.807C65.469 40.7018 65.4956 40.6316 65.4956 40.5263C65.4956 40.386 65.4425 40.2807 65.3628 40.2105C65.2832 40.1404 65.177 40.1053 65.0708 40.1053V40.2456H65.177V40.1053H65.0708V40.2456H65.9469V40.1053H65.8407V40.2456H65.9469V40.1053C65.8673 40.1053 65.7876 40.1053 65.708 40.1754C65.6283 40.2456 65.5487 40.3509 65.5221 40.4912C65.177 41.5789 64.8319 42.6667 64.5133 43.7544L64.6195 43.8246V43.6842H64.4071V43.8246L64.5133 43.7895C64.2743 42.8772 63.9823 41.8597 63.7434 40.9474C63.6637 40.6667 63.5841 40.4561 63.5044 40.3158C63.4248 40.1754 63.292 40.1053 63.1593 40.1053V40.2456H63.2655V40.1053H63.1327V40.2456L64.2212 40.2807V40.1403H64.115V40.2807V40.4211H64.2212V40.1403V40.2807H64.3274V40.1403V40H63V40.2807V40.4211H63.1062C63.1858 40.4211 63.2124 40.4561 63.2655 40.5263C63.3186 40.5965 63.3982 40.7719 63.4513 41.0526C63.6903 41.9649 63.9823 42.9825 64.2212 43.8947L64.2478 44H64.5398H64.6195L64.646 43.8947C64.9912 42.807 65.3363 41.7193 65.6549 40.6316C65.6814 40.5263 65.7345 40.4561 65.7611 40.4561L65.8938 40.4211H66V40.1403V40H64.9115V40.2807V40.4211H65.0177C65.0973 40.4211 65.177 40.4561 65.2035 40.4561L65.2301 40.5614C65.2301 40.5965 65.2301 40.6667 65.2035 40.7368C64.9646 41.5439 64.6991 42.386 64.4602 43.193L64.5664 43.2632L64.6726 43.2281C64.4602 42.4211 64.2212 41.5088 64.0619 40.8772C64.0354 40.7719 64.0088 40.6667 64.0088 40.6316C64.0088 40.5614 64.0088 40.5263 64.0354 40.5263C64.0619 40.4912 64.115 40.4912 64.1947 40.4912V40.2105V40.2807H64.2212Z" fill="#707070"/>
<path d="M66.8182 43.0278L66.6061 43.5833C66.5455 43.75 66.6364 43.8889 66.8485 43.8889V44H66V43.8889C66.1212 43.8889 66.2727 43.8056 66.3333 43.6667C66.5455 43.3056 67.0606 41.9167 67.4545 41H67.697C68 41.8333 68.4848 43.1389 68.6364 43.5278C68.7273 43.7778 68.8182 43.8889 69 43.8889V44H67.9394V43.8889C68.2424 43.8889 68.2727 43.75 68.1818 43.5556L67.9697 43L66.8182 43.0278ZM67.9394 42.8611L67.4545 41.5L66.9091 42.8611H67.9394Z" fill="#707070"/>
<path d="M66.7009 42.6896L66.5047 43.3793L66.4766 43.5517C66.4766 43.6552 66.5047 43.7586 66.5607 43.8276C66.6168 43.8966 66.7009 43.931 66.8131 43.931V43.7931H66.7009V43.931H66.8131V43.7931H66.028V43.931H66.1402V43.7931H66.028V43.931C66.1963 43.931 66.3645 43.7931 66.4486 43.5862C66.6449 43.1034 67.1215 41.4138 67.486 40.2414L67.3738 40.2069V40.3448H67.5981V40.2069L67.486 40.2414C67.7664 41.2759 68.215 42.8965 68.3551 43.3793C68.4112 43.5172 68.4393 43.6552 68.5234 43.7586C68.5794 43.8621 68.6916 43.931 68.8318 43.931V43.7931H68.7196V43.931H68.8318V43.7931H67.8505V43.931H67.9626V43.7931H67.8505V43.931C67.9626 43.931 68.0467 43.8966 68.1308 43.8276C68.215 43.7586 68.243 43.6552 68.243 43.5517C68.243 43.4828 68.215 43.3793 68.215 43.3103L68.0187 42.6207L67.9907 42.5172H66.8131V42.7931H67.8224L67.9907 43.3793L68.0187 43.5172V43.5517C68.0187 43.5517 67.9626 43.5862 67.8785 43.5862H67.7664V43.8621V44H69V43.7241V43.5862H68.8879C68.8318 43.5862 68.8037 43.5862 68.7757 43.5172C68.7477 43.4483 68.6916 43.3448 68.6636 43.2069C68.5234 42.7586 68.0748 41.1379 67.7944 40.1034L67.7664 40H67.4579H67.3738L67.3458 40.1034C66.9813 41.2414 66.5047 42.9655 66.3084 43.4138C66.2523 43.5517 66.1682 43.5862 66.1121 43.5862H66V43.8621V44H67.0093V43.7241V43.5862H66.8972L66.8131 43.5517L66.785 43.4828V43.4138L66.9813 42.7241L66.7009 42.6896ZM67.8505 42.5172L67.9626 42.4828L67.486 40.6897H67.3738H67.2897L66.7009 42.6896H67.9907L67.9346 42.5172H67.8505V42.3793H67.0374L67.486 40.8621L67.3738 40.8276L67.2617 40.8621L67.7103 42.5517L67.8505 42.5172Z" fill="#707070"/>
<path d="M72.3504 43.972C71.5299 43.1869 70.6752 42.3458 69.8205 41.5047V43.3832C69.8205 43.4673 69.8547 43.5514 69.8547 43.6075C69.8889 43.7757 70.0598 43.8318 70.4017 43.8318V43.9439H69.1368V43.8318C69.3761 43.8037 69.547 43.7477 69.5812 43.6075C69.5812 43.5514 69.6154 43.4673 69.6154 43.3832V41.3925C69.4786 41.2523 69.3077 41.1121 69 41.1121V41H69.9573C70.7436 41.757 71.5299 42.5421 72.3162 43.3271V41.5888C72.3162 41.5047 72.2821 41.4206 72.2821 41.3645C72.2479 41.2243 72.0769 41.1402 71.735 41.1402V41.028H73V41.1402C72.7607 41.1682 72.5897 41.2243 72.5556 41.3645C72.5556 41.4206 72.5214 41.5047 72.5214 41.5888V44" fill="#707070"/>
<path d="M72.264 43.8597L72.36 43.7544C71.592 42.7719 70.792 41.7193 69.992 40.6667L69.768 40.3509V43.0877C69.768 43.2281 69.8 43.3333 69.8 43.4035C69.8 43.5439 69.896 43.6491 70.024 43.7193C70.152 43.7895 70.28 43.7895 70.44 43.8246V43.6842H70.312V43.8246H70.44V43.6842H69.256V43.8246H69.384V43.6842H69.256V43.8246C69.384 43.8246 69.48 43.7895 69.608 43.7193C69.704 43.6491 69.8 43.5439 69.8 43.4035C69.8 43.3333 69.832 43.2281 69.832 43.0877V40.5263L69.8 40.4912C69.672 40.2807 69.48 40.0702 69.128 40.0702V40.2105H69.256V40.0702H69.128V40.2105H70.024V40.0702L69.928 40.1754C70.664 41.1228 71.4 42.1053 72.136 43.0877L72.168 43.1579H72.232H72.36V40.8421C72.36 40.7018 72.328 40.5965 72.328 40.5263C72.328 40.386 72.232 40.2807 72.104 40.2105C71.976 40.1404 71.848 40.1403 71.688 40.1053V40.2456H71.816V40.1053H71.688V40.2456H72.872V40.1053H72.744V40.2456H72.872V40.1053C72.744 40.1053 72.648 40.1404 72.52 40.2105C72.424 40.2807 72.328 40.386 72.328 40.5263C72.328 40.5965 72.296 40.7018 72.296 40.8421V43.7193H72.264V43.8597H72.392V43.7895L72.36 43.7544L72.264 43.8597H72.136V44H72.424H72.552V40.8421C72.552 40.7368 72.584 40.6667 72.584 40.5614L72.648 40.4561C72.68 40.421 72.776 40.386 72.872 40.386H73V40.1053V40H71.56V40.2807V40.4211H71.688C71.848 40.4211 71.944 40.4561 72.008 40.4912L72.072 40.5965C72.072 40.7018 72.104 40.7719 72.104 40.8772V43.0526H72.232L72.328 42.9474C71.592 42 70.856 41.0175 70.12 40.0351L70.088 40H69V40.2807V40.4211H69.128C69.352 40.4211 69.448 40.5263 69.576 40.7368L69.672 40.6316H69.544V43.1228C69.544 43.2281 69.544 43.2983 69.512 43.4035L69.448 43.5088C69.416 43.5439 69.32 43.579 69.224 43.579H69.096V43.8597V44H70.536V43.7193V43.579H70.408C70.248 43.579 70.152 43.5439 70.088 43.5088L70.024 43.4035C70.024 43.2983 69.992 43.2281 69.992 43.1228V40.7719H69.864L69.768 40.8772C70.568 41.8947 71.368 42.9474 72.136 43.9649L72.264 43.8597Z" fill="#707070"/>
<path d="M74.6829 43.4623C74.6829 43.8585 74.6585 43.8302 75 43.8868V44H74V43.8868C74.3415 43.8302 74.3171 43.8585 74.3171 43.4623V41.5377C74.3171 41.1415 74.3415 41.1698 74 41.1132V41H75V41.1132C74.6585 41.1698 74.6829 41.1415 74.6829 41.5377" fill="#707070"/>
<path d="M74.3061 43.193H74.1429V43.2982C74.1429 43.4035 74.1429 43.4737 74.1429 43.5439L74.2245 43.6842C74.3061 43.7544 74.3878 43.7895 74.4694 43.7895C74.551 43.7895 74.6735 43.8246 74.7959 43.8246V43.6842H74.6735V43.8246H74.8367V43.6842H73.1633V43.8246H73.3265V43.6842H73.1633V43.8246C73.4082 43.7895 73.5714 43.7895 73.6939 43.7193L73.8163 43.5088C73.8163 43.4386 73.8163 43.3684 73.8163 43.2632V43.1579V40.7719V40.6667C73.8163 40.5614 73.8163 40.4912 73.8163 40.4211L73.7347 40.2807C73.6531 40.2105 73.5714 40.1754 73.4898 40.1754C73.4082 40.1754 73.2857 40.1403 73.1633 40.1403V40.2807H73.3265V40.1403H73.1633V40.2807H74.8367V40.1403H74.6735V40.2807H74.8367V40.1403C74.5918 40.1754 74.4286 40.1754 74.3061 40.2456L74.1837 40.4561C74.1837 40.5263 74.1837 40.5965 74.1837 40.7018V40.807V43.193H74.3061H74.4694V40.807V40.7018C74.4694 40.5965 74.4694 40.5614 74.4694 40.5263V40.4912C74.5102 40.4912 74.6327 40.4561 74.8367 40.4561H75V40.1754V40H73V40.2807V40.4211H73.1633C73.2857 40.4211 73.4082 40.4561 73.449 40.4561L73.5306 40.4912C73.5306 40.4912 73.5306 40.5614 73.5306 40.7018V40.807V43.193V43.2982C73.5306 43.4035 73.5306 43.4737 73.5306 43.5088V43.5439C73.4898 43.5439 73.3673 43.579 73.1633 43.579H73V43.8597V44H75V43.7193V43.579H74.8367C74.7143 43.579 74.6327 43.5439 74.551 43.5439L74.4694 43.5088C74.4694 43.5088 74.4694 43.4386 74.4694 43.2982V43.193H74.3061Z" fill="#707070"/>
<path d="M75.8182 43.0278L75.6061 43.5833C75.5455 43.75 75.6364 43.8889 75.8485 43.8889V44H75V43.8889C75.1212 43.8889 75.2424 43.8056 75.3333 43.6667C75.5152 43.3056 76.0606 41.9167 76.4545 41H76.697C77 41.8333 77.4848 43.1389 77.6364 43.5278C77.7273 43.7778 77.8182 43.8889 78 43.8889V44H76.9394V43.8889C77.2424 43.8889 77.2424 43.75 77.1818 43.5556L76.9697 43L75.8182 43.0278ZM76.9091 42.8611L76.4242 41.5L75.8788 42.8611H76.9091Z" fill="#707070"/>
<path d="M75.7009 42.7008L75.5047 43.3846L75.4766 43.5555C75.4766 43.6581 75.5047 43.7607 75.5607 43.8291C75.6168 43.8974 75.7009 43.9316 75.8131 43.9316V43.7949H75.7009V43.9316H75.8131V43.7949H75.028V43.9316H75.1402V43.7949H75.028V43.9316C75.1963 43.9316 75.3645 43.7949 75.4486 43.5897C75.6449 43.1111 76.1215 41.4359 76.486 40.2735L76.3738 40.2393V40.3761H76.5981V40.2393L76.486 40.2735C76.7664 41.2991 77.215 42.906 77.3551 43.3846C77.4112 43.5214 77.4393 43.6581 77.5234 43.7607C77.5794 43.8632 77.6916 43.9316 77.8318 43.9316V43.7949H77.7196V43.9316H77.8318V43.7949H76.8505V43.9316H76.9626V43.7949H76.8505V43.9316C76.9626 43.9316 77.0467 43.8974 77.1308 43.8291C77.215 43.7607 77.243 43.6581 77.243 43.5555C77.243 43.4872 77.215 43.3846 77.215 43.3162L77.0187 42.6325L76.9907 42.5299H75.8131V42.8034H76.8224L76.9907 43.3846L77.0187 43.5214V43.5555C77.0187 43.5555 76.9626 43.5897 76.8785 43.5897H76.7664V43.8632V44H78V43.7265V43.5897H77.8879C77.8318 43.5897 77.8037 43.5897 77.7757 43.5214C77.7477 43.453 77.6916 43.3504 77.6636 43.2137C77.5234 42.7692 77.0748 41.1624 76.7944 40.1026L76.7664 40H76.4579H76.3738L76.3458 40.1026C75.9813 41.2308 75.4766 42.9402 75.3084 43.3846C75.2523 43.5214 75.1682 43.5555 75.1121 43.5555H75V43.8291V43.9658H76.0093V43.6923V43.5555H75.8972L75.8131 43.5214L75.785 43.453V43.3846L75.9813 42.7008H75.7009ZM76.8224 42.5299L76.9346 42.4957L76.4579 40.718H76.3738H76.2897L75.7009 42.7008H76.9907L76.9346 42.5299H76.8224V42.3932H76.0093L76.4579 40.8889L76.3458 40.8547L76.2336 40.8889L76.6822 42.5641L76.8224 42.5299Z" fill="#707070"/>
<path d="M29.0001 0H49V9.37605C48.8547 17.0267 39.7264 21.045 38.5884 20.9996C37.402 20.9542 28.9758 17.0267 29.0001 9.33064C29.0001 9.19443 29.0001 0 29.0001 0Z" fill="white"/>
<path d="M30.0001 0H48V9.36772C47.8856 17.0192 39.6519 21.0237 38.6226 20.9999C37.5477 20.9522 29.9772 17.0192 30.0001 9.34388C30.0001 9.20086 30.0001 0 30.0001 0Z" fill="white"/>
<path d="M30 6V0H48V6" fill="#8A8A8A"/>
<path d="M30.0681 5.92653H30.1362V0.14694H47.8411V5.85306H30.0681V5.92653H30.1362H30.0681V6H48V0H30V6H30.0681V5.92653Z" fill="#8A8A8A"/>
<path d="M31 14.0988C31.6957 15.679 32.5768 16.9383 33.7826 18L39.0928 12.2716L44.1942 17.8519C45.2377 16.8148 46.2812 15.5803 47 14.1235L39.0696 6L31.0232 14.0988" fill="#707070"/>
<path d="M30.2176 14.0405L30.1451 14.0648C30.8706 15.6194 31.7895 16.8826 33.0711 17.9514L33.1195 18L38.6572 12.3887L43.9772 17.8785L44.0256 17.83C45.138 16.8097 46.202 15.5951 46.9758 14.1377L47 14.0891L38.633 6L30.1693 14.0405L30.2176 14.0891L30.2418 14.0162L30.1935 13.9919L30 13.8947L30.0967 14.0891L30.2176 14.0405L30.1935 14.1134L30.2418 14.1377L30.2902 14.1619L38.6814 6.19433L46.9033 14.1377L46.9516 14.0891L46.8791 14.0405C46.1294 15.4737 45.0654 16.6883 43.9531 17.7085L44.0014 17.7814L44.0498 17.7328L38.6572 12.17L33.0711 17.8542L33.1195 17.9028L33.1679 17.83C31.9104 16.7854 31.0156 15.5466 30.2902 14.0162L30.2176 14.0405Z" fill="#707070"/>
<path d="M43.2956 1.35374H43.8569C44.2846 1.2449 44.4182 1 44.8459 1C45.1667 1 45.3003 1.21769 45.5409 1.21769C45.728 1.21769 46.022 1 46.3428 1C46.6635 1 46.8239 1.19047 47.0645 1.29932C47.2516 1.38095 47.5189 1.38095 47.7862 1.38095C47.7862 1.57143 47.7862 1.68027 47.7862 1.84354C47.7862 2.0068 48 1.95238 48 2.22449C48 2.52381 47.706 2.44218 47.706 2.57823V3.63946C47.7327 3.77551 47.9733 3.80272 47.9733 3.9932C47.9733 4.29252 47.6792 4.18367 47.706 4.42857C47.7327 4.59184 47.706 4.97279 47.706 4.97279C47.1447 4.97279 43.5094 5 43.3223 5C43.3223 4.61905 43.4025 4.61905 43.4025 4.42857C43.4025 4.2653 43.0818 4.18367 43.0818 3.91156C43.0818 3.72109 43.2956 3.7483 43.2956 3.58503V2.52381C43.2956 2.38775 42.9749 2.30612 43.0016 2.11564C43.0283 1.87075 43.2956 1.89796 43.2956 1.76191C43.2956 1.68027 43.3223 1.43538 43.2956 1.35374Z" fill="white"/>
<path d="M43.3347 1.39216V1.47059H43.8754C44.0814 1.4183 44.2359 1.33987 44.3646 1.26144C44.4933 1.18301 44.6221 1.13072 44.8023 1.13072C44.931 1.13072 45.034 1.183 45.1113 1.20915C45.2143 1.26143 45.3172 1.31372 45.446 1.31372C45.5747 1.31372 45.6777 1.26143 45.8322 1.20915C45.9609 1.15686 46.0897 1.10457 46.2441 1.10457C46.5274 1.10457 46.6561 1.26144 46.8878 1.39216C47.0681 1.47059 47.2998 1.47059 47.5315 1.47059H47.6087V1.39216H47.5315C47.5315 1.44444 47.5315 1.52288 47.5315 1.57516C47.5315 1.67974 47.5315 1.75817 47.5315 1.86274C47.5315 1.91503 47.5572 1.96732 47.583 2.01961L47.686 2.09804C47.7117 2.12418 47.7117 2.15033 47.7375 2.22876C47.7375 2.33333 47.7117 2.33333 47.6602 2.38562L47.5572 2.43791C47.5315 2.46405 47.48 2.51634 47.48 2.56863V3.58824C47.48 3.64052 47.5315 3.69281 47.5572 3.71896C47.6087 3.77124 47.6602 3.79738 47.686 3.82353L47.7375 3.90196C47.7375 3.95425 47.7375 3.98039 47.7117 4.00654C47.686 4.03268 47.6602 4.05882 47.6087 4.08497C47.5572 4.11111 47.48 4.18954 47.48 4.29412V4.32026C47.48 4.37255 47.48 4.45098 47.48 4.52941C47.48 4.68628 47.48 4.84314 47.48 4.84314H47.5572V4.76471C47.0681 4.76471 44.1586 4.79085 43.4634 4.79085C43.3862 4.79085 43.3347 4.79085 43.3347 4.79085V4.86928H43.412C43.412 4.68627 43.4377 4.60784 43.4377 4.55556C43.4635 4.50327 43.4634 4.45098 43.4892 4.3464V4.32026C43.4892 4.24183 43.4634 4.18954 43.412 4.1634C43.3605 4.11111 43.2832 4.05883 43.2575 4.00654C43.206 3.95425 43.1802 3.90196 43.1802 3.84967C43.1802 3.79739 43.206 3.79739 43.2575 3.7451C43.309 3.71896 43.3862 3.64052 43.412 3.53595V2.51634C43.3862 2.38562 43.2832 2.33333 43.2317 2.28105C43.1545 2.22876 43.1287 2.17647 43.1287 2.15033C43.1287 2.07189 43.1545 2.07189 43.2317 2.01961L43.3347 1.94117C43.3605 1.91503 43.412 1.86275 43.412 1.78431C43.412 1.73203 43.412 1.54902 43.412 1.47059V1.4183L43.3347 1.39216H43.2575V1.44444C43.2575 1.54902 43.2575 1.70588 43.2575 1.75817V1.78431C43.2317 1.81046 43.1802 1.8366 43.1287 1.86274C43.0772 1.91503 43 1.99346 43 2.09804V2.12418C43 2.28104 43.103 2.35948 43.1802 2.41176L43.2832 2.4902L43.309 2.51634V3.53595C43.309 3.56209 43.2832 3.58824 43.2317 3.64052C43.1802 3.66667 43.103 3.7451 43.103 3.87582C43.103 4.03268 43.206 4.13725 43.2832 4.21569L43.3862 4.32026L43.412 4.37255C43.412 4.45098 43.3862 4.47712 43.3862 4.55556C43.3605 4.63399 43.3605 4.73857 43.3347 4.92157V5H43.412C43.4377 5 43.4892 5 43.5407 5C44.2101 5 47.1453 4.97386 47.6345 4.97386H47.7117V4.89543C47.7117 4.89543 47.7117 4.73856 47.7117 4.5817C47.7117 4.50327 47.7117 4.42484 47.7117 4.37255L47.7375 4.32026C47.7632 4.29412 47.8147 4.26798 47.8662 4.24183C47.9177 4.18954 47.9949 4.11111 47.9949 3.98039C47.9949 3.84967 47.892 3.7451 47.8147 3.71896L47.7375 3.66667L47.7117 3.64052V2.62092H47.686L47.7117 2.64706V2.62092H47.686L47.7117 2.64706C47.7117 2.64706 47.789 2.62092 47.8662 2.56863C47.9435 2.51634 48.0207 2.43791 47.9949 2.28105C47.9949 2.12418 47.9177 2.01961 47.8405 1.99346L47.789 1.94117V1.91503C47.789 1.81046 47.789 1.73203 47.789 1.62745C47.789 1.57516 47.789 1.52287 47.789 1.47059V1.36601H47.686H47.6087C47.377 1.36601 47.171 1.36601 47.0166 1.28758C46.8363 1.20915 46.6561 1 46.2956 1C46.1154 1 45.9609 1.05229 45.8322 1.10457C45.7035 1.15686 45.5747 1.20915 45.5232 1.20915C45.446 1.20915 45.3687 1.18301 45.2657 1.13072C45.1628 1.07843 45.034 1.02614 44.8795 1.02614C44.6478 1.02614 44.4933 1.10457 44.3646 1.15686C44.2101 1.23529 44.0814 1.31372 43.9012 1.33987L43.9269 1.4183V1.33987H43.3862H43.2832V1.44444L43.3347 1.39216Z" fill="#707070"/>
<path d="M44 1C44 1 44 2.05406 44 2.91892C44 3.35135 44 3.72973 44 3.91892V4H44.0652C44.0652 4 44.8261 4 45.5435 4C46.2174 4 46.8696 4 46.9348 4H47V3.91892C47 3.2973 47 1 47 1H46.8478C46.8478 1 46.8478 3.2973 46.8478 3.91892H46.913V3.83784C46.8696 3.83784 46.1957 3.83784 45.5217 3.83784C44.7826 3.83784 44.0435 3.83784 44.0435 3.83784V3.91892H44.1087C44.1087 3.72973 44.1087 3.35135 44.1087 2.91892C44.1087 2.05406 44.1087 1 44.1087 1H44Z" fill="#707070"/>
<path d="M45.5 4.1875V4.375L45.6364 4.4375L45.6818 4.5L45.6364 4.56249L45.5 4.625L45.3636 4.56249L45.3182 4.5L45.3636 4.4375L45.5 4.375V4.1875V4C45.3636 4 45.2727 4.0625 45.1818 4.125C45.0909 4.1875 45 4.375 45 4.5C45 4.6875 45.0909 4.81249 45.1818 4.87499C45.2727 4.93749 45.3636 5 45.5 5C45.6364 5 45.7273 4.93749 45.8182 4.87499C45.9091 4.81249 46 4.625 46 4.5C46 4.3125 45.9091 4.1875 45.8182 4.125C45.7273 4.0625 45.6364 4 45.5 4V4.1875Z" fill="#707070"/>
<path d="M35.2324 4.59256C35.2789 4.77562 35.4184 4.91292 35.6741 4.91292C36.1158 4.91292 36.5342 4.59256 36.7899 4.4095C36.9991 4.27221 37.2083 4.11203 37.2083 3.81456L37.1618 3.92897C37.1618 3.92897 37.5105 3.58573 38.3705 3.86032C38.603 3.92897 39.6257 4.50103 39.8349 4.59256C40.0209 4.66121 40.695 5.14175 41.7178 4.95869C41.7178 4.95869 43.2984 4.75274 42.9498 3.15096C42.6941 2.00683 42.7871 1.9153 42.88 1.54918C42.8335 1.5263 41.9037 1.32036 41.9502 2.60178C41.5551 2.64754 41.0437 2.94502 41.3691 3.72302C41.5086 3.51708 41.6945 3.31114 41.927 3.31114C42.0897 3.31114 42.2524 3.53997 42.2524 3.70014C42.2757 4.08915 41.8573 4.27221 41.3691 4.20356C41.1134 4.15779 40.881 3.8832 40.5323 3.6315C40.602 3.60861 40.6485 3.40267 40.6485 3.31114C40.6485 3.10519 40.4626 3.01367 40.3463 2.94502C40.3696 2.87637 40.4161 2.78484 40.4161 2.71619C40.4161 2.55601 40.1836 2.55601 40.0906 2.51025C40.1371 2.46448 40.1371 2.48737 40.1371 2.41872C40.1371 2.18989 40.1836 2.0526 39.6955 2.07548C39.742 1.84665 39.6955 1.68648 39.5328 1.64071L39.1841 1.59494C38.9516 1.54918 39.1841 1.48053 38.9749 1.29747C38.7889 1.11441 38.4867 1.29747 38.4867 1.29747C38.4867 1.1373 38.3705 1 38.1846 1C38.0683 1 37.9521 0.999999 37.8824 1.04576L37.7429 1.16018C37.5569 1.16018 37.5105 1 37.3012 1C37.092 1 36.9991 1.16018 36.9061 1.27459C36.7666 1.20594 36.7434 1.09153 36.5574 1.09153C36.4412 1.09153 36.4179 1.20594 36.3715 1.27459C36.2552 1.41189 36.2552 1.54918 36.046 1.61783L35.9763 1.48053V1.45765C35.6973 1.59495 35.0232 3.05943 35.0232 3.37979C35.0232 3.67726 35.2789 3.53996 35.2789 3.83744C35.2789 4.0205 35 4.15779 35 4.29509C35 4.50103 35.2324 4.59256 35.4417 4.59256" fill="white"/>
<path d="M35.4056 4.60656L35.338 4.62842C35.3831 4.847 35.5634 5 35.8338 4.97814C36.307 4.97814 36.7127 4.65027 36.9606 4.47541C37.1634 4.34426 37.3887 4.1694 37.3887 3.84153L37.231 3.81967L37.1859 3.92896L37.3211 3.99453C37.3437 3.97268 37.5014 3.84153 37.8394 3.84153C37.9972 3.84153 38.1775 3.86339 38.4028 3.92896C38.493 3.95082 38.8085 4.10382 39.1014 4.25683C39.3944 4.40983 39.7099 4.56284 39.8225 4.60656C39.8901 4.62841 40.0479 4.7377 40.2958 4.82514C40.5437 4.91257 40.8592 5 41.2423 5C41.3775 5 41.5352 4.97814 41.7155 4.95628L41.693 4.89071V4.95628C41.693 4.95628 42.0085 4.91257 42.3465 4.71585C42.662 4.51913 43 4.1694 43 3.57924C43 3.44809 42.9775 3.29508 42.9549 3.14208C42.8423 2.59563 42.7972 2.31148 42.7972 2.11476C42.7972 1.91803 42.8423 1.8306 42.8873 1.65574L42.9099 1.59016L42.8423 1.56831L42.7746 1.54645C42.7296 1.54645 42.6845 1.54645 42.6394 1.54645C42.5042 1.54645 42.2789 1.59016 42.1211 1.74317C41.9408 1.89617 41.8282 2.15847 41.8282 2.59563V2.63934H41.8958V2.57377C41.738 2.59563 41.5577 2.63934 41.4 2.74863C41.2648 2.85792 41.1521 3.03279 41.1521 3.27322C41.1521 3.40437 41.1972 3.55738 41.2648 3.73224L41.3099 3.86339L41.4 3.7541C41.5352 3.55738 41.693 3.38251 41.8958 3.40437C41.9408 3.40437 42.0085 3.44809 42.0535 3.4918C42.0986 3.55738 42.1437 3.64481 42.1437 3.68852V3.71038C42.1437 3.84153 42.0986 3.92896 41.9859 3.99453C41.8958 4.06011 41.738 4.10382 41.5803 4.10382C41.5127 4.10382 41.4451 4.10383 41.3549 4.08197C41.1521 4.06011 40.9042 3.79782 40.5662 3.53552L40.5211 3.60109L40.5437 3.66667L40.6113 3.57924C40.6563 3.4918 40.7014 3.36066 40.7014 3.29508C40.7014 3.18579 40.6563 3.0765 40.5887 3.01093C40.5211 2.94535 40.4535 2.90164 40.3859 2.87978L40.3408 2.94535L40.4085 2.96721C40.431 2.90164 40.4761 2.81421 40.4761 2.72677C40.4761 2.6612 40.4535 2.61749 40.4085 2.59563C40.3634 2.55191 40.2958 2.53005 40.2282 2.5082C40.1831 2.48634 40.1155 2.48634 40.1155 2.46448L40.0704 2.53005L40.138 2.57377L40.1831 2.53005L40.2056 2.44262V2.35519C40.2056 2.26776 40.2056 2.18033 40.1155 2.11476C40.0479 2.04918 39.9352 2.02732 39.7549 2.02732H39.6873V2.0929L39.7549 2.11476C39.7549 2.07104 39.7775 2.00546 39.7775 1.96175C39.7775 1.80874 39.7099 1.65574 39.5521 1.59016L39.1915 1.54645V1.61202L39.2141 1.54645H39.169L39.1465 1.56831H39.169V1.54645L39.1465 1.56831H39.169V1.52459C39.169 1.45901 39.1465 1.37159 39.0563 1.28415C38.9887 1.21858 38.8761 1.19672 38.8085 1.19672C38.6507 1.19672 38.5155 1.28415 38.493 1.28415L38.538 1.34973H38.6056C38.6056 1.2623 38.5606 1.17486 38.5155 1.10929C38.4479 1.04372 38.3577 1 38.2451 1C38.1324 1 37.9972 0.999999 37.907 1.04372L37.7493 1.153L37.7944 1.21858V1.153C37.7268 1.153 37.7042 1.13115 37.6366 1.08743C37.569 1.04371 37.5014 1 37.3662 1C37.231 1 37.1408 1.04372 37.0732 1.10929C37.0056 1.17486 36.9606 1.24044 36.9155 1.28415L36.9831 1.32787L37.0056 1.26229C36.9606 1.24044 36.9155 1.19672 36.8704 1.153C36.8254 1.10929 36.7352 1.06557 36.6225 1.06557C36.5324 1.06557 36.4873 1.10929 36.4423 1.153C36.3972 1.19672 36.3972 1.24044 36.3746 1.26229C36.307 1.34973 36.262 1.4153 36.2394 1.45902C36.1944 1.50273 36.1718 1.54645 36.1042 1.56831L36.1268 1.63388L36.1944 1.59016L36.1268 1.48087V1.45902L36.1042 1.37158L36.0141 1.4153C35.9014 1.45901 35.8338 1.59016 35.7211 1.74317C35.5634 1.98361 35.4056 2.31147 35.2704 2.61748C35.1352 2.9235 35.0451 3.18579 35.0451 3.31694C35.0451 3.40437 35.0676 3.44809 35.0901 3.51366C35.1352 3.57923 35.2028 3.60109 35.2254 3.62295C35.2479 3.64481 35.2704 3.66667 35.2704 3.77596C35.2704 3.81967 35.2254 3.88525 35.1577 3.95082C35.0901 4.01639 35 4.10382 35 4.21311C35 4.34426 35.0901 4.43169 35.1803 4.49727C35.2704 4.56284 35.3831 4.5847 35.4958 4.5847V4.51913L35.4732 4.45355L35.338 4.49727L35.2704 4.51913L35.293 4.5847L35.4056 4.60656L35.4282 4.67213L35.5634 4.62842L35.5408 4.47541C35.4507 4.47541 35.3606 4.45355 35.293 4.40984C35.2254 4.36612 35.2028 4.3224 35.2028 4.25683C35.2028 4.23497 35.2479 4.1694 35.3155 4.08197C35.3831 4.01639 35.4732 3.92896 35.4732 3.79781C35.4732 3.62295 35.3831 3.53552 35.3155 3.51366L35.2479 3.46995C35.2254 3.44809 35.2254 3.42623 35.2254 3.36066C35.2254 3.31694 35.2704 3.16394 35.3155 2.98907C35.4056 2.72678 35.5634 2.39891 35.7211 2.11476C35.7887 1.98361 35.8789 1.85246 35.9465 1.76503C36.0141 1.6776 36.0817 1.61202 36.1042 1.59016L36.0817 1.52459L36.0141 1.54645V1.56831L36.0817 1.69945L36.1042 1.74317L36.1718 1.72131C36.2845 1.6776 36.3521 1.61202 36.3972 1.54645C36.4423 1.48087 36.4648 1.4153 36.5099 1.37158L36.5775 1.26229L36.6451 1.21858C36.7352 1.21858 36.7577 1.24044 36.7803 1.26229C36.8254 1.28415 36.8704 1.34973 36.9606 1.39344L37.0056 1.4153L37.0507 1.37158C37.0958 1.30601 37.1408 1.2623 37.1859 1.21858C37.231 1.17486 37.2761 1.153 37.3662 1.153C37.4563 1.153 37.4789 1.17486 37.5465 1.21858C37.6141 1.2623 37.6817 1.30601 37.7944 1.30601H37.8169L37.9746 1.17486C38.0197 1.15301 38.1324 1.13115 38.2451 1.13115C38.4028 1.13115 38.4704 1.21858 38.4704 1.32787V1.45902L38.5831 1.39344H38.6056C38.6507 1.37159 38.7408 1.32787 38.8085 1.32787C38.8761 1.32787 38.9211 1.34973 38.9662 1.37158C39.0338 1.43716 39.0338 1.45902 39.0338 1.50273V1.54645L39.0789 1.65574C39.1239 1.6776 39.1465 1.69945 39.2141 1.69945L39.5746 1.74317V1.6776L39.5521 1.74317C39.6423 1.78688 39.6873 1.8306 39.6873 1.96175C39.6873 2.00546 39.6873 2.02732 39.6648 2.07104L39.6423 2.15847H39.7324H39.8C39.9577 2.15847 40.0479 2.18033 40.0704 2.20219C40.093 2.22404 40.093 2.2459 40.093 2.33333V2.42076V2.44262V2.46448L40.0704 2.5082L40.0254 2.57377L40.093 2.61748C40.1606 2.6612 40.2507 2.6612 40.2958 2.68306L40.3634 2.70492L40.3859 2.74863C40.3859 2.79235 40.3408 2.87978 40.3183 2.94535L40.2958 3.01093L40.3408 3.03279C40.4085 3.05465 40.4761 3.09836 40.5211 3.14208C40.5662 3.18579 40.5887 3.22951 40.5887 3.31694C40.5887 3.3388 40.5662 3.40437 40.5662 3.46995L40.5437 3.53552L40.5211 3.55738L40.5437 3.57924V3.55738L40.5662 3.57924V3.55738L40.4535 3.60109L40.5662 3.66667C40.9042 3.9071 41.1296 4.1694 41.4225 4.23497C41.5127 4.25683 41.5803 4.25683 41.6704 4.25683C41.8732 4.25683 42.031 4.21311 42.1662 4.12568C42.3014 4.03825 42.3916 3.9071 42.369 3.73224V3.68852C42.369 3.57924 42.3239 3.4918 42.2338 3.40437C42.1662 3.31694 42.0761 3.25137 41.9634 3.25137C41.6704 3.25137 41.4901 3.4918 41.3549 3.66667L41.4225 3.71038L41.4901 3.68852C41.4225 3.53552 41.4 3.38251 41.4 3.27322C41.4 3.0765 41.4676 2.94535 41.6028 2.85792C41.7155 2.77049 41.8732 2.72678 42.0085 2.70492H42.0761V2.63934V2.59563C42.0761 2.18033 42.1887 1.96175 42.3239 1.85246C42.4592 1.74317 42.6169 1.69945 42.7296 1.69945H42.8423H42.8648V1.6776L42.8423 1.69945V1.6776L42.8197 1.69945L42.8423 1.63388L42.7746 1.61202C42.7296 1.78689 42.6845 1.89618 42.6845 2.11476C42.6845 2.33333 42.7296 2.61748 42.8423 3.16393C42.8648 3.31694 42.8873 3.44809 42.8873 3.57924C42.8873 4.12568 42.5944 4.43169 42.3014 4.60656C42.1437 4.69399 42.0085 4.75956 41.8958 4.78142C41.8507 4.80328 41.7831 4.80328 41.7606 4.82514H41.7155C41.5577 4.84699 41.4225 4.86885 41.2873 4.86885C40.9268 4.86885 40.6338 4.78142 40.4085 4.69399C40.1831 4.60656 40.0254 4.51912 39.9352 4.47541C39.8451 4.43169 39.5296 4.27869 39.2366 4.12568C38.9437 3.97268 38.6282 3.81967 38.493 3.77596C38.2451 3.71038 38.0423 3.66667 37.8845 3.66667C37.4563 3.66667 37.2535 3.84153 37.2535 3.86339L37.2986 3.9071L37.3662 3.92896L37.4113 3.81967L37.3437 3.79781H37.231C37.231 4.06011 37.0732 4.1694 36.8704 4.30055C36.6225 4.47541 36.2169 4.78142 35.8338 4.75956C35.631 4.75956 35.5408 4.67213 35.4958 4.51913L35.4056 4.60656Z" fill="#707070"/>
<path d="M37.0845 3.48837C37.1901 3.44186 37.2113 3.32558 37.2535 3.27907C37.2746 3.23256 37.2746 3.2093 37.3803 3.2093C37.4648 3.2093 37.5282 3.23256 37.5915 3.27907C37.6549 3.32558 37.7394 3.37209 37.8662 3.37209C37.9507 3.37209 38.0141 3.32558 38.0775 3.30233C38.1408 3.27907 38.1831 3.23256 38.2676 3.23256C38.3099 3.23256 38.3944 3.27907 38.4366 3.34884C38.5 3.4186 38.5423 3.51163 38.5423 3.62791V3.67442L38.5211 3.7907L38.6268 3.74418L38.669 3.72093C38.6901 3.72093 38.7324 3.69767 38.7746 3.69767C38.838 3.69767 38.9225 3.72093 38.9648 3.76744C39.007 3.81395 39.0704 3.90698 39.0704 4.06977V4.11628V4.23256L39.1761 4.18605C39.2394 4.16279 39.3028 4.13953 39.3451 4.13953C39.3873 4.13953 39.4296 4.16279 39.4507 4.16279C39.4718 4.18605 39.493 4.25581 39.5141 4.32558C39.5352 4.39535 39.5352 4.48837 39.5563 4.55814C39.5775 4.62791 39.6197 4.67442 39.662 4.69767C39.7254 4.74419 39.7887 4.74419 39.8099 4.76744C39.831 4.7907 39.8521 4.81395 39.8521 4.90697V4.97674L40 5V4.90697C40 4.81395 39.9789 4.74419 39.9366 4.69767C39.8732 4.62791 39.8099 4.60465 39.7676 4.58139C39.7254 4.55814 39.7042 4.55814 39.7042 4.53488C39.6831 4.46512 39.6831 4.34884 39.6408 4.23256C39.6197 4.18605 39.5986 4.11628 39.5563 4.06977C39.5141 4.02326 39.4507 4 39.3662 4C39.3028 4 39.2394 4.02326 39.1549 4.04651L39.1761 4.11628H39.2394V4.06977C39.2394 3.86047 39.1761 3.72093 39.0915 3.62791C39.007 3.53488 38.9014 3.53488 38.7958 3.53488C38.6901 3.53488 38.6056 3.55814 38.5845 3.55814L38.6056 3.62791H38.669V3.55814C38.669 3.39535 38.6056 3.27907 38.5423 3.18605C38.4577 3.09302 38.3732 3.02326 38.2676 3.02326C38.162 3.02326 38.0775 3.06977 38.0141 3.09302C37.9507 3.13953 37.9085 3.16279 37.8662 3.16279C37.7817 3.16279 37.7394 3.13953 37.6549 3.09302C37.5915 3.04651 37.4859 3 37.3592 3C37.2113 3 37.1268 3.06977 37.1056 3.16279C37.0634 3.23256 37.0634 3.27907 37 3.30233L37.0845 3.48837Z" fill="#707070"/>
<path d="M30.2151 1.35617H30.6642C31.0063 1.24658 31.1132 1 31.4767 1C31.7333 1 31.8403 1.21918 32.0327 1.21918C32.1824 1.21918 32.4176 1 32.6742 1C32.9308 1 33.0591 1.19178 33.2516 1.30137C33.4013 1.38356 33.6151 1.38356 33.8289 1.38356C33.8289 1.57534 33.8289 1.68493 33.8289 1.84932C33.8289 2.0137 34 1.9589 34 2.23288C34 2.53425 33.7648 2.45205 33.7648 2.58904V3.65754C33.7648 3.79452 33.9786 3.82192 33.9786 4.0137C33.9786 4.31507 33.7434 4.20548 33.7648 4.45205C33.7862 4.61644 33.7648 5 33.7648 5C33.3157 5 30.4717 5 30.322 5C30.322 4.61644 30.322 4.67123 30.322 4.45205C30.322 4.28767 30.0654 4.20548 30.0654 3.93151C30.0654 3.76713 30.2365 3.76712 30.2365 3.60274V2.53425C30.2365 2.39726 29.9799 2.31507 30.0013 2.12329C30.0013 1.87671 30.2365 1.90411 30.2365 1.76712C30.2151 1.68493 30.2151 1.41096 30.2151 1.35617Z" fill="white"/>
<path d="M30.3347 1.44444V1.52288H30.8754C31.0814 1.47059 31.2359 1.39216 31.3646 1.31372C31.4933 1.23529 31.6221 1.18301 31.8023 1.18301C31.931 1.18301 32.034 1.23529 32.1113 1.26144C32.2143 1.31373 32.3172 1.36601 32.446 1.36601C32.5747 1.36601 32.6777 1.31373 32.8322 1.26144C32.9609 1.20915 33.0897 1.15686 33.2441 1.15686C33.5274 1.15686 33.6561 1.31372 33.8878 1.44444C34.0938 1.52287 34.2998 1.52288 34.5572 1.52288H34.6087V1.44444H34.5315C34.5315 1.49673 34.5315 1.57516 34.5315 1.60131C34.5315 1.70588 34.5315 1.78431 34.5315 1.88889C34.5315 1.94117 34.5572 1.99346 34.583 2.04575L34.686 2.12418C34.7117 2.15033 34.7117 2.17647 34.7375 2.2549C34.7375 2.35948 34.7117 2.35948 34.6602 2.41176L34.5572 2.46405C34.5315 2.4902 34.48 2.54248 34.48 2.59477H34.583H34.5058V3.61438C34.5058 3.66667 34.5572 3.71895 34.583 3.7451C34.6345 3.79739 34.686 3.82353 34.7117 3.84967L34.7632 3.9281C34.7632 3.98039 34.7632 4.00654 34.7375 4.03268C34.7117 4.05882 34.686 4.08497 34.6345 4.11111C34.583 4.13725 34.5058 4.21568 34.5058 4.32026V4.34641C34.5058 4.39869 34.5058 4.47713 34.5058 4.55556C34.5058 4.71242 34.5058 4.86928 34.5058 4.86928H34.583V4.79085C34.3513 4.79085 33.5274 4.79085 32.6777 4.79085C31.6221 4.79085 30.5149 4.79085 30.4377 4.79085V4.86928H30.5149C30.5149 4.76471 30.5149 4.71242 30.5149 4.66013C30.5149 4.5817 30.5149 4.52941 30.5149 4.50327C30.5149 4.47712 30.5149 4.45098 30.5149 4.37255C30.5149 4.29412 30.4892 4.24183 30.4377 4.21569C30.3862 4.1634 30.309 4.11111 30.2832 4.05882C30.2317 4.00653 30.206 3.95425 30.206 3.90196C30.206 3.84967 30.206 3.84967 30.2832 3.79738C30.3347 3.77124 30.412 3.69281 30.4377 3.58823V2.56863C30.412 2.43791 30.309 2.38562 30.2575 2.33333C30.1802 2.28105 30.1545 2.22876 30.1545 2.20262C30.1545 2.12418 30.1802 2.12418 30.2575 2.0719L30.3605 1.99346C30.3862 1.96732 30.4377 1.91503 30.4377 1.8366C30.4377 1.78431 30.4377 1.60131 30.4377 1.52288V1.47059L30.3347 1.44444H30.2575V1.49673C30.2575 1.60131 30.2575 1.75817 30.2575 1.81046V1.8366C30.2317 1.86274 30.1802 1.88889 30.1287 1.91503C30.0772 1.96732 30 2.04575 30 2.15033V2.17647C30 2.33333 30.103 2.41177 30.1802 2.46405L30.2832 2.54248L30.309 2.56863V3.58823C30.309 3.61438 30.2832 3.64052 30.2317 3.69281C30.1802 3.71895 30.103 3.79738 30.103 3.9281C30.103 4.08497 30.206 4.18954 30.2832 4.26797L30.3862 4.37255L30.412 4.42484C30.412 4.47713 30.412 4.52941 30.412 4.55556C30.412 4.60784 30.412 4.63399 30.412 4.71242C30.412 4.7647 30.412 4.84314 30.412 4.92157V5H30.4892C30.5922 5 31.6736 5 32.7292 5C33.5789 5 34.377 5 34.6345 5H34.7117V4.92157C34.7117 4.92157 34.7117 4.76471 34.7117 4.60784C34.7117 4.52941 34.7117 4.45098 34.7117 4.39869V4.37255L34.7375 4.32026C34.7632 4.29412 34.8147 4.26797 34.8662 4.24183C34.9177 4.18954 34.9949 4.11111 34.9949 3.98039C34.9949 3.84967 34.892 3.7451 34.8147 3.71895L34.7375 3.66667L34.7117 3.64052V2.62091H34.686L34.7117 2.64706V2.62091H34.686L34.7117 2.64706C34.7117 2.64706 34.789 2.62091 34.8662 2.56863C34.9435 2.51634 35.0207 2.43791 34.9949 2.28104C34.9949 2.12418 34.9177 2.01961 34.8405 1.99346L34.789 1.94118V1.91503C34.789 1.81046 34.789 1.73202 34.789 1.62745C34.789 1.57516 34.789 1.52288 34.789 1.47059V1.36601H34.686H34.583C34.3513 1.36601 34.1453 1.36601 33.9908 1.28758C33.8106 1.20915 33.6304 1 33.2699 1C33.0897 1 32.9352 1.05229 32.8064 1.10457C32.6777 1.15686 32.549 1.20915 32.4975 1.20915C32.4202 1.20915 32.343 1.18301 32.24 1.13072C32.137 1.07843 32.0083 1.02615 31.8538 1.02615C31.6221 1.02615 31.4676 1.10458 31.3389 1.15686C31.1844 1.2353 31.0556 1.31373 30.8754 1.33987L30.9012 1.4183V1.33987H30.3605H30.2575V1.44444H30.3347Z" fill="#707070"/>
<path d="M31 1C31 1 31 2.05405 31 2.91892C31 3.35135 31 3.72973 31 3.91892V4H31.0647C31.0647 4 31.7122 4 32.4029 4C33.1151 4 33.8489 4 33.9353 4H34V3.91892C34 3.2973 34 1 34 1H33.8489C33.8489 1 33.8489 3.2973 33.8489 3.91892H33.9137V3.83784C33.8705 3.83784 33.1151 3.83784 32.4029 3.83784C31.7122 3.83784 31.0647 3.83784 31.0647 3.83784V3.91892H31.1295C31.1295 3.72973 31.1295 3.35135 31.1295 2.91892C31.1295 2.05405 31.1295 1 31.1295 1H31Z" fill="#707070"/>
<path d="M32.5 4.1875V4.375L32.6364 4.4375L32.6818 4.5L32.6364 4.56249L32.5 4.625L32.3636 4.56249L32.3182 4.5L32.3636 4.4375L32.5 4.375V4.1875V4C32.3636 4 32.2727 4.0625 32.1818 4.125C32.0909 4.1875 32 4.375 32 4.5C32 4.6875 32.0909 4.81249 32.1818 4.87499C32.2727 4.93749 32.3636 5 32.5 5C32.6364 5 32.7273 4.93749 32.8182 4.87499C32.9091 4.81249 33 4.625 33 4.5C33 4.3125 32.9091 4.1875 32.8182 4.125C32.7273 4.0625 32.6364 4 32.5 4V4.1875Z" fill="#707070"/>
<path d="M33 13.5C33 12.6818 33.6739 12 34.5 12C35.3261 12 36 12.6818 36 13.5C36 14.3409 35.3261 15 34.5 15C33.6739 15 33 14.3182 33 13.5Z" fill="white"/>
<path d="M34.5 12.0857V12.15C35.25 12.15 35.8542 12.75 35.8542 13.5C35.8542 14.25 35.25 14.85 34.5 14.85C33.75 14.85 33.1458 14.25 33.1458 13.5C33.1458 12.75 33.75 12.15 34.5 12.15V12.0857V12C33.6667 12 33 12.6643 33 13.5C33 14.3357 33.6667 14.9786 34.5 15C35.3333 15 36 14.3357 36 13.5C36 12.6643 35.3333 12.0214 34.5 12V12.0857Z" fill="#707070"/>
<path d="M37 9.5C37 8.65909 37.6739 8 38.5 8C39.3261 8 40 8.68182 40 9.5C40 10.3409 39.3261 11 38.5 11C37.6739 11 37 10.3182 37 9.5Z" fill="white"/>
<path d="M38.5 8.06429V8.12857C39.25 8.12857 39.8542 8.72857 39.8542 9.47857C39.8542 10.2286 39.25 10.8286 38.5 10.8286C37.75 10.8286 37.1458 10.2286 37.1458 9.47857C37.1458 8.72857 37.75 8.12857 38.5 8.12857V8.06429V8C37.6667 8 37 8.66429 37 9.5C37 10.3357 37.6667 11 38.5 11C39.3333 11 40 10.3357 40 9.5C40 8.66429 39.3333 8 38.5 8V8.06429Z" fill="#707070"/>
<path d="M42 13.5C42 12.6818 42.6739 12 43.5 12C44.3261 12 45 12.6818 45 13.5C45 14.3409 44.3261 15 43.5 15C42.6739 15 42 14.3182 42 13.5Z" fill="white"/>
<path d="M43.5 12.0857V12.15C44.25 12.15 44.8542 12.75 44.8542 13.5C44.8542 14.25 44.25 14.85 43.5 14.85C42.75 14.85 42.1458 14.25 42.1458 13.5C42.1458 12.75 42.75 12.15 43.5 12.15V12.0857V12C42.6667 12 42 12.6643 42 13.5C42 14.3357 42.6667 14.9786 43.5 15C44.3333 15 45 14.3357 45 13.5C45 12.6643 44.3333 12.0214 43.5 12V12.0857Z" fill="#707070"/>
<path d="M40 3.91579C39.8154 3.70526 39.6513 3.49473 39.5282 3.32631C39.4667 3.2421 39.4051 3.15789 39.3641 3.11579L39.3026 3.05263L39.241 3.01052C39.2205 3.01052 39.159 2.94737 39.0769 2.84211C38.8308 2.56842 38.359 2.04211 37.4769 2H37.3949C37.2103 2 36.8821 2.02105 36.5949 2.08421C36.4513 2.10526 36.3077 2.14737 36.2051 2.21053C36.1026 2.25263 36.0205 2.31579 36 2.4421L36.1436 2.46316C36.1436 2.4421 36.1846 2.4 36.2872 2.33684C36.5538 2.21052 37.1692 2.12631 37.4359 2.12631H37.4974C38.0513 2.16842 38.4205 2.37895 38.6872 2.61053C38.8103 2.71579 38.9128 2.8421 38.9949 2.92631C39.0769 3.01052 39.1385 3.09473 39.2 3.11579C39.2 3.11579 39.241 3.15789 39.2821 3.2C39.4051 3.36842 39.6513 3.70526 39.9179 4L40 3.91579Z" fill="#707070"/>
<path d="M37.6842 4V3.89381C37.6842 3.84071 37.6316 3.81416 37.6316 3.78761L37.5263 3.76106C37.4737 3.76106 37.3947 3.76106 37.3421 3.76106C37.2895 3.76106 37.2368 3.76106 37.2105 3.76106L37.1842 3.84071L37.2368 3.78761L37.2105 3.76106L37.1842 3.84071H37.2632L37.2368 3.76106L37.1842 3.81416L37.2368 3.86726L37.2632 3.81416H37.1842L37.2368 3.86726L37.2895 3.84071L37.3158 3.81416H37.3421L37.3684 3.78761L37.3947 3.73451L37.3421 3.65487H37.3158V3.73451L37.3421 3.81416C37.4474 3.78761 37.5789 3.70797 37.7105 3.62832C37.7895 3.57522 37.8421 3.54867 37.8947 3.49558C37.9474 3.44248 38 3.38938 38 3.30974C38 3.25664 37.9737 3.20354 37.9211 3.15044C37.7368 2.99115 37.6579 2.80531 37.5263 2.67256C37.3684 2.51327 37.1842 2.40708 36.9211 2.40708C36.7632 2.40708 36.6316 2.51327 36.4737 2.61947C36.3421 2.72566 36.2105 2.85841 36.1579 2.88496L36.2105 2.9646L36.2632 3.0177C36.3158 2.9646 36.4211 2.88496 36.5 2.75221C36.6053 2.64602 36.6842 2.51327 36.6842 2.35398C36.6842 1.82301 36.2895 1.37168 36.1842 1L36 1.0531C36.1053 1.47788 36.5 1.90265 36.5 2.35398C36.5 2.40708 36.4474 2.53982 36.3684 2.61947C36.2895 2.72566 36.1842 2.80531 36.1316 2.85841L36.2368 2.99115C36.3158 2.93806 36.4474 2.80531 36.5789 2.69912C36.7105 2.59292 36.8421 2.51328 36.8947 2.51328C37.1316 2.51328 37.2368 2.59292 37.3684 2.72567C37.4474 2.83186 37.5789 3.0177 37.7632 3.20354V3.23009L37.7105 3.28319C37.6053 3.38938 37.3421 3.49558 37.2105 3.54867L37.2368 3.73451V3.76106L37.2105 3.84071H37.2368V3.76106H37.1579L37.2105 3.84071L37.2368 3.76106L37.1842 3.70797L37.1579 3.76106H37.2368L37.2105 3.70797L37.2632 3.76106L37.2368 3.70797L37.1842 3.73451L37.1316 3.76106L37.1053 3.78761L37.0789 3.86726L37.1053 3.9469L37.1579 3.97345C37.2368 4 37.3158 3.97345 37.4211 4H37.5263H37.5526L37.5789 3.9469L37.5526 3.97345H37.5789L37.6053 3.92036L37.5789 3.9469L37.6316 3.89381H37.5526L37.5789 3.9469L37.6316 3.89381H37.5526V4H37.6842Z" fill="#707070"/>
<path d="M29.1662 0.140937V0.305366H47.6912V9.37248C47.62 13.0604 45.5062 15.8792 43.2737 17.8054C42.1575 18.7685 40.9937 19.4732 40.0437 19.9664C39.5687 20.2013 39.1412 20.3893 38.8087 20.5067C38.4762 20.6242 38.215 20.6946 38.12 20.6711C38.025 20.6711 37.7875 20.6007 37.4787 20.4832C36.3862 20.0604 34.32 18.9094 32.5625 17.0302C30.805 15.1745 29.3325 12.6141 29.3325 9.34899V9.3255C29.3325 9.25503 29.3325 6.95302 29.3325 4.6745C29.3325 3.52349 29.3325 2.39597 29.3325 1.55033C29.3325 0.704696 29.3325 0.140937 29.3325 0.140937H29.1662H29C29 0.140937 29 9.20805 29 9.34899V9.37248C29 13.2013 30.995 16.1141 33.1087 18.0403C34.1775 19.0034 35.27 19.7315 36.1725 20.2248C36.6237 20.4597 37.0275 20.6477 37.36 20.7886C37.6925 20.906 37.93 20.9765 38.12 21H38.1438C38.3337 21 38.595 20.9295 38.9275 20.8121C40.1387 20.3658 42.3713 19.1913 44.3187 17.2886C46.2663 15.3859 47.9525 12.7315 48 9.39597V0H29V0.164429L29.1662 0.140937Z" fill="#707070"/>
</svg>
