<svg width="75" height="22" viewBox="0 0 75 22" fill="none" xmlns="http://www.w3.org/2000/svg"><path d="M72.436 2.607c0-.564.056-.902.39-1.128.5-.225.777-.338 1.389-.45 0 0 .056-.114 0-.114h-10.28c-.057 0-.057.057 0 .113.555.113.888.226 1.389.451.389.17.389.564.389 1.128v10.436c0 2.37-1.334 4.174-4.001 4.174-2.668 0-4.002-1.804-4.002-4.174V2.607c0-.564.056-.902.39-1.128.5-.225.778-.338 1.39-.45 0 0 .055-.114 0-.114h-9.672c-.056 0-.056.057 0 .113.334.057.556.17.778.395.334.283.39.621.39 1.185v10.21c0 4.908 2.667 9.138 10.725 9.138 8.057 0 10.725-4.174 10.725-9.138V2.608zM9.36 4.864h3.113c2.056 0 3.223.338 3.223 2.2 0 1.24-.723 2.313-3.168 2.313H9.305V4.864h.055zm0 7.671h2.723c1.778 0 4.001 0 4.001 2.538 0 1.862-1.555 2.539-3.723 2.539h-3v-5.077zM2.858 2.607v17.318c0 .564-.056.903-.389 1.128-.5.226-.778.339-1.39.451 0 0-.055.113 0 .113h13.783c5.835 0 8.28-2.37 8.28-5.98 0-2.708-1.222-4.4-3.722-5.02v-.057c1.555-.508 3-1.636 3-4.457 0-3.836-2.556-5.134-8.113-5.134H1.025c-.056 0-.056.057 0 .113.667.113.945.17 1.445.451.388.172.388.51.388 1.074zm36.623-1.523c.334 0 .89 0 .834.846-.056.677-3.668 5.868-4.057 6.657-1.278-1.974-4.057-5.923-4.057-6.657 0-.62.5-.846.945-.846 0 0 .056-.113 0-.113h-9.947c-.056 0-.056.057 0 .113.445.057.612.113 1.111.395.056.057.223.113.279.17.333.282.555.564.945 1.128l7.057 10.548v6.6c0 .564-.056.903-.39 1.128-.5.226-.777.339-1.389.451 0 0-.056.113 0 .113H41.65c.056 0 .056-.057 0-.113a5.746 5.746 0 01-1.39-.45c-.39-.17-.39-.565-.39-1.129v-6.6l7.003-10.548c.39-.564.612-.903.945-1.185.056-.057.167-.17.278-.17.279-.17.445-.282.778-.338 0 0 .056-.113 0-.113h-9.392c-.055 0-.055.057 0 .113z" fill="#373737"/></svg>