<svg width="55" height="51" viewBox="0 0 55 51" fill="none" xmlns="http://www.w3.org/2000/svg"><path d="M.266 20.44L54.53.484v29.871L.266 50.311V20.44z" fill="#444"/><path d="M8.593 31.826h-.878v-1.22h.094c2.525 0 2.149-3.342.424-3.342H6.805v-1.24h1.412c1.223 0 1.521-2.745-.172-2.745H6.21v7.327h1.505v1.22h-3.89V23.17H2.9v-1.1h5.82c1.647 0 2.446 1.146 2.446 2.26 0 .894-.72 1.793-1.362 1.793 0 0 1.739.544 1.739 2.819 0 1.56-.957 2.883-2.949 2.883zm7.496-2.742h-1.646l-1.192 2.605h-1.929l4.282-9.477h1.237l4.015 9.477h-2.012l-1.113-2.605h-1.642V27.97h1.193l-1.193-2.918-1.317 2.918h1.317v1.114zm7.85-6.872h-1.882v9.477h1.882v-9.477zm7.929 4.736s1.561.567 1.75 3.014c.134 1.744.972 2.636 2.383 2.887v.847c-2.226.14-3.99-1.032-4.422-3.483-.408-2.317-1.318-2.948-1.318-2.948h-.816v-1.141h.816c1.28 0 1.538-2.813-.211-2.813h-1.852v8.378h-1.882v-8.496h-.87v-.98h5.434c3.176 0 2.729 4.735.988 4.735zm3.215-4.736h4.83c5.584 0 4.988 9.477 0 9.477H36.15v-4.911h2.259v3.86s3.701.471 3.701-3.688-3.701-3.561-3.701-3.561v3.389H36.15v-3.389h-1.066v-1.177z" fill="#fff"/></svg>